<svg width="713" height="254" viewBox="0 0 713 254" fill="none" xmlns="http://www.w3.org/2000/svg">
<g id="welcome">
<g id="e">
<g id="OFF">
<g id="color-off">
<g id="color-off_2" filter="url(#filter0_f)">
<path d="M211.808 183.72C204.224 183.72 197.456 182.04 191.504 178.68C185.648 175.224 181.04 170.472 177.68 164.424C174.32 158.376 172.64 151.464 172.64 143.688C172.64 135.816 174.224 128.904 177.392 122.952C180.56 116.904 184.928 112.152 190.496 108.696C196.064 105.24 202.448 103.512 209.648 103.512C216.752 103.512 223.04 105.192 228.512 108.552C233.984 111.816 238.256 116.376 241.328 122.232C244.4 127.992 245.936 134.664 245.936 142.248C245.936 143.496 245.552 144.504 244.784 145.272C244.016 145.944 243.008 146.28 241.76 146.28H181.424C181.712 152.04 183.2 157.128 185.888 161.544C188.576 165.96 192.128 169.416 196.544 171.912C201.056 174.408 206.144 175.656 211.808 175.656C215.552 175.656 219.296 175.032 223.04 173.784C226.88 172.44 229.904 170.712 232.112 168.6C232.88 167.832 233.792 167.448 234.848 167.448C236 167.352 236.96 167.64 237.728 168.312C238.784 169.176 239.312 170.136 239.312 171.192C239.408 172.248 238.976 173.208 238.016 174.072C234.944 176.856 230.912 179.16 225.92 180.984C221.024 182.808 216.32 183.72 211.808 183.72ZM209.648 111.576C204.656 111.576 200.144 112.728 196.112 115.032C192.08 117.336 188.768 120.552 186.176 124.68C183.68 128.712 182.144 133.416 181.568 138.792H237.584C236.912 130.728 234.032 124.2 228.944 119.208C223.856 114.12 217.424 111.576 209.648 111.576Z" fill="#F65E52" fill-opacity="0.63"/>
</g>
</g>
<g id="white-off">
<g id="white-off_2" filter="url(#filter1_f)">
<path d="M211.808 183.72C204.224 183.72 197.456 182.04 191.504 178.68C185.648 175.224 181.04 170.472 177.68 164.424C174.32 158.376 172.64 151.464 172.64 143.688C172.64 135.816 174.224 128.904 177.392 122.952C180.56 116.904 184.928 112.152 190.496 108.696C196.064 105.24 202.448 103.512 209.648 103.512C216.752 103.512 223.04 105.192 228.512 108.552C233.984 111.816 238.256 116.376 241.328 122.232C244.4 127.992 245.936 134.664 245.936 142.248C245.936 143.496 245.552 144.504 244.784 145.272C244.016 145.944 243.008 146.28 241.76 146.28H181.424C181.712 152.04 183.2 157.128 185.888 161.544C188.576 165.96 192.128 169.416 196.544 171.912C201.056 174.408 206.144 175.656 211.808 175.656C215.552 175.656 219.296 175.032 223.04 173.784C226.88 172.44 229.904 170.712 232.112 168.6C232.88 167.832 233.792 167.448 234.848 167.448C236 167.352 236.96 167.64 237.728 168.312C238.784 169.176 239.312 170.136 239.312 171.192C239.408 172.248 238.976 173.208 238.016 174.072C234.944 176.856 230.912 179.16 225.92 180.984C221.024 182.808 216.32 183.72 211.808 183.72ZM209.648 111.576C204.656 111.576 200.144 112.728 196.112 115.032C192.08 117.336 188.768 120.552 186.176 124.68C183.68 128.712 182.144 133.416 181.568 138.792H237.584C236.912 130.728 234.032 124.2 228.944 119.208C223.856 114.12 217.424 111.576 209.648 111.576Z" fill="#C2C2C2"/>
</g>
</g>
<g id="white-off_3">
<g id="white-off_4" filter="url(#filter2_if)">
<path d="M211.808 183.72C204.224 183.72 197.456 182.04 191.504 178.68C185.648 175.224 181.04 170.472 177.68 164.424C174.32 158.376 172.64 151.464 172.64 143.688C172.64 135.816 174.224 128.904 177.392 122.952C180.56 116.904 184.928 112.152 190.496 108.696C196.064 105.24 202.448 103.512 209.648 103.512C216.752 103.512 223.04 105.192 228.512 108.552C233.984 111.816 238.256 116.376 241.328 122.232C244.4 127.992 245.936 134.664 245.936 142.248C245.936 143.496 245.552 144.504 244.784 145.272C244.016 145.944 243.008 146.28 241.76 146.28H181.424C181.712 152.04 183.2 157.128 185.888 161.544C188.576 165.96 192.128 169.416 196.544 171.912C201.056 174.408 206.144 175.656 211.808 175.656C215.552 175.656 219.296 175.032 223.04 173.784C226.88 172.44 229.904 170.712 232.112 168.6C232.88 167.832 233.792 167.448 234.848 167.448C236 167.352 236.96 167.64 237.728 168.312C238.784 169.176 239.312 170.136 239.312 171.192C239.408 172.248 238.976 173.208 238.016 174.072C234.944 176.856 230.912 179.16 225.92 180.984C221.024 182.808 216.32 183.72 211.808 183.72ZM209.648 111.576C204.656 111.576 200.144 112.728 196.112 115.032C192.08 117.336 188.768 120.552 186.176 124.68C183.68 128.712 182.144 133.416 181.568 138.792H237.584C236.912 130.728 234.032 124.2 228.944 119.208C223.856 114.12 217.424 111.576 209.648 111.576Z" fill="white" fill-opacity="0.5"/>
</g>
</g>
</g>
<g id="ON">
<g id="color-on">
<g id="color-on_2" filter="url(#filter3_df)">
<path d="M213.968 183.576C206 183.576 198.896 181.896 192.656 178.536C186.512 175.08 181.664 170.376 178.112 164.424C174.656 158.376 172.928 151.464 172.928 143.688C172.928 135.816 174.56 128.904 177.824 122.952C181.184 116.904 185.792 112.2 191.648 108.84C197.504 105.384 204.224 103.656 211.808 103.656C219.296 103.656 225.728 105.336 231.104 108.696C236.48 111.96 240.56 116.52 243.344 122.376C246.224 128.136 247.664 134.808 247.664 142.392C247.664 144.216 247.04 145.752 245.792 147C244.544 148.152 242.96 148.728 241.04 148.728H186.32C187.376 155.352 190.4 160.776 195.392 165C200.48 169.128 206.672 171.192 213.968 171.192C216.944 171.192 219.968 170.664 223.04 169.608C226.208 168.456 228.752 167.16 230.672 165.72C232.112 164.664 233.648 164.136 235.28 164.136C237.008 164.04 238.496 164.52 239.744 165.576C241.376 167.016 242.24 168.6 242.336 170.328C242.432 172.056 241.664 173.544 240.032 174.792C236.768 177.384 232.688 179.496 227.792 181.128C222.992 182.76 218.384 183.576 213.968 183.576ZM211.808 116.04C204.704 116.04 198.992 118.008 194.672 121.944C190.352 125.88 187.616 130.968 186.464 137.208H234.416C233.552 131.064 231.2 126.024 227.36 122.088C223.52 118.056 218.336 116.04 211.808 116.04Z" fill="#F65E52" fill-opacity="0.7"/>
</g>
</g>
<g id="color-on_3">
<g id="color-on_4" filter="url(#filter4_df)">
<path d="M213.968 183.576C206 183.576 198.896 181.896 192.656 178.536C186.512 175.08 181.664 170.376 178.112 164.424C174.656 158.376 172.928 151.464 172.928 143.688C172.928 135.816 174.56 128.904 177.824 122.952C181.184 116.904 185.792 112.2 191.648 108.84C197.504 105.384 204.224 103.656 211.808 103.656C219.296 103.656 225.728 105.336 231.104 108.696C236.48 111.96 240.56 116.52 243.344 122.376C246.224 128.136 247.664 134.808 247.664 142.392C247.664 144.216 247.04 145.752 245.792 147C244.544 148.152 242.96 148.728 241.04 148.728H186.32C187.376 155.352 190.4 160.776 195.392 165C200.48 169.128 206.672 171.192 213.968 171.192C216.944 171.192 219.968 170.664 223.04 169.608C226.208 168.456 228.752 167.16 230.672 165.72C232.112 164.664 233.648 164.136 235.28 164.136C237.008 164.04 238.496 164.52 239.744 165.576C241.376 167.016 242.24 168.6 242.336 170.328C242.432 172.056 241.664 173.544 240.032 174.792C236.768 177.384 232.688 179.496 227.792 181.128C222.992 182.76 218.384 183.576 213.968 183.576ZM211.808 116.04C204.704 116.04 198.992 118.008 194.672 121.944C190.352 125.88 187.616 130.968 186.464 137.208H234.416C233.552 131.064 231.2 126.024 227.36 122.088C223.52 118.056 218.336 116.04 211.808 116.04Z" fill="#F65E52" fill-opacity="0.7"/>
</g>
</g>
<g id="white-on">
<g id="white-on_2" filter="url(#filter5_f)">
<path d="M211.808 183.72C204.224 183.72 197.456 182.04 191.504 178.68C185.648 175.224 181.04 170.472 177.68 164.424C174.32 158.376 172.64 151.464 172.64 143.688C172.64 135.816 174.224 128.904 177.392 122.952C180.56 116.904 184.928 112.152 190.496 108.696C196.064 105.24 202.448 103.512 209.648 103.512C216.752 103.512 223.04 105.192 228.512 108.552C233.984 111.816 238.256 116.376 241.328 122.232C244.4 127.992 245.936 134.664 245.936 142.248C245.936 143.496 245.552 144.504 244.784 145.272C244.016 145.944 243.008 146.28 241.76 146.28H181.424C181.712 152.04 183.2 157.128 185.888 161.544C188.576 165.96 192.128 169.416 196.544 171.912C201.056 174.408 206.144 175.656 211.808 175.656C215.552 175.656 219.296 175.032 223.04 173.784C226.88 172.44 229.904 170.712 232.112 168.6C232.88 167.832 233.792 167.448 234.848 167.448C236 167.352 236.96 167.64 237.728 168.312C238.784 169.176 239.312 170.136 239.312 171.192C239.408 172.248 238.976 173.208 238.016 174.072C234.944 176.856 230.912 179.16 225.92 180.984C221.024 182.808 216.32 183.72 211.808 183.72ZM209.648 111.576C204.656 111.576 200.144 112.728 196.112 115.032C192.08 117.336 188.768 120.552 186.176 124.68C183.68 128.712 182.144 133.416 181.568 138.792H237.584C236.912 130.728 234.032 124.2 228.944 119.208C223.856 114.12 217.424 111.576 209.648 111.576Z" fill="white" fill-opacity="0.85"/>
</g>
</g>
</g>
</g>
<g id="e_2">
<g id="OFF_2">
<g id="color-off_3">
<g id="color-off_4" filter="url(#filter6_f)">
<path d="M606.808 183.72C599.224 183.72 592.456 182.04 586.504 178.68C580.648 175.224 576.04 170.472 572.68 164.424C569.32 158.376 567.64 151.464 567.64 143.688C567.64 135.816 569.224 128.904 572.392 122.952C575.56 116.904 579.928 112.152 585.496 108.696C591.064 105.24 597.448 103.512 604.648 103.512C611.752 103.512 618.04 105.192 623.512 108.552C628.984 111.816 633.256 116.376 636.328 122.232C639.4 127.992 640.936 134.664 640.936 142.248C640.936 143.496 640.552 144.504 639.784 145.272C639.016 145.944 638.008 146.28 636.76 146.28H576.424C576.712 152.04 578.2 157.128 580.888 161.544C583.576 165.96 587.128 169.416 591.544 171.912C596.056 174.408 601.144 175.656 606.808 175.656C610.552 175.656 614.296 175.032 618.04 173.784C621.88 172.44 624.904 170.712 627.112 168.6C627.88 167.832 628.792 167.448 629.848 167.448C631 167.352 631.96 167.64 632.728 168.312C633.784 169.176 634.312 170.136 634.312 171.192C634.408 172.248 633.976 173.208 633.016 174.072C629.944 176.856 625.912 179.16 620.92 180.984C616.024 182.808 611.32 183.72 606.808 183.72ZM604.648 111.576C599.656 111.576 595.144 112.728 591.112 115.032C587.08 117.336 583.768 120.552 581.176 124.68C578.68 128.712 577.144 133.416 576.568 138.792H632.584C631.912 130.728 629.032 124.2 623.944 119.208C618.856 114.12 612.424 111.576 604.648 111.576Z" fill="#F65E52" fill-opacity="0.63"/>
</g>
</g>
<g id="white-off_5">
<g id="white-off_6" filter="url(#filter7_f)">
<path d="M606.808 183.72C599.224 183.72 592.456 182.04 586.504 178.68C580.648 175.224 576.04 170.472 572.68 164.424C569.32 158.376 567.64 151.464 567.64 143.688C567.64 135.816 569.224 128.904 572.392 122.952C575.56 116.904 579.928 112.152 585.496 108.696C591.064 105.24 597.448 103.512 604.648 103.512C611.752 103.512 618.04 105.192 623.512 108.552C628.984 111.816 633.256 116.376 636.328 122.232C639.4 127.992 640.936 134.664 640.936 142.248C640.936 143.496 640.552 144.504 639.784 145.272C639.016 145.944 638.008 146.28 636.76 146.28H576.424C576.712 152.04 578.2 157.128 580.888 161.544C583.576 165.96 587.128 169.416 591.544 171.912C596.056 174.408 601.144 175.656 606.808 175.656C610.552 175.656 614.296 175.032 618.04 173.784C621.88 172.44 624.904 170.712 627.112 168.6C627.88 167.832 628.792 167.448 629.848 167.448C631 167.352 631.96 167.64 632.728 168.312C633.784 169.176 634.312 170.136 634.312 171.192C634.408 172.248 633.976 173.208 633.016 174.072C629.944 176.856 625.912 179.16 620.92 180.984C616.024 182.808 611.32 183.72 606.808 183.72ZM604.648 111.576C599.656 111.576 595.144 112.728 591.112 115.032C587.08 117.336 583.768 120.552 581.176 124.68C578.68 128.712 577.144 133.416 576.568 138.792H632.584C631.912 130.728 629.032 124.2 623.944 119.208C618.856 114.12 612.424 111.576 604.648 111.576Z" fill="#C2C2C2"/>
</g>
</g>
<g id="white-off_7">
<g id="white-off_8" filter="url(#filter8_if)">
<path d="M606.808 183.72C599.224 183.72 592.456 182.04 586.504 178.68C580.648 175.224 576.04 170.472 572.68 164.424C569.32 158.376 567.64 151.464 567.64 143.688C567.64 135.816 569.224 128.904 572.392 122.952C575.56 116.904 579.928 112.152 585.496 108.696C591.064 105.24 597.448 103.512 604.648 103.512C611.752 103.512 618.04 105.192 623.512 108.552C628.984 111.816 633.256 116.376 636.328 122.232C639.4 127.992 640.936 134.664 640.936 142.248C640.936 143.496 640.552 144.504 639.784 145.272C639.016 145.944 638.008 146.28 636.76 146.28H576.424C576.712 152.04 578.2 157.128 580.888 161.544C583.576 165.96 587.128 169.416 591.544 171.912C596.056 174.408 601.144 175.656 606.808 175.656C610.552 175.656 614.296 175.032 618.04 173.784C621.88 172.44 624.904 170.712 627.112 168.6C627.88 167.832 628.792 167.448 629.848 167.448C631 167.352 631.96 167.64 632.728 168.312C633.784 169.176 634.312 170.136 634.312 171.192C634.408 172.248 633.976 173.208 633.016 174.072C629.944 176.856 625.912 179.16 620.92 180.984C616.024 182.808 611.32 183.72 606.808 183.72ZM604.648 111.576C599.656 111.576 595.144 112.728 591.112 115.032C587.08 117.336 583.768 120.552 581.176 124.68C578.68 128.712 577.144 133.416 576.568 138.792H632.584C631.912 130.728 629.032 124.2 623.944 119.208C618.856 114.12 612.424 111.576 604.648 111.576Z" fill="white" fill-opacity="0.5"/>
</g>
</g>
</g>
<g id="ON_2">
<g id="color-on_5">
<g id="color-on_6" filter="url(#filter9_df)">
<path d="M608.968 183.576C601 183.576 593.896 181.896 587.656 178.536C581.512 175.08 576.664 170.376 573.112 164.424C569.656 158.376 567.928 151.464 567.928 143.688C567.928 135.816 569.56 128.904 572.824 122.952C576.184 116.904 580.792 112.2 586.648 108.84C592.504 105.384 599.224 103.656 606.808 103.656C614.296 103.656 620.728 105.336 626.104 108.696C631.48 111.96 635.56 116.52 638.344 122.376C641.224 128.136 642.664 134.808 642.664 142.392C642.664 144.216 642.04 145.752 640.792 147C639.544 148.152 637.96 148.728 636.04 148.728H581.32C582.376 155.352 585.4 160.776 590.392 165C595.48 169.128 601.672 171.192 608.968 171.192C611.944 171.192 614.968 170.664 618.04 169.608C621.208 168.456 623.752 167.16 625.672 165.72C627.112 164.664 628.648 164.136 630.28 164.136C632.008 164.04 633.496 164.52 634.744 165.576C636.376 167.016 637.24 168.6 637.336 170.328C637.432 172.056 636.664 173.544 635.032 174.792C631.768 177.384 627.688 179.496 622.792 181.128C617.992 182.76 613.384 183.576 608.968 183.576ZM606.808 116.04C599.704 116.04 593.992 118.008 589.672 121.944C585.352 125.88 582.616 130.968 581.464 137.208H629.416C628.552 131.064 626.2 126.024 622.36 122.088C618.52 118.056 613.336 116.04 606.808 116.04Z" fill="#F65E52" fill-opacity="0.7"/>
</g>
</g>
<g id="color-on_7">
<g id="color-on_8" filter="url(#filter10_df)">
<path d="M608.968 183.576C601 183.576 593.896 181.896 587.656 178.536C581.512 175.08 576.664 170.376 573.112 164.424C569.656 158.376 567.928 151.464 567.928 143.688C567.928 135.816 569.56 128.904 572.824 122.952C576.184 116.904 580.792 112.2 586.648 108.84C592.504 105.384 599.224 103.656 606.808 103.656C614.296 103.656 620.728 105.336 626.104 108.696C631.48 111.96 635.56 116.52 638.344 122.376C641.224 128.136 642.664 134.808 642.664 142.392C642.664 144.216 642.04 145.752 640.792 147C639.544 148.152 637.96 148.728 636.04 148.728H581.32C582.376 155.352 585.4 160.776 590.392 165C595.48 169.128 601.672 171.192 608.968 171.192C611.944 171.192 614.968 170.664 618.04 169.608C621.208 168.456 623.752 167.16 625.672 165.72C627.112 164.664 628.648 164.136 630.28 164.136C632.008 164.04 633.496 164.52 634.744 165.576C636.376 167.016 637.24 168.6 637.336 170.328C637.432 172.056 636.664 173.544 635.032 174.792C631.768 177.384 627.688 179.496 622.792 181.128C617.992 182.76 613.384 183.576 608.968 183.576ZM606.808 116.04C599.704 116.04 593.992 118.008 589.672 121.944C585.352 125.88 582.616 130.968 581.464 137.208H629.416C628.552 131.064 626.2 126.024 622.36 122.088C618.52 118.056 613.336 116.04 606.808 116.04Z" fill="#F65E52" fill-opacity="0.7"/>
</g>
</g>
<g id="white-on_3">
<g id="white-on_4" filter="url(#filter11_f)">
<path d="M606.808 183.72C599.224 183.72 592.456 182.04 586.504 178.68C580.648 175.224 576.04 170.472 572.68 164.424C569.32 158.376 567.64 151.464 567.64 143.688C567.64 135.816 569.224 128.904 572.392 122.952C575.56 116.904 579.928 112.152 585.496 108.696C591.064 105.24 597.448 103.512 604.648 103.512C611.752 103.512 618.04 105.192 623.512 108.552C628.984 111.816 633.256 116.376 636.328 122.232C639.4 127.992 640.936 134.664 640.936 142.248C640.936 143.496 640.552 144.504 639.784 145.272C639.016 145.944 638.008 146.28 636.76 146.28H576.424C576.712 152.04 578.2 157.128 580.888 161.544C583.576 165.96 587.128 169.416 591.544 171.912C596.056 174.408 601.144 175.656 606.808 175.656C610.552 175.656 614.296 175.032 618.04 173.784C621.88 172.44 624.904 170.712 627.112 168.6C627.88 167.832 628.792 167.448 629.848 167.448C631 167.352 631.96 167.64 632.728 168.312C633.784 169.176 634.312 170.136 634.312 171.192C634.408 172.248 633.976 173.208 633.016 174.072C629.944 176.856 625.912 179.16 620.92 180.984C616.024 182.808 611.32 183.72 606.808 183.72ZM604.648 111.576C599.656 111.576 595.144 112.728 591.112 115.032C587.08 117.336 583.768 120.552 581.176 124.68C578.68 128.712 577.144 133.416 576.568 138.792H632.584C631.912 130.728 629.032 124.2 623.944 119.208C618.856 114.12 612.424 111.576 604.648 111.576Z" fill="white" fill-opacity="0.85"/>
</g>
</g>
</g>
</g>
<g id="w">
<g id="OFF_3">
<g id="color-off_5">
<g id="color-off_6" filter="url(#filter12_f)">
<path d="M98.528 183C96.416 183 95.072 182.088 94.496 180.264L71.168 110.424C70.304 106.296 71.408 104.232 74.48 104.232C75.248 104.232 76.016 104.472 76.784 104.952C77.552 105.336 78.128 105.96 78.512 106.824L98.816 168.168L117.536 107.688C118.208 105.384 119.648 104.232 121.856 104.232C123.968 104.232 125.408 105.384 126.176 107.688L145.04 167.016L165.056 106.824C165.824 105.096 167.168 104.232 169.088 104.232C170.816 104.232 171.968 104.904 172.544 106.248C173.216 107.592 173.216 108.984 172.544 110.424L149.36 180.264C148.784 182.088 147.392 183 145.184 183C144.224 183 143.36 182.76 142.592 182.28C141.824 181.8 141.344 181.128 141.152 180.264L121.568 119.352L102.56 180.264C101.888 182.088 100.544 183 98.528 183Z" fill="#F65E52" fill-opacity="0.63"/>
</g>
</g>
<g id="white-off_9">
<g id="white-off_10" filter="url(#filter13_f)">
<path d="M98.528 183C96.416 183 95.072 182.088 94.496 180.264L71.168 110.424C70.304 106.296 71.408 104.232 74.48 104.232C75.248 104.232 76.016 104.472 76.784 104.952C77.552 105.336 78.128 105.96 78.512 106.824L98.816 168.168L117.536 107.688C118.208 105.384 119.648 104.232 121.856 104.232C123.968 104.232 125.408 105.384 126.176 107.688L145.04 167.016L165.056 106.824C165.824 105.096 167.168 104.232 169.088 104.232C170.816 104.232 171.968 104.904 172.544 106.248C173.216 107.592 173.216 108.984 172.544 110.424L149.36 180.264C148.784 182.088 147.392 183 145.184 183C144.224 183 143.36 182.76 142.592 182.28C141.824 181.8 141.344 181.128 141.152 180.264L121.568 119.352L102.56 180.264C101.888 182.088 100.544 183 98.528 183Z" fill="#C2C2C2"/>
</g>
</g>
<g id="white-off_11">
<g id="white-off_12" filter="url(#filter14_if)">
<path d="M98.528 183C96.416 183 95.072 182.088 94.496 180.264L71.168 110.424C70.304 106.296 71.408 104.232 74.48 104.232C75.248 104.232 76.016 104.472 76.784 104.952C77.552 105.336 78.128 105.96 78.512 106.824L98.816 168.168L117.536 107.688C118.208 105.384 119.648 104.232 121.856 104.232C123.968 104.232 125.408 105.384 126.176 107.688L145.04 167.016L165.056 106.824C165.824 105.096 167.168 104.232 169.088 104.232C170.816 104.232 171.968 104.904 172.544 106.248C173.216 107.592 173.216 108.984 172.544 110.424L149.36 180.264C148.784 182.088 147.392 183 145.184 183C144.224 183 143.36 182.76 142.592 182.28C141.824 181.8 141.344 181.128 141.152 180.264L121.568 119.352L102.56 180.264C101.888 182.088 100.544 183 98.528 183Z" fill="white" fill-opacity="0.5"/>
</g>
</g>
</g>
<g id="ON_3">
<g id="color-on_9">
<g id="color-on_10" filter="url(#filter15_df)">
<path d="M99.104 183C97.568 183 96.128 182.568 94.784 181.704C93.536 180.744 92.672 179.592 92.192 178.248L70.88 114.312C70.112 111.336 70.112 108.936 70.88 107.112C71.744 105.192 73.568 104.232 76.352 104.232C78.176 104.232 79.664 104.76 80.816 105.816C82.064 106.776 83.072 108.456 83.84 110.856L99.392 159.384L114.08 109.704C114.56 108.072 115.376 106.776 116.528 105.816C117.68 104.76 119.264 104.232 121.28 104.232C123.2 104.232 124.736 104.76 125.888 105.816C127.136 106.776 127.952 108.072 128.336 109.704L141.296 160.392L157.136 110.856C158.48 106.44 160.976 104.232 164.624 104.232C167.312 104.232 169.136 105.192 170.096 107.112C171.056 108.936 171.008 111.336 169.952 114.312L148.64 178.248C148.256 179.592 147.44 180.744 146.192 181.704C144.944 182.568 143.504 183 141.872 183C140.336 183 138.896 182.568 137.552 181.704C136.208 180.744 135.344 179.592 134.96 178.248L120.848 125.976L106.016 178.248C105.632 179.592 104.768 180.744 103.424 181.704C102.176 182.568 100.736 183 99.104 183Z" fill="#F65E52" fill-opacity="0.7"/>
</g>
</g>
<g id="color-on_11">
<g id="color-on_12" filter="url(#filter16_df)">
<path d="M99.104 183C97.568 183 96.128 182.568 94.784 181.704C93.536 180.744 92.672 179.592 92.192 178.248L70.88 114.312C70.112 111.336 70.112 108.936 70.88 107.112C71.744 105.192 73.568 104.232 76.352 104.232C78.176 104.232 79.664 104.76 80.816 105.816C82.064 106.776 83.072 108.456 83.84 110.856L99.392 159.384L114.08 109.704C114.56 108.072 115.376 106.776 116.528 105.816C117.68 104.76 119.264 104.232 121.28 104.232C123.2 104.232 124.736 104.76 125.888 105.816C127.136 106.776 127.952 108.072 128.336 109.704L141.296 160.392L157.136 110.856C158.48 106.44 160.976 104.232 164.624 104.232C167.312 104.232 169.136 105.192 170.096 107.112C171.056 108.936 171.008 111.336 169.952 114.312L148.64 178.248C148.256 179.592 147.44 180.744 146.192 181.704C144.944 182.568 143.504 183 141.872 183C140.336 183 138.896 182.568 137.552 181.704C136.208 180.744 135.344 179.592 134.96 178.248L120.848 125.976L106.016 178.248C105.632 179.592 104.768 180.744 103.424 181.704C102.176 182.568 100.736 183 99.104 183Z" fill="#F65E52" fill-opacity="0.7"/>
</g>
</g>
<g id="white-on_5">
<g id="white-on_6" filter="url(#filter17_f)">
<path d="M98.528 183C96.416 183 95.072 182.088 94.496 180.264L71.168 110.424C70.304 106.296 71.408 104.232 74.48 104.232C75.248 104.232 76.016 104.472 76.784 104.952C77.552 105.336 78.128 105.96 78.512 106.824L98.816 168.168L117.536 107.688C118.208 105.384 119.648 104.232 121.856 104.232C123.968 104.232 125.408 105.384 126.176 107.688L145.04 167.016L165.056 106.824C165.824 105.096 167.168 104.232 169.088 104.232C170.816 104.232 171.968 104.904 172.544 106.248C173.216 107.592 173.216 108.984 172.544 110.424L149.36 180.264C148.784 182.088 147.392 183 145.184 183C144.224 183 143.36 182.76 142.592 182.28C141.824 181.8 141.344 181.128 141.152 180.264L121.568 119.352L102.56 180.264C101.888 182.088 100.544 183 98.528 183Z" fill="white" fill-opacity="0.85"/>
</g>
</g>
</g>
</g>
<g id="l">
<g id="OFF_4">
<g id="color-off_7">
<g id="color-off_8" filter="url(#filter18_f)">
<path d="M273.8 183C268.328 183 263.816 180.792 260.264 176.376C256.808 171.96 255.08 166.248 255.08 159.24V74.856C255.08 73.512 255.464 72.456 256.232 71.688C257.096 70.92 258.152 70.536 259.4 70.536C260.744 70.536 261.8 70.92 262.568 71.688C263.336 72.456 263.72 73.512 263.72 74.856V159.24C263.72 163.656 264.632 167.304 266.456 170.184C268.376 172.968 270.824 174.36 273.8 174.36H277.4C279.8 174.36 281 175.8 281 178.68C281 179.928 280.616 180.984 279.848 181.848C279.08 182.616 278.024 183 276.68 183H273.8Z" fill="#F65E52" fill-opacity="0.63"/>
</g>
</g>
<g id="white-off_13">
<g id="white-off_14" filter="url(#filter19_f)">
<path d="M273.8 183C268.328 183 263.816 180.792 260.264 176.376C256.808 171.96 255.08 166.248 255.08 159.24V74.856C255.08 73.512 255.464 72.456 256.232 71.688C257.096 70.92 258.152 70.536 259.4 70.536C260.744 70.536 261.8 70.92 262.568 71.688C263.336 72.456 263.72 73.512 263.72 74.856V159.24C263.72 163.656 264.632 167.304 266.456 170.184C268.376 172.968 270.824 174.36 273.8 174.36H277.4C279.8 174.36 281 175.8 281 178.68C281 179.928 280.616 180.984 279.848 181.848C279.08 182.616 278.024 183 276.68 183H273.8Z" fill="#C2C2C2"/>
</g>
</g>
<g id="white-off_15">
<g id="white-off_16" filter="url(#filter20_if)">
<path d="M273.8 183C268.328 183 263.816 180.792 260.264 176.376C256.808 171.96 255.08 166.248 255.08 159.24V74.856C255.08 73.512 255.464 72.456 256.232 71.688C257.096 70.92 258.152 70.536 259.4 70.536C260.744 70.536 261.8 70.92 262.568 71.688C263.336 72.456 263.72 73.512 263.72 74.856V159.24C263.72 163.656 264.632 167.304 266.456 170.184C268.376 172.968 270.824 174.36 273.8 174.36H277.4C279.8 174.36 281 175.8 281 178.68C281 179.928 280.616 180.984 279.848 181.848C279.08 182.616 278.024 183 276.68 183H273.8Z" fill="white" fill-opacity="0.5"/>
</g>
</g>
</g>
<g id="ON_4">
<g id="color-on_13">
<g id="color-on_14" filter="url(#filter21_df)">
<path d="M277.017 183C272.793 183 269.049 181.848 265.785 179.544C262.521 177.24 259.977 174.12 258.153 170.184C256.329 166.152 255.417 161.544 255.417 156.36V77.736C255.417 75.624 256.089 73.896 257.433 72.552C258.777 71.208 260.505 70.536 262.617 70.536C264.729 70.536 266.457 71.208 267.801 72.552C269.145 73.896 269.817 75.624 269.817 77.736V156.36C269.817 159.912 270.489 162.84 271.833 165.144C273.177 167.448 274.905 168.6 277.017 168.6H280.617C282.537 168.6 284.073 169.272 285.225 170.616C286.473 171.96 287.097 173.688 287.097 175.8C287.097 177.912 286.185 179.64 284.361 180.984C282.537 182.328 280.185 183 277.305 183H277.017Z" fill="#F65E52" fill-opacity="0.7"/>
</g>
</g>
<g id="color-on_15">
<g id="color-on_16" filter="url(#filter22_df)">
<path d="M277.017 183C272.793 183 269.049 181.848 265.785 179.544C262.521 177.24 259.977 174.12 258.153 170.184C256.329 166.152 255.417 161.544 255.417 156.36V77.736C255.417 75.624 256.089 73.896 257.433 72.552C258.777 71.208 260.505 70.536 262.617 70.536C264.729 70.536 266.457 71.208 267.801 72.552C269.145 73.896 269.817 75.624 269.817 77.736V156.36C269.817 159.912 270.489 162.84 271.833 165.144C273.177 167.448 274.905 168.6 277.017 168.6H280.617C282.537 168.6 284.073 169.272 285.225 170.616C286.473 171.96 287.097 173.688 287.097 175.8C287.097 177.912 286.185 179.64 284.361 180.984C282.537 182.328 280.185 183 277.305 183H277.017Z" fill="#F65E52" fill-opacity="0.7"/>
</g>
</g>
<g id="white-on_7">
<g id="white-on_8" filter="url(#filter23_f)">
<path d="M274.137 183C268.665 183 264.153 180.792 260.601 176.376C257.145 171.96 255.417 166.248 255.417 159.24V74.856C255.417 73.512 255.801 72.456 256.569 71.688C257.433 70.92 258.489 70.536 259.737 70.536C261.081 70.536 262.137 70.92 262.905 71.688C263.673 72.456 264.057 73.512 264.057 74.856V159.24C264.057 163.656 264.969 167.304 266.793 170.184C268.713 172.968 271.161 174.36 274.137 174.36H277.737C280.137 174.36 281.337 175.8 281.337 178.68C281.337 179.928 280.953 180.984 280.185 181.848C279.417 182.616 278.361 183 277.017 183H274.137Z" fill="white" fill-opacity="0.85"/>
</g>
</g>
</g>
</g>
<g id="c">
<g id="OFF_5">
<g id="color-off_9">
<g id="color-off_10" filter="url(#filter24_f)">
<path d="M323.808 183.864C316.32 183.864 309.6 182.088 303.648 178.536C297.792 174.984 293.136 170.184 289.68 164.136C286.32 158.088 284.64 151.272 284.64 143.688C284.64 136.008 286.224 129.144 289.392 123.096C292.56 117.048 296.928 112.296 302.496 108.84C308.064 105.288 314.448 103.512 321.648 103.512C327.792 103.512 333.408 104.712 338.496 107.112C343.584 109.416 348 112.968 351.744 117.768C352.512 118.728 352.8 119.736 352.608 120.792C352.416 121.848 351.792 122.712 350.736 123.384C349.872 124.056 348.912 124.344 347.856 124.248C346.8 124.056 345.888 123.48 345.12 122.52C338.976 115.224 331.152 111.576 321.648 111.576C315.984 111.576 310.992 112.968 306.672 115.752C302.448 118.536 299.136 122.328 296.736 127.128C294.432 131.928 293.28 137.448 293.28 143.688C293.28 149.736 294.576 155.208 297.168 160.104C299.76 164.904 303.312 168.744 307.824 171.624C312.432 174.408 317.76 175.8 323.808 175.8C327.744 175.8 331.44 175.224 334.896 174.072C338.448 172.92 341.52 171.144 344.112 168.744C344.976 167.976 345.936 167.544 346.992 167.448C348.048 167.352 348.96 167.688 349.728 168.456C350.688 169.32 351.168 170.328 351.168 171.48C351.264 172.536 350.88 173.448 350.016 174.216C343.008 180.648 334.272 183.864 323.808 183.864Z" fill="#F65E52" fill-opacity="0.63"/>
</g>
</g>
<g id="white-off_17">
<g id="white-off_18" filter="url(#filter25_f)">
<path d="M323.808 183.864C316.32 183.864 309.6 182.088 303.648 178.536C297.792 174.984 293.136 170.184 289.68 164.136C286.32 158.088 284.64 151.272 284.64 143.688C284.64 136.008 286.224 129.144 289.392 123.096C292.56 117.048 296.928 112.296 302.496 108.84C308.064 105.288 314.448 103.512 321.648 103.512C327.792 103.512 333.408 104.712 338.496 107.112C343.584 109.416 348 112.968 351.744 117.768C352.512 118.728 352.8 119.736 352.608 120.792C352.416 121.848 351.792 122.712 350.736 123.384C349.872 124.056 348.912 124.344 347.856 124.248C346.8 124.056 345.888 123.48 345.12 122.52C338.976 115.224 331.152 111.576 321.648 111.576C315.984 111.576 310.992 112.968 306.672 115.752C302.448 118.536 299.136 122.328 296.736 127.128C294.432 131.928 293.28 137.448 293.28 143.688C293.28 149.736 294.576 155.208 297.168 160.104C299.76 164.904 303.312 168.744 307.824 171.624C312.432 174.408 317.76 175.8 323.808 175.8C327.744 175.8 331.44 175.224 334.896 174.072C338.448 172.92 341.52 171.144 344.112 168.744C344.976 167.976 345.936 167.544 346.992 167.448C348.048 167.352 348.96 167.688 349.728 168.456C350.688 169.32 351.168 170.328 351.168 171.48C351.264 172.536 350.88 173.448 350.016 174.216C343.008 180.648 334.272 183.864 323.808 183.864Z" fill="#C2C2C2"/>
</g>
</g>
<g id="white-off_19">
<g id="white-off_20" filter="url(#filter26_if)">
<path d="M323.808 183.864C316.32 183.864 309.6 182.088 303.648 178.536C297.792 174.984 293.136 170.184 289.68 164.136C286.32 158.088 284.64 151.272 284.64 143.688C284.64 136.008 286.224 129.144 289.392 123.096C292.56 117.048 296.928 112.296 302.496 108.84C308.064 105.288 314.448 103.512 321.648 103.512C327.792 103.512 333.408 104.712 338.496 107.112C343.584 109.416 348 112.968 351.744 117.768C352.512 118.728 352.8 119.736 352.608 120.792C352.416 121.848 351.792 122.712 350.736 123.384C349.872 124.056 348.912 124.344 347.856 124.248C346.8 124.056 345.888 123.48 345.12 122.52C338.976 115.224 331.152 111.576 321.648 111.576C315.984 111.576 310.992 112.968 306.672 115.752C302.448 118.536 299.136 122.328 296.736 127.128C294.432 131.928 293.28 137.448 293.28 143.688C293.28 149.736 294.576 155.208 297.168 160.104C299.76 164.904 303.312 168.744 307.824 171.624C312.432 174.408 317.76 175.8 323.808 175.8C327.744 175.8 331.44 175.224 334.896 174.072C338.448 172.92 341.52 171.144 344.112 168.744C344.976 167.976 345.936 167.544 346.992 167.448C348.048 167.352 348.96 167.688 349.728 168.456C350.688 169.32 351.168 170.328 351.168 171.48C351.264 172.536 350.88 173.448 350.016 174.216C343.008 180.648 334.272 183.864 323.808 183.864Z" fill="white" fill-opacity="0.5"/>
</g>
</g>
</g>
<g id="ON_5">
<g id="color-on_17">
<g id="color-on_18" filter="url(#filter27_df)">
<path d="M324.672 183.576C316.992 183.576 310.128 181.848 304.08 178.392C298.128 174.84 293.424 170.088 289.968 164.136C286.608 158.088 284.928 151.272 284.928 143.688C284.928 135.912 286.608 129 289.968 122.952C293.328 116.904 297.936 112.2 303.792 108.84C309.648 105.384 316.368 103.656 323.952 103.656C335.28 103.656 344.688 107.976 352.176 116.616C353.52 118.152 354 119.736 353.616 121.368C353.232 123 352.176 124.44 350.448 125.688C349.104 126.648 347.616 126.984 345.984 126.696C344.352 126.312 342.864 125.448 341.52 124.104C336.816 119.112 330.96 116.616 323.952 116.616C316.56 116.616 310.56 119.112 305.952 124.104C301.344 129 299.04 135.528 299.04 143.688C299.04 148.872 300.096 153.48 302.208 157.512C304.416 161.544 307.44 164.76 311.28 167.16C315.12 169.464 319.584 170.616 324.672 170.616C331.2 170.616 336.48 168.936 340.512 165.576C342.048 164.328 343.632 163.656 345.264 163.56C346.896 163.368 348.336 163.8 349.584 164.856C351.216 166.2 352.128 167.736 352.32 169.464C352.512 171.096 351.936 172.584 350.592 173.928C343.68 180.36 335.04 183.576 324.672 183.576Z" fill="#F65E52" fill-opacity="0.7"/>
</g>
</g>
<g id="color-on_19">
<g id="color-on_20" filter="url(#filter28_df)">
<path d="M324.672 183.576C316.992 183.576 310.128 181.848 304.08 178.392C298.128 174.84 293.424 170.088 289.968 164.136C286.608 158.088 284.928 151.272 284.928 143.688C284.928 135.912 286.608 129 289.968 122.952C293.328 116.904 297.936 112.2 303.792 108.84C309.648 105.384 316.368 103.656 323.952 103.656C335.28 103.656 344.688 107.976 352.176 116.616C353.52 118.152 354 119.736 353.616 121.368C353.232 123 352.176 124.44 350.448 125.688C349.104 126.648 347.616 126.984 345.984 126.696C344.352 126.312 342.864 125.448 341.52 124.104C336.816 119.112 330.96 116.616 323.952 116.616C316.56 116.616 310.56 119.112 305.952 124.104C301.344 129 299.04 135.528 299.04 143.688C299.04 148.872 300.096 153.48 302.208 157.512C304.416 161.544 307.44 164.76 311.28 167.16C315.12 169.464 319.584 170.616 324.672 170.616C331.2 170.616 336.48 168.936 340.512 165.576C342.048 164.328 343.632 163.656 345.264 163.56C346.896 163.368 348.336 163.8 349.584 164.856C351.216 166.2 352.128 167.736 352.32 169.464C352.512 171.096 351.936 172.584 350.592 173.928C343.68 180.36 335.04 183.576 324.672 183.576Z" fill="#F65E52" fill-opacity="0.7"/>
</g>
</g>
<g id="white-on_9">
<g id="white-on_10" filter="url(#filter29_f)">
<path d="M323.808 183.864C316.32 183.864 309.6 182.088 303.648 178.536C297.792 174.984 293.136 170.184 289.68 164.136C286.32 158.088 284.64 151.272 284.64 143.688C284.64 136.008 286.224 129.144 289.392 123.096C292.56 117.048 296.928 112.296 302.496 108.84C308.064 105.288 314.448 103.512 321.648 103.512C327.792 103.512 333.408 104.712 338.496 107.112C343.584 109.416 348 112.968 351.744 117.768C352.512 118.728 352.8 119.736 352.608 120.792C352.416 121.848 351.792 122.712 350.736 123.384C349.872 124.056 348.912 124.344 347.856 124.248C346.8 124.056 345.888 123.48 345.12 122.52C338.976 115.224 331.152 111.576 321.648 111.576C315.984 111.576 310.992 112.968 306.672 115.752C302.448 118.536 299.136 122.328 296.736 127.128C294.432 131.928 293.28 137.448 293.28 143.688C293.28 149.736 294.576 155.208 297.168 160.104C299.76 164.904 303.312 168.744 307.824 171.624C312.432 174.408 317.76 175.8 323.808 175.8C327.744 175.8 331.44 175.224 334.896 174.072C338.448 172.92 341.52 171.144 344.112 168.744C344.976 167.976 345.936 167.544 346.992 167.448C348.048 167.352 348.96 167.688 349.728 168.456C350.688 169.32 351.168 170.328 351.168 171.48C351.264 172.536 350.88 173.448 350.016 174.216C343.008 180.648 334.272 183.864 323.808 183.864Z" fill="white" fill-opacity="0.85"/>
</g>
</g>
</g>
</g>
<g id="o">
<g id="OFF_6">
<g id="color-off_11">
<g id="color-off_12" filter="url(#filter30_f)">
<path d="M396.96 183.864C389.28 183.864 382.368 182.136 376.224 178.68C370.176 175.128 365.376 170.328 361.824 164.28C358.368 158.136 356.64 151.272 356.64 143.688C356.64 136.008 358.368 129.144 361.824 123.096C365.376 116.952 370.176 112.152 376.224 108.696C382.368 105.144 389.28 103.368 396.96 103.368C404.64 103.368 411.504 105.144 417.552 108.696C423.6 112.152 428.352 116.952 431.808 123.096C435.36 129.144 437.136 136.008 437.136 143.688C437.136 151.272 435.36 158.136 431.808 164.28C428.352 170.328 423.6 175.128 417.552 178.68C411.504 182.136 404.64 183.864 396.96 183.864ZM396.96 175.8C403.008 175.8 408.384 174.408 413.088 171.624C417.888 168.744 421.632 164.904 424.32 160.104C427.104 155.208 428.496 149.736 428.496 143.688C428.496 137.544 427.104 132.072 424.32 127.272C421.632 122.376 417.888 118.536 413.088 115.752C408.384 112.872 403.008 111.432 396.96 111.432C391.008 111.432 385.632 112.872 380.832 115.752C376.032 118.536 372.24 122.376 369.456 127.272C366.672 132.072 365.28 137.544 365.28 143.688C365.28 149.736 366.672 155.208 369.456 160.104C372.24 164.904 376.032 168.744 380.832 171.624C385.632 174.408 391.008 175.8 396.96 175.8Z" fill="#F65E52" fill-opacity="0.63"/>
</g>
</g>
<g id="white-off_21">
<g id="white-off_22" filter="url(#filter31_f)">
<path d="M396.96 183.864C389.28 183.864 382.368 182.136 376.224 178.68C370.176 175.128 365.376 170.328 361.824 164.28C358.368 158.136 356.64 151.272 356.64 143.688C356.64 136.008 358.368 129.144 361.824 123.096C365.376 116.952 370.176 112.152 376.224 108.696C382.368 105.144 389.28 103.368 396.96 103.368C404.64 103.368 411.504 105.144 417.552 108.696C423.6 112.152 428.352 116.952 431.808 123.096C435.36 129.144 437.136 136.008 437.136 143.688C437.136 151.272 435.36 158.136 431.808 164.28C428.352 170.328 423.6 175.128 417.552 178.68C411.504 182.136 404.64 183.864 396.96 183.864ZM396.96 175.8C403.008 175.8 408.384 174.408 413.088 171.624C417.888 168.744 421.632 164.904 424.32 160.104C427.104 155.208 428.496 149.736 428.496 143.688C428.496 137.544 427.104 132.072 424.32 127.272C421.632 122.376 417.888 118.536 413.088 115.752C408.384 112.872 403.008 111.432 396.96 111.432C391.008 111.432 385.632 112.872 380.832 115.752C376.032 118.536 372.24 122.376 369.456 127.272C366.672 132.072 365.28 137.544 365.28 143.688C365.28 149.736 366.672 155.208 369.456 160.104C372.24 164.904 376.032 168.744 380.832 171.624C385.632 174.408 391.008 175.8 396.96 175.8Z" fill="#C2C2C2"/>
</g>
</g>
<g id="white-off_23">
<g id="white-off_24" filter="url(#filter32_if)">
<path d="M396.96 183.864C389.28 183.864 382.368 182.136 376.224 178.68C370.176 175.128 365.376 170.328 361.824 164.28C358.368 158.136 356.64 151.272 356.64 143.688C356.64 136.008 358.368 129.144 361.824 123.096C365.376 116.952 370.176 112.152 376.224 108.696C382.368 105.144 389.28 103.368 396.96 103.368C404.64 103.368 411.504 105.144 417.552 108.696C423.6 112.152 428.352 116.952 431.808 123.096C435.36 129.144 437.136 136.008 437.136 143.688C437.136 151.272 435.36 158.136 431.808 164.28C428.352 170.328 423.6 175.128 417.552 178.68C411.504 182.136 404.64 183.864 396.96 183.864ZM396.96 175.8C403.008 175.8 408.384 174.408 413.088 171.624C417.888 168.744 421.632 164.904 424.32 160.104C427.104 155.208 428.496 149.736 428.496 143.688C428.496 137.544 427.104 132.072 424.32 127.272C421.632 122.376 417.888 118.536 413.088 115.752C408.384 112.872 403.008 111.432 396.96 111.432C391.008 111.432 385.632 112.872 380.832 115.752C376.032 118.536 372.24 122.376 369.456 127.272C366.672 132.072 365.28 137.544 365.28 143.688C365.28 149.736 366.672 155.208 369.456 160.104C372.24 164.904 376.032 168.744 380.832 171.624C385.632 174.408 391.008 175.8 396.96 175.8Z" fill="white" fill-opacity="0.5"/>
</g>
</g>
</g>
<g id="ON_6">
<g id="color-on_21">
<g id="color-on_22" filter="url(#filter33_df)">
<path d="M396.672 183.576C388.896 183.576 382.032 181.896 376.08 178.536C370.128 175.08 365.424 170.376 361.968 164.424C358.608 158.376 356.928 151.464 356.928 143.688C356.928 135.816 358.608 128.904 361.968 122.952C365.424 116.904 370.128 112.2 376.08 108.84C382.032 105.384 388.896 103.656 396.672 103.656C404.352 103.656 411.168 105.384 417.12 108.84C423.072 112.2 427.728 116.904 431.088 122.952C434.544 128.904 436.272 135.816 436.272 143.688C436.272 151.464 434.592 158.376 431.232 164.424C427.872 170.376 423.216 175.08 417.264 178.536C411.312 181.896 404.448 183.576 396.672 183.576ZM396.672 170.616C401.664 170.616 406.08 169.464 409.92 167.16C413.76 164.856 416.736 161.688 418.848 157.656C421.056 153.624 422.16 148.968 422.16 143.688C422.16 138.408 421.056 133.752 418.848 129.72C416.736 125.592 413.76 122.376 409.92 120.072C406.08 117.768 401.664 116.616 396.672 116.616C391.68 116.616 387.264 117.768 383.424 120.072C379.584 122.376 376.56 125.592 374.352 129.72C372.144 133.752 371.04 138.408 371.04 143.688C371.04 148.968 372.144 153.624 374.352 157.656C376.56 161.688 379.584 164.856 383.424 167.16C387.264 169.464 391.68 170.616 396.672 170.616Z" fill="#F65E52" fill-opacity="0.7"/>
</g>
</g>
<g id="color-on_23">
<g id="color-on_24" filter="url(#filter34_df)">
<path d="M396.672 183.576C388.896 183.576 382.032 181.896 376.08 178.536C370.128 175.08 365.424 170.376 361.968 164.424C358.608 158.376 356.928 151.464 356.928 143.688C356.928 135.816 358.608 128.904 361.968 122.952C365.424 116.904 370.128 112.2 376.08 108.84C382.032 105.384 388.896 103.656 396.672 103.656C404.352 103.656 411.168 105.384 417.12 108.84C423.072 112.2 427.728 116.904 431.088 122.952C434.544 128.904 436.272 135.816 436.272 143.688C436.272 151.464 434.592 158.376 431.232 164.424C427.872 170.376 423.216 175.08 417.264 178.536C411.312 181.896 404.448 183.576 396.672 183.576ZM396.672 170.616C401.664 170.616 406.08 169.464 409.92 167.16C413.76 164.856 416.736 161.688 418.848 157.656C421.056 153.624 422.16 148.968 422.16 143.688C422.16 138.408 421.056 133.752 418.848 129.72C416.736 125.592 413.76 122.376 409.92 120.072C406.08 117.768 401.664 116.616 396.672 116.616C391.68 116.616 387.264 117.768 383.424 120.072C379.584 122.376 376.56 125.592 374.352 129.72C372.144 133.752 371.04 138.408 371.04 143.688C371.04 148.968 372.144 153.624 374.352 157.656C376.56 161.688 379.584 164.856 383.424 167.16C387.264 169.464 391.68 170.616 396.672 170.616Z" fill="#F65E52" fill-opacity="0.7"/>
</g>
</g>
<g id="white-on_11">
<g id="white-on_12" filter="url(#filter35_f)">
<path d="M396.96 183.864C389.28 183.864 382.368 182.136 376.224 178.68C370.176 175.128 365.376 170.328 361.824 164.28C358.368 158.136 356.64 151.272 356.64 143.688C356.64 136.008 358.368 129.144 361.824 123.096C365.376 116.952 370.176 112.152 376.224 108.696C382.368 105.144 389.28 103.368 396.96 103.368C404.64 103.368 411.504 105.144 417.552 108.696C423.6 112.152 428.352 116.952 431.808 123.096C435.36 129.144 437.136 136.008 437.136 143.688C437.136 151.272 435.36 158.136 431.808 164.28C428.352 170.328 423.6 175.128 417.552 178.68C411.504 182.136 404.64 183.864 396.96 183.864ZM396.96 175.8C403.008 175.8 408.384 174.408 413.088 171.624C417.888 168.744 421.632 164.904 424.32 160.104C427.104 155.208 428.496 149.736 428.496 143.688C428.496 137.544 427.104 132.072 424.32 127.272C421.632 122.376 417.888 118.536 413.088 115.752C408.384 112.872 403.008 111.432 396.96 111.432C391.008 111.432 385.632 112.872 380.832 115.752C376.032 118.536 372.24 122.376 369.456 127.272C366.672 132.072 365.28 137.544 365.28 143.688C365.28 149.736 366.672 155.208 369.456 160.104C372.24 164.904 376.032 168.744 380.832 171.624C385.632 174.408 391.008 175.8 396.96 175.8Z" fill="white" fill-opacity="0.85"/>
</g>
</g>
</g>
</g>
<g id="m">
<g id="OFF_7">
<g id="color-off_13">
<g id="color-off_14" filter="url(#filter36_f)">
<path d="M450.849 183C449.601 183 448.545 182.616 447.681 181.848C446.913 180.984 446.529 179.928 446.529 178.68V108.552C446.529 107.208 446.913 106.152 447.681 105.384C448.545 104.616 449.601 104.232 450.849 104.232C452.193 104.232 453.249 104.616 454.017 105.384C454.785 106.152 455.169 107.208 455.169 108.552V114.168C457.857 110.712 461.121 108.024 464.961 106.104C468.897 104.184 473.169 103.224 477.777 103.224C483.441 103.224 488.481 104.616 492.897 107.4C497.313 110.088 500.769 113.832 503.265 118.632C505.857 113.832 509.457 110.088 514.065 107.4C518.673 104.616 523.857 103.224 529.617 103.224C535.473 103.224 540.609 104.664 545.025 107.544C549.441 110.424 552.897 114.408 555.393 119.496C557.985 124.584 559.281 130.44 559.281 137.064V178.68C559.281 179.928 558.897 180.984 558.129 181.848C557.361 182.616 556.305 183 554.961 183C553.713 183 552.657 182.616 551.793 181.848C551.025 180.984 550.641 179.928 550.641 178.68V137.064C550.641 129.672 548.673 123.624 544.737 118.92C540.897 114.216 535.857 111.864 529.617 111.864C522.993 111.864 517.569 114.072 513.345 118.488C509.217 122.808 507.249 128.664 507.441 136.056C507.441 136.344 507.441 136.68 507.441 137.064V178.68C507.441 179.928 507.057 180.984 506.289 181.848C505.521 182.616 504.465 183 503.121 183C501.873 183 500.817 182.616 499.953 181.848C499.185 180.984 498.801 179.928 498.801 178.68V137.064C498.801 129.672 496.833 123.624 492.897 118.92C489.057 114.216 484.017 111.864 477.777 111.864C471.153 111.864 465.729 113.976 461.505 118.2C457.281 122.424 455.169 127.896 455.169 134.616V178.68C455.169 179.928 454.785 180.984 454.017 181.848C453.249 182.616 452.193 183 450.849 183Z" fill="#F65E52" fill-opacity="0.63"/>
</g>
</g>
<g id="white-off_25">
<g id="white-off_26" filter="url(#filter37_f)">
<path d="M448.28 183C447.032 183 445.976 182.616 445.112 181.848C444.344 180.984 443.96 179.928 443.96 178.68V108.552C443.96 107.208 444.344 106.152 445.112 105.384C445.976 104.616 447.032 104.232 448.28 104.232C449.624 104.232 450.68 104.616 451.448 105.384C452.216 106.152 452.6 107.208 452.6 108.552V114.168C455.288 110.712 458.552 108.024 462.392 106.104C466.328 104.184 470.6 103.224 475.208 103.224C480.872 103.224 485.912 104.616 490.328 107.4C494.744 110.088 498.2 113.832 500.696 118.632C503.288 113.832 506.888 110.088 511.496 107.4C516.104 104.616 521.288 103.224 527.048 103.224C532.904 103.224 538.04 104.664 542.456 107.544C546.872 110.424 550.328 114.408 552.824 119.496C555.416 124.584 556.712 130.44 556.712 137.064V178.68C556.712 179.928 556.328 180.984 555.56 181.848C554.792 182.616 553.736 183 552.392 183C551.144 183 550.088 182.616 549.224 181.848C548.456 180.984 548.072 179.928 548.072 178.68V137.064C548.072 129.672 546.104 123.624 542.168 118.92C538.328 114.216 533.288 111.864 527.048 111.864C520.424 111.864 515 114.072 510.776 118.488C506.648 122.808 504.68 128.664 504.872 136.056C504.872 136.344 504.872 136.68 504.872 137.064V178.68C504.872 179.928 504.488 180.984 503.72 181.848C502.952 182.616 501.896 183 500.552 183C499.304 183 498.248 182.616 497.384 181.848C496.616 180.984 496.232 179.928 496.232 178.68V137.064C496.232 129.672 494.264 123.624 490.328 118.92C486.488 114.216 481.448 111.864 475.208 111.864C468.584 111.864 463.16 113.976 458.936 118.2C454.712 122.424 452.6 127.896 452.6 134.616V178.68C452.6 179.928 452.216 180.984 451.448 181.848C450.68 182.616 449.624 183 448.28 183Z" fill="#C2C2C2"/>
</g>
</g>
<g id="white-off_27">
<g id="white-off_28" filter="url(#filter38_if)">
<path d="M448.28 183C447.032 183 445.976 182.616 445.112 181.848C444.344 180.984 443.96 179.928 443.96 178.68V108.552C443.96 107.208 444.344 106.152 445.112 105.384C445.976 104.616 447.032 104.232 448.28 104.232C449.624 104.232 450.68 104.616 451.448 105.384C452.216 106.152 452.6 107.208 452.6 108.552V114.168C455.288 110.712 458.552 108.024 462.392 106.104C466.328 104.184 470.6 103.224 475.208 103.224C480.872 103.224 485.912 104.616 490.328 107.4C494.744 110.088 498.2 113.832 500.696 118.632C503.288 113.832 506.888 110.088 511.496 107.4C516.104 104.616 521.288 103.224 527.048 103.224C532.904 103.224 538.04 104.664 542.456 107.544C546.872 110.424 550.328 114.408 552.824 119.496C555.416 124.584 556.712 130.44 556.712 137.064V178.68C556.712 179.928 556.328 180.984 555.56 181.848C554.792 182.616 553.736 183 552.392 183C551.144 183 550.088 182.616 549.224 181.848C548.456 180.984 548.072 179.928 548.072 178.68V137.064C548.072 129.672 546.104 123.624 542.168 118.92C538.328 114.216 533.288 111.864 527.048 111.864C520.424 111.864 515 114.072 510.776 118.488C506.648 122.808 504.68 128.664 504.872 136.056C504.872 136.344 504.872 136.68 504.872 137.064V178.68C504.872 179.928 504.488 180.984 503.72 181.848C502.952 182.616 501.896 183 500.552 183C499.304 183 498.248 182.616 497.384 181.848C496.616 180.984 496.232 179.928 496.232 178.68V137.064C496.232 129.672 494.264 123.624 490.328 118.92C486.488 114.216 481.448 111.864 475.208 111.864C468.584 111.864 463.16 113.976 458.936 118.2C454.712 122.424 452.6 127.896 452.6 134.616V178.68C452.6 179.928 452.216 180.984 451.448 181.848C450.68 182.616 449.624 183 448.28 183Z" fill="white" fill-opacity="0.5"/>
</g>
</g>
</g>
<g id="ON_7">
<g id="color-on_25">
<g id="color-on_26" filter="url(#filter39_df)">
<path d="M451.304 183.144C449.192 183.144 447.416 182.472 445.976 181.128C444.632 179.688 443.96 177.912 443.96 175.8V111.72C443.96 109.512 444.632 107.736 445.976 106.392C447.416 105.048 449.192 104.376 451.304 104.376C453.512 104.376 455.288 105.048 456.632 106.392C457.976 107.736 458.648 109.416 458.648 111.432C461.144 108.936 464.12 107.016 467.576 105.672C471.032 104.232 474.776 103.512 478.808 103.512C488.888 103.512 496.472 107.304 501.56 114.888C504.344 111.336 507.896 108.552 512.216 106.536C516.536 104.52 521.384 103.512 526.76 103.512C535.016 103.512 541.736 106.2 546.92 111.576C552.104 116.952 554.696 124.632 554.696 134.616V175.8C554.696 177.912 554.024 179.688 552.68 181.128C551.336 182.472 549.56 183.144 547.352 183.144C545.24 183.144 543.464 182.472 542.024 181.128C540.68 179.688 540.008 177.912 540.008 175.8V134.616C540.008 128.568 538.52 124.104 535.544 121.224C532.568 118.248 528.68 116.76 523.88 116.76C518.888 116.76 514.76 118.488 511.496 121.944C508.328 125.4 506.744 129.816 506.744 135.192V175.8C506.744 177.912 506.072 179.688 504.728 181.128C503.384 182.472 501.608 183.144 499.4 183.144C497.288 183.144 495.512 182.472 494.072 181.128C492.728 179.688 492.056 177.912 492.056 175.8V134.616C492.056 128.568 490.568 124.104 487.592 121.224C484.616 118.248 480.728 116.76 475.928 116.76C470.936 116.76 466.808 118.488 463.544 121.944C460.28 125.4 458.648 129.816 458.648 135.192V175.8C458.648 177.912 457.976 179.688 456.632 181.128C455.288 182.472 453.512 183.144 451.304 183.144Z" fill="#F65E52" fill-opacity="0.7"/>
</g>
</g>
<g id="color-on_27">
<g id="color-on_28" filter="url(#filter40_df)">
<path d="M451.304 183.144C449.192 183.144 447.416 182.472 445.976 181.128C444.632 179.688 443.96 177.912 443.96 175.8V111.72C443.96 109.512 444.632 107.736 445.976 106.392C447.416 105.048 449.192 104.376 451.304 104.376C453.512 104.376 455.288 105.048 456.632 106.392C457.976 107.736 458.648 109.416 458.648 111.432C461.144 108.936 464.12 107.016 467.576 105.672C471.032 104.232 474.776 103.512 478.808 103.512C488.888 103.512 496.472 107.304 501.56 114.888C504.344 111.336 507.896 108.552 512.216 106.536C516.536 104.52 521.384 103.512 526.76 103.512C535.016 103.512 541.736 106.2 546.92 111.576C552.104 116.952 554.696 124.632 554.696 134.616V175.8C554.696 177.912 554.024 179.688 552.68 181.128C551.336 182.472 549.56 183.144 547.352 183.144C545.24 183.144 543.464 182.472 542.024 181.128C540.68 179.688 540.008 177.912 540.008 175.8V134.616C540.008 128.568 538.52 124.104 535.544 121.224C532.568 118.248 528.68 116.76 523.88 116.76C518.888 116.76 514.76 118.488 511.496 121.944C508.328 125.4 506.744 129.816 506.744 135.192V175.8C506.744 177.912 506.072 179.688 504.728 181.128C503.384 182.472 501.608 183.144 499.4 183.144C497.288 183.144 495.512 182.472 494.072 181.128C492.728 179.688 492.056 177.912 492.056 175.8V134.616C492.056 128.568 490.568 124.104 487.592 121.224C484.616 118.248 480.728 116.76 475.928 116.76C470.936 116.76 466.808 118.488 463.544 121.944C460.28 125.4 458.648 129.816 458.648 135.192V175.8C458.648 177.912 457.976 179.688 456.632 181.128C455.288 182.472 453.512 183.144 451.304 183.144Z" fill="#F65E52" fill-opacity="0.7"/>
</g>
</g>
<g id="white-on_13">
<g id="white-on_14" filter="url(#filter41_f)">
<path d="M450.849 183C449.601 183 448.545 182.616 447.681 181.848C446.913 180.984 446.529 179.928 446.529 178.68V108.552C446.529 107.208 446.913 106.152 447.681 105.384C448.545 104.616 449.601 104.232 450.849 104.232C452.193 104.232 453.249 104.616 454.017 105.384C454.785 106.152 455.169 107.208 455.169 108.552V114.168C457.857 110.712 461.121 108.024 464.961 106.104C468.897 104.184 473.169 103.224 477.777 103.224C483.441 103.224 488.481 104.616 492.897 107.4C497.313 110.088 500.769 113.832 503.265 118.632C505.857 113.832 509.457 110.088 514.065 107.4C518.673 104.616 523.857 103.224 529.617 103.224C535.473 103.224 540.609 104.664 545.025 107.544C549.441 110.424 552.897 114.408 555.393 119.496C557.985 124.584 559.281 130.44 559.281 137.064V178.68C559.281 179.928 558.897 180.984 558.129 181.848C557.361 182.616 556.305 183 554.961 183C553.713 183 552.657 182.616 551.793 181.848C551.025 180.984 550.641 179.928 550.641 178.68V137.064C550.641 129.672 548.673 123.624 544.737 118.92C540.897 114.216 535.857 111.864 529.617 111.864C522.993 111.864 517.569 114.072 513.345 118.488C509.217 122.808 507.249 128.664 507.441 136.056C507.441 136.344 507.441 136.68 507.441 137.064V178.68C507.441 179.928 507.057 180.984 506.289 181.848C505.521 182.616 504.465 183 503.121 183C501.873 183 500.817 182.616 499.953 181.848C499.185 180.984 498.801 179.928 498.801 178.68V137.064C498.801 129.672 496.833 123.624 492.897 118.92C489.057 114.216 484.017 111.864 477.777 111.864C471.153 111.864 465.729 113.976 461.505 118.2C457.281 122.424 455.169 127.896 455.169 134.616V178.68C455.169 179.928 454.785 180.984 454.017 181.848C453.249 182.616 452.193 183 450.849 183Z" fill="white" fill-opacity="0.85"/>
</g>
</g>
</g>
</g>
</g>
<defs>
<filter id="filter0_f" x="167.64" y="98.512" width="83.296" height="90.208" filterUnits="userSpaceOnUse" color-interpolation-filters="sRGB">
<feFlood flood-opacity="0" result="BackgroundImageFix"/>
<feBlend mode="normal" in="SourceGraphic" in2="BackgroundImageFix" result="shape"/>
<feGaussianBlur stdDeviation="2.5" result="effect1_foregroundBlur"/>
</filter>
<filter id="filter1_f" x="171.14" y="102.012" width="76.296" height="83.208" filterUnits="userSpaceOnUse" color-interpolation-filters="sRGB">
<feFlood flood-opacity="0" result="BackgroundImageFix"/>
<feBlend mode="normal" in="SourceGraphic" in2="BackgroundImageFix" result="shape"/>
<feGaussianBlur stdDeviation="0.75" result="effect1_foregroundBlur"/>
</filter>
<filter id="filter2_if" x="162.64" y="93.512" width="93.296" height="100.208" filterUnits="userSpaceOnUse" color-interpolation-filters="sRGB">
<feFlood flood-opacity="0" result="BackgroundImageFix"/>
<feBlend mode="normal" in="SourceGraphic" in2="BackgroundImageFix" result="shape"/>
<feColorMatrix in="SourceAlpha" type="matrix" values="0 0 0 0 0 0 0 0 0 0 0 0 0 0 0 0 0 0 127 0" result="hardAlpha"/>
<feOffset dy="4"/>
<feGaussianBlur stdDeviation="2"/>
<feComposite in2="hardAlpha" operator="arithmetic" k2="-1" k3="1"/>
<feColorMatrix type="matrix" values="0 0 0 0 1 0 0 0 0 1 0 0 0 0 1 0 0 0 0.25 0"/>
<feBlend mode="normal" in2="shape" result="effect1_innerShadow"/>
<feGaussianBlur stdDeviation="5" result="effect2_foregroundBlur"/>
</filter>
<filter id="filter3_df" x="102.928" y="33.656" width="214.736" height="219.92" filterUnits="userSpaceOnUse" color-interpolation-filters="sRGB">
<feFlood flood-opacity="0" result="BackgroundImageFix"/>
<feColorMatrix in="SourceAlpha" type="matrix" values="0 0 0 0 0 0 0 0 0 0 0 0 0 0 0 0 0 0 127 0"/>
<feOffset/>
<feGaussianBlur stdDeviation="5"/>
<feColorMatrix type="matrix" values="0 0 0 0 0.24714 0 0 0 0 0.232883 0 0 0 0 0.945721 0 0 0 1 0"/>
<feBlend mode="normal" in2="BackgroundImageFix" result="effect1_dropShadow"/>
<feBlend mode="normal" in="SourceGraphic" in2="effect1_dropShadow" result="shape"/>
<feGaussianBlur stdDeviation="35" result="effect2_foregroundBlur"/>
</filter>
<filter id="filter4_df" x="162.928" y="93.656" width="94.736" height="99.92" filterUnits="userSpaceOnUse" color-interpolation-filters="sRGB">
<feFlood flood-opacity="0" result="BackgroundImageFix"/>
<feColorMatrix in="SourceAlpha" type="matrix" values="0 0 0 0 0 0 0 0 0 0 0 0 0 0 0 0 0 0 127 0"/>
<feOffset/>
<feGaussianBlur stdDeviation="5"/>
<feColorMatrix type="matrix" values="0 0 0 0 0.24714 0 0 0 0 0.232883 0 0 0 0 0.945721 0 0 0 1 0"/>
<feBlend mode="normal" in2="BackgroundImageFix" result="effect1_dropShadow"/>
<feBlend mode="normal" in="SourceGraphic" in2="effect1_dropShadow" result="shape"/>
<feGaussianBlur stdDeviation="5" result="effect2_foregroundBlur"/>
</filter>
<filter id="filter5_f" x="170.64" y="101.512" width="77.296" height="84.208" filterUnits="userSpaceOnUse" color-interpolation-filters="sRGB">
<feFlood flood-opacity="0" result="BackgroundImageFix"/>
<feBlend mode="normal" in="SourceGraphic" in2="BackgroundImageFix" result="shape"/>
<feGaussianBlur stdDeviation="1" result="effect1_foregroundBlur"/>
</filter>
<filter id="filter6_f" x="562.64" y="98.512" width="83.296" height="90.208" filterUnits="userSpaceOnUse" color-interpolation-filters="sRGB">
<feFlood flood-opacity="0" result="BackgroundImageFix"/>
<feBlend mode="normal" in="SourceGraphic" in2="BackgroundImageFix" result="shape"/>
<feGaussianBlur stdDeviation="2.5" result="effect1_foregroundBlur"/>
</filter>
<filter id="filter7_f" x="566.14" y="102.012" width="76.296" height="83.208" filterUnits="userSpaceOnUse" color-interpolation-filters="sRGB">
<feFlood flood-opacity="0" result="BackgroundImageFix"/>
<feBlend mode="normal" in="SourceGraphic" in2="BackgroundImageFix" result="shape"/>
<feGaussianBlur stdDeviation="0.75" result="effect1_foregroundBlur"/>
</filter>
<filter id="filter8_if" x="557.64" y="93.512" width="93.296" height="100.208" filterUnits="userSpaceOnUse" color-interpolation-filters="sRGB">
<feFlood flood-opacity="0" result="BackgroundImageFix"/>
<feBlend mode="normal" in="SourceGraphic" in2="BackgroundImageFix" result="shape"/>
<feColorMatrix in="SourceAlpha" type="matrix" values="0 0 0 0 0 0 0 0 0 0 0 0 0 0 0 0 0 0 127 0" result="hardAlpha"/>
<feOffset dy="4"/>
<feGaussianBlur stdDeviation="2"/>
<feComposite in2="hardAlpha" operator="arithmetic" k2="-1" k3="1"/>
<feColorMatrix type="matrix" values="0 0 0 0 1 0 0 0 0 1 0 0 0 0 1 0 0 0 0.25 0"/>
<feBlend mode="normal" in2="shape" result="effect1_innerShadow"/>
<feGaussianBlur stdDeviation="5" result="effect2_foregroundBlur"/>
</filter>
<filter id="filter9_df" x="497.928" y="33.656" width="214.736" height="219.92" filterUnits="userSpaceOnUse" color-interpolation-filters="sRGB">
<feFlood flood-opacity="0" result="BackgroundImageFix"/>
<feColorMatrix in="SourceAlpha" type="matrix" values="0 0 0 0 0 0 0 0 0 0 0 0 0 0 0 0 0 0 127 0"/>
<feOffset/>
<feGaussianBlur stdDeviation="5"/>
<feColorMatrix type="matrix" values="0 0 0 0 0.24714 0 0 0 0 0.232883 0 0 0 0 0.945721 0 0 0 1 0"/>
<feBlend mode="normal" in2="BackgroundImageFix" result="effect1_dropShadow"/>
<feBlend mode="normal" in="SourceGraphic" in2="effect1_dropShadow" result="shape"/>
<feGaussianBlur stdDeviation="35" result="effect2_foregroundBlur"/>
</filter>
<filter id="filter10_df" x="557.928" y="93.656" width="94.736" height="99.92" filterUnits="userSpaceOnUse" color-interpolation-filters="sRGB">
<feFlood flood-opacity="0" result="BackgroundImageFix"/>
<feColorMatrix in="SourceAlpha" type="matrix" values="0 0 0 0 0 0 0 0 0 0 0 0 0 0 0 0 0 0 127 0"/>
<feOffset/>
<feGaussianBlur stdDeviation="5"/>
<feColorMatrix type="matrix" values="0 0 0 0 0.24714 0 0 0 0 0.232883 0 0 0 0 0.945721 0 0 0 1 0"/>
<feBlend mode="normal" in2="BackgroundImageFix" result="effect1_dropShadow"/>
<feBlend mode="normal" in="SourceGraphic" in2="effect1_dropShadow" result="shape"/>
<feGaussianBlur stdDeviation="5" result="effect2_foregroundBlur"/>
</filter>
<filter id="filter11_f" x="565.64" y="101.512" width="77.296" height="84.208" filterUnits="userSpaceOnUse" color-interpolation-filters="sRGB">
<feFlood flood-opacity="0" result="BackgroundImageFix"/>
<feBlend mode="normal" in="SourceGraphic" in2="BackgroundImageFix" result="shape"/>
<feGaussianBlur stdDeviation="1" result="effect1_foregroundBlur"/>
</filter>
<filter id="filter12_f" x="65.8835" y="99.232" width="112.164" height="88.768" filterUnits="userSpaceOnUse" color-interpolation-filters="sRGB">
<feFlood flood-opacity="0" result="BackgroundImageFix"/>
<feBlend mode="normal" in="SourceGraphic" in2="BackgroundImageFix" result="shape"/>
<feGaussianBlur stdDeviation="2.5" result="effect1_foregroundBlur"/>
</filter>
<filter id="filter13_f" x="69.3835" y="102.732" width="105.164" height="81.768" filterUnits="userSpaceOnUse" color-interpolation-filters="sRGB">
<feFlood flood-opacity="0" result="BackgroundImageFix"/>
<feBlend mode="normal" in="SourceGraphic" in2="BackgroundImageFix" result="shape"/>
<feGaussianBlur stdDeviation="0.75" result="effect1_foregroundBlur"/>
</filter>
<filter id="filter14_if" x="60.8835" y="94.232" width="122.164" height="98.768" filterUnits="userSpaceOnUse" color-interpolation-filters="sRGB">
<feFlood flood-opacity="0" result="BackgroundImageFix"/>
<feBlend mode="normal" in="SourceGraphic" in2="BackgroundImageFix" result="shape"/>
<feColorMatrix in="SourceAlpha" type="matrix" values="0 0 0 0 0 0 0 0 0 0 0 0 0 0 0 0 0 0 127 0" result="hardAlpha"/>
<feOffset dy="4"/>
<feGaussianBlur stdDeviation="2"/>
<feComposite in2="hardAlpha" operator="arithmetic" k2="-1" k3="1"/>
<feColorMatrix type="matrix" values="0 0 0 0 1 0 0 0 0 1 0 0 0 0 1 0 0 0 0.25 0"/>
<feBlend mode="normal" in2="shape" result="effect1_innerShadow"/>
<feGaussianBlur stdDeviation="5" result="effect2_foregroundBlur"/>
</filter>
<filter id="filter15_df" x="0.303955" y="34.232" width="240.478" height="218.768" filterUnits="userSpaceOnUse" color-interpolation-filters="sRGB">
<feFlood flood-opacity="0" result="BackgroundImageFix"/>
<feColorMatrix in="SourceAlpha" type="matrix" values="0 0 0 0 0 0 0 0 0 0 0 0 0 0 0 0 0 0 127 0"/>
<feOffset/>
<feGaussianBlur stdDeviation="5"/>
<feColorMatrix type="matrix" values="0 0 0 0 0.24714 0 0 0 0 0.232883 0 0 0 0 0.945721 0 0 0 1 0"/>
<feBlend mode="normal" in2="BackgroundImageFix" result="effect1_dropShadow"/>
<feBlend mode="normal" in="SourceGraphic" in2="effect1_dropShadow" result="shape"/>
<feGaussianBlur stdDeviation="35" result="effect2_foregroundBlur"/>
</filter>
<filter id="filter16_df" x="60.304" y="94.232" width="120.478" height="98.768" filterUnits="userSpaceOnUse" color-interpolation-filters="sRGB">
<feFlood flood-opacity="0" result="BackgroundImageFix"/>
<feColorMatrix in="SourceAlpha" type="matrix" values="0 0 0 0 0 0 0 0 0 0 0 0 0 0 0 0 0 0 127 0"/>
<feOffset/>
<feGaussianBlur stdDeviation="5"/>
<feColorMatrix type="matrix" values="0 0 0 0 0.24714 0 0 0 0 0.232883 0 0 0 0 0.945721 0 0 0 1 0"/>
<feBlend mode="normal" in2="BackgroundImageFix" result="effect1_dropShadow"/>
<feBlend mode="normal" in="SourceGraphic" in2="effect1_dropShadow" result="shape"/>
<feGaussianBlur stdDeviation="5" result="effect2_foregroundBlur"/>
</filter>
<filter id="filter17_f" x="68.8835" y="102.232" width="106.164" height="82.768" filterUnits="userSpaceOnUse" color-interpolation-filters="sRGB">
<feFlood flood-opacity="0" result="BackgroundImageFix"/>
<feBlend mode="normal" in="SourceGraphic" in2="BackgroundImageFix" result="shape"/>
<feGaussianBlur stdDeviation="1" result="effect1_foregroundBlur"/>
</filter>
<filter id="filter18_f" x="250.08" y="65.536" width="35.92" height="122.464" filterUnits="userSpaceOnUse" color-interpolation-filters="sRGB">
<feFlood flood-opacity="0" result="BackgroundImageFix"/>
<feBlend mode="normal" in="SourceGraphic" in2="BackgroundImageFix" result="shape"/>
<feGaussianBlur stdDeviation="2.5" result="effect1_foregroundBlur"/>
</filter>
<filter id="filter19_f" x="253.58" y="69.036" width="28.92" height="115.464" filterUnits="userSpaceOnUse" color-interpolation-filters="sRGB">
<feFlood flood-opacity="0" result="BackgroundImageFix"/>
<feBlend mode="normal" in="SourceGraphic" in2="BackgroundImageFix" result="shape"/>
<feGaussianBlur stdDeviation="0.75" result="effect1_foregroundBlur"/>
</filter>
<filter id="filter20_if" x="245.08" y="60.536" width="45.92" height="132.464" filterUnits="userSpaceOnUse" color-interpolation-filters="sRGB">
<feFlood flood-opacity="0" result="BackgroundImageFix"/>
<feBlend mode="normal" in="SourceGraphic" in2="BackgroundImageFix" result="shape"/>
<feColorMatrix in="SourceAlpha" type="matrix" values="0 0 0 0 0 0 0 0 0 0 0 0 0 0 0 0 0 0 127 0" result="hardAlpha"/>
<feOffset dy="4"/>
<feGaussianBlur stdDeviation="2"/>
<feComposite in2="hardAlpha" operator="arithmetic" k2="-1" k3="1"/>
<feColorMatrix type="matrix" values="0 0 0 0 1 0 0 0 0 1 0 0 0 0 1 0 0 0 0.25 0"/>
<feBlend mode="normal" in2="shape" result="effect1_innerShadow"/>
<feGaussianBlur stdDeviation="5" result="effect2_foregroundBlur"/>
</filter>
<filter id="filter21_df" x="185.417" y="0.535995" width="171.68" height="252.464" filterUnits="userSpaceOnUse" color-interpolation-filters="sRGB">
<feFlood flood-opacity="0" result="BackgroundImageFix"/>
<feColorMatrix in="SourceAlpha" type="matrix" values="0 0 0 0 0 0 0 0 0 0 0 0 0 0 0 0 0 0 127 0"/>
<feOffset/>
<feGaussianBlur stdDeviation="5"/>
<feColorMatrix type="matrix" values="0 0 0 0 0.24714 0 0 0 0 0.232883 0 0 0 0 0.945721 0 0 0 1 0"/>
<feBlend mode="normal" in2="BackgroundImageFix" result="effect1_dropShadow"/>
<feBlend mode="normal" in="SourceGraphic" in2="effect1_dropShadow" result="shape"/>
<feGaussianBlur stdDeviation="35" result="effect2_foregroundBlur"/>
</filter>
<filter id="filter22_df" x="245.417" y="60.536" width="51.68" height="132.464" filterUnits="userSpaceOnUse" color-interpolation-filters="sRGB">
<feFlood flood-opacity="0" result="BackgroundImageFix"/>
<feColorMatrix in="SourceAlpha" type="matrix" values="0 0 0 0 0 0 0 0 0 0 0 0 0 0 0 0 0 0 127 0"/>
<feOffset/>
<feGaussianBlur stdDeviation="5"/>
<feColorMatrix type="matrix" values="0 0 0 0 0.24714 0 0 0 0 0.232883 0 0 0 0 0.945721 0 0 0 1 0"/>
<feBlend mode="normal" in2="BackgroundImageFix" result="effect1_dropShadow"/>
<feBlend mode="normal" in="SourceGraphic" in2="effect1_dropShadow" result="shape"/>
<feGaussianBlur stdDeviation="5" result="effect2_foregroundBlur"/>
</filter>
<filter id="filter23_f" x="253.417" y="68.536" width="29.92" height="116.464" filterUnits="userSpaceOnUse" color-interpolation-filters="sRGB">
<feFlood flood-opacity="0" result="BackgroundImageFix"/>
<feBlend mode="normal" in="SourceGraphic" in2="BackgroundImageFix" result="shape"/>
<feGaussianBlur stdDeviation="1" result="effect1_foregroundBlur"/>
</filter>
<filter id="filter24_f" x="279.64" y="98.512" width="78.0256" height="90.352" filterUnits="userSpaceOnUse" color-interpolation-filters="sRGB">
<feFlood flood-opacity="0" result="BackgroundImageFix"/>
<feBlend mode="normal" in="SourceGraphic" in2="BackgroundImageFix" result="shape"/>
<feGaussianBlur stdDeviation="2.5" result="effect1_foregroundBlur"/>
</filter>
<filter id="filter25_f" x="283.14" y="102.012" width="71.0256" height="83.352" filterUnits="userSpaceOnUse" color-interpolation-filters="sRGB">
<feFlood flood-opacity="0" result="BackgroundImageFix"/>
<feBlend mode="normal" in="SourceGraphic" in2="BackgroundImageFix" result="shape"/>
<feGaussianBlur stdDeviation="0.75" result="effect1_foregroundBlur"/>
</filter>
<filter id="filter26_if" x="274.64" y="93.512" width="88.0256" height="100.352" filterUnits="userSpaceOnUse" color-interpolation-filters="sRGB">
<feFlood flood-opacity="0" result="BackgroundImageFix"/>
<feBlend mode="normal" in="SourceGraphic" in2="BackgroundImageFix" result="shape"/>
<feColorMatrix in="SourceAlpha" type="matrix" values="0 0 0 0 0 0 0 0 0 0 0 0 0 0 0 0 0 0 127 0" result="hardAlpha"/>
<feOffset dy="4"/>
<feGaussianBlur stdDeviation="2"/>
<feComposite in2="hardAlpha" operator="arithmetic" k2="-1" k3="1"/>
<feColorMatrix type="matrix" values="0 0 0 0 1 0 0 0 0 1 0 0 0 0 1 0 0 0 0.25 0"/>
<feBlend mode="normal" in2="shape" result="effect1_innerShadow"/>
<feGaussianBlur stdDeviation="5" result="effect2_foregroundBlur"/>
</filter>
<filter id="filter27_df" x="214.928" y="33.656" width="208.816" height="219.92" filterUnits="userSpaceOnUse" color-interpolation-filters="sRGB">
<feFlood flood-opacity="0" result="BackgroundImageFix"/>
<feColorMatrix in="SourceAlpha" type="matrix" values="0 0 0 0 0 0 0 0 0 0 0 0 0 0 0 0 0 0 127 0"/>
<feOffset/>
<feGaussianBlur stdDeviation="5"/>
<feColorMatrix type="matrix" values="0 0 0 0 0.24714 0 0 0 0 0.232883 0 0 0 0 0.945721 0 0 0 1 0"/>
<feBlend mode="normal" in2="BackgroundImageFix" result="effect1_dropShadow"/>
<feBlend mode="normal" in="SourceGraphic" in2="effect1_dropShadow" result="shape"/>
<feGaussianBlur stdDeviation="35" result="effect2_foregroundBlur"/>
</filter>
<filter id="filter28_df" x="274.928" y="93.656" width="88.816" height="99.92" filterUnits="userSpaceOnUse" color-interpolation-filters="sRGB">
<feFlood flood-opacity="0" result="BackgroundImageFix"/>
<feColorMatrix in="SourceAlpha" type="matrix" values="0 0 0 0 0 0 0 0 0 0 0 0 0 0 0 0 0 0 127 0"/>
<feOffset/>
<feGaussianBlur stdDeviation="5"/>
<feColorMatrix type="matrix" values="0 0 0 0 0.24714 0 0 0 0 0.232883 0 0 0 0 0.945721 0 0 0 1 0"/>
<feBlend mode="normal" in2="BackgroundImageFix" result="effect1_dropShadow"/>
<feBlend mode="normal" in="SourceGraphic" in2="effect1_dropShadow" result="shape"/>
<feGaussianBlur stdDeviation="5" result="effect2_foregroundBlur"/>
</filter>
<filter id="filter29_f" x="282.64" y="101.512" width="72.0256" height="84.352" filterUnits="userSpaceOnUse" color-interpolation-filters="sRGB">
<feFlood flood-opacity="0" result="BackgroundImageFix"/>
<feBlend mode="normal" in="SourceGraphic" in2="BackgroundImageFix" result="shape"/>
<feGaussianBlur stdDeviation="1" result="effect1_foregroundBlur"/>
</filter>
<filter id="filter30_f" x="351.64" y="98.368" width="90.496" height="90.496" filterUnits="userSpaceOnUse" color-interpolation-filters="sRGB">
<feFlood flood-opacity="0" result="BackgroundImageFix"/>
<feBlend mode="normal" in="SourceGraphic" in2="BackgroundImageFix" result="shape"/>
<feGaussianBlur stdDeviation="2.5" result="effect1_foregroundBlur"/>
</filter>
<filter id="filter31_f" x="355.14" y="101.868" width="83.496" height="83.496" filterUnits="userSpaceOnUse" color-interpolation-filters="sRGB">
<feFlood flood-opacity="0" result="BackgroundImageFix"/>
<feBlend mode="normal" in="SourceGraphic" in2="BackgroundImageFix" result="shape"/>
<feGaussianBlur stdDeviation="0.75" result="effect1_foregroundBlur"/>
</filter>
<filter id="filter32_if" x="346.64" y="93.368" width="100.496" height="100.496" filterUnits="userSpaceOnUse" color-interpolation-filters="sRGB">
<feFlood flood-opacity="0" result="BackgroundImageFix"/>
<feBlend mode="normal" in="SourceGraphic" in2="BackgroundImageFix" result="shape"/>
<feColorMatrix in="SourceAlpha" type="matrix" values="0 0 0 0 0 0 0 0 0 0 0 0 0 0 0 0 0 0 127 0" result="hardAlpha"/>
<feOffset dy="4"/>
<feGaussianBlur stdDeviation="2"/>
<feComposite in2="hardAlpha" operator="arithmetic" k2="-1" k3="1"/>
<feColorMatrix type="matrix" values="0 0 0 0 1 0 0 0 0 1 0 0 0 0 1 0 0 0 0.25 0"/>
<feBlend mode="normal" in2="shape" result="effect1_innerShadow"/>
<feGaussianBlur stdDeviation="5" result="effect2_foregroundBlur"/>
</filter>
<filter id="filter33_df" x="286.928" y="33.656" width="219.344" height="219.92" filterUnits="userSpaceOnUse" color-interpolation-filters="sRGB">
<feFlood flood-opacity="0" result="BackgroundImageFix"/>
<feColorMatrix in="SourceAlpha" type="matrix" values="0 0 0 0 0 0 0 0 0 0 0 0 0 0 0 0 0 0 127 0"/>
<feOffset/>
<feGaussianBlur stdDeviation="5"/>
<feColorMatrix type="matrix" values="0 0 0 0 0.24714 0 0 0 0 0.232883 0 0 0 0 0.945721 0 0 0 1 0"/>
<feBlend mode="normal" in2="BackgroundImageFix" result="effect1_dropShadow"/>
<feBlend mode="normal" in="SourceGraphic" in2="effect1_dropShadow" result="shape"/>
<feGaussianBlur stdDeviation="35" result="effect2_foregroundBlur"/>
</filter>
<filter id="filter34_df" x="346.928" y="93.656" width="99.344" height="99.92" filterUnits="userSpaceOnUse" color-interpolation-filters="sRGB">
<feFlood flood-opacity="0" result="BackgroundImageFix"/>
<feColorMatrix in="SourceAlpha" type="matrix" values="0 0 0 0 0 0 0 0 0 0 0 0 0 0 0 0 0 0 127 0"/>
<feOffset/>
<feGaussianBlur stdDeviation="5"/>
<feColorMatrix type="matrix" values="0 0 0 0 0.24714 0 0 0 0 0.232883 0 0 0 0 0.945721 0 0 0 1 0"/>
<feBlend mode="normal" in2="BackgroundImageFix" result="effect1_dropShadow"/>
<feBlend mode="normal" in="SourceGraphic" in2="effect1_dropShadow" result="shape"/>
<feGaussianBlur stdDeviation="5" result="effect2_foregroundBlur"/>
</filter>
<filter id="filter35_f" x="354.64" y="101.368" width="84.496" height="84.496" filterUnits="userSpaceOnUse" color-interpolation-filters="sRGB">
<feFlood flood-opacity="0" result="BackgroundImageFix"/>
<feBlend mode="normal" in="SourceGraphic" in2="BackgroundImageFix" result="shape"/>
<feGaussianBlur stdDeviation="1" result="effect1_foregroundBlur"/>
</filter>
<filter id="filter36_f" x="441.529" y="98.224" width="122.752" height="89.776" filterUnits="userSpaceOnUse" color-interpolation-filters="sRGB">
<feFlood flood-opacity="0" result="BackgroundImageFix"/>
<feBlend mode="normal" in="SourceGraphic" in2="BackgroundImageFix" result="shape"/>
<feGaussianBlur stdDeviation="2.5" result="effect1_foregroundBlur"/>
</filter>
<filter id="filter37_f" x="442.46" y="101.724" width="115.752" height="82.776" filterUnits="userSpaceOnUse" color-interpolation-filters="sRGB">
<feFlood flood-opacity="0" result="BackgroundImageFix"/>
<feBlend mode="normal" in="SourceGraphic" in2="BackgroundImageFix" result="shape"/>
<feGaussianBlur stdDeviation="0.75" result="effect1_foregroundBlur"/>
</filter>
<filter id="filter38_if" x="433.96" y="93.224" width="132.752" height="99.776" filterUnits="userSpaceOnUse" color-interpolation-filters="sRGB">
<feFlood flood-opacity="0" result="BackgroundImageFix"/>
<feBlend mode="normal" in="SourceGraphic" in2="BackgroundImageFix" result="shape"/>
<feColorMatrix in="SourceAlpha" type="matrix" values="0 0 0 0 0 0 0 0 0 0 0 0 0 0 0 0 0 0 127 0" result="hardAlpha"/>
<feOffset dy="4"/>
<feGaussianBlur stdDeviation="2"/>
<feComposite in2="hardAlpha" operator="arithmetic" k2="-1" k3="1"/>
<feColorMatrix type="matrix" values="0 0 0 0 1 0 0 0 0 1 0 0 0 0 1 0 0 0 0.25 0"/>
<feBlend mode="normal" in2="shape" result="effect1_innerShadow"/>
<feGaussianBlur stdDeviation="5" result="effect2_foregroundBlur"/>
</filter>
<filter id="filter39_df" x="373.96" y="33.512" width="250.736" height="219.632" filterUnits="userSpaceOnUse" color-interpolation-filters="sRGB">
<feFlood flood-opacity="0" result="BackgroundImageFix"/>
<feColorMatrix in="SourceAlpha" type="matrix" values="0 0 0 0 0 0 0 0 0 0 0 0 0 0 0 0 0 0 127 0"/>
<feOffset/>
<feGaussianBlur stdDeviation="5"/>
<feColorMatrix type="matrix" values="0 0 0 0 0.24714 0 0 0 0 0.232883 0 0 0 0 0.945721 0 0 0 1 0"/>
<feBlend mode="normal" in2="BackgroundImageFix" result="effect1_dropShadow"/>
<feBlend mode="normal" in="SourceGraphic" in2="effect1_dropShadow" result="shape"/>
<feGaussianBlur stdDeviation="35" result="effect2_foregroundBlur"/>
</filter>
<filter id="filter40_df" x="433.96" y="93.512" width="130.736" height="99.632" filterUnits="userSpaceOnUse" color-interpolation-filters="sRGB">
<feFlood flood-opacity="0" result="BackgroundImageFix"/>
<feColorMatrix in="SourceAlpha" type="matrix" values="0 0 0 0 0 0 0 0 0 0 0 0 0 0 0 0 0 0 127 0"/>
<feOffset/>
<feGaussianBlur stdDeviation="5"/>
<feColorMatrix type="matrix" values="0 0 0 0 0.24714 0 0 0 0 0.232883 0 0 0 0 0.945721 0 0 0 1 0"/>
<feBlend mode="normal" in2="BackgroundImageFix" result="effect1_dropShadow"/>
<feBlend mode="normal" in="SourceGraphic" in2="effect1_dropShadow" result="shape"/>
<feGaussianBlur stdDeviation="5" result="effect2_foregroundBlur"/>
</filter>
<filter id="filter41_f" x="444.529" y="101.224" width="116.752" height="83.776" filterUnits="userSpaceOnUse" color-interpolation-filters="sRGB">
<feFlood flood-opacity="0" result="BackgroundImageFix"/>
<feBlend mode="normal" in="SourceGraphic" in2="BackgroundImageFix" result="shape"/>
<feGaussianBlur stdDeviation="1" result="effect1_foregroundBlur"/>
</filter>
</defs>
</svg>
