<?xml version="1.0" standalone="no"?>
<!DOCTYPE svg PUBLIC "-//W3C//DTD SVG 1.1//EN" "http://www.w3.org/Graphics/SVG/1.1/DTD/svg11.dtd" >
<svg xmlns="http://www.w3.org/2000/svg" xmlns:xlink="http://www.w3.org/1999/xlink" version="1.1">
<metadata>
Created by FontForge 20170731 at Fri May  5 14:18:38 2017
 By Aleksey,,,
Copyright (c) 2009 by vernon adams. All rights reserved.
</metadata>
<defs>
<font id="CodaCaption-ExtraBold" horiz-adv-x="1520" >
  <font-face 
    font-family="Coda Caption ExtraBold"
    font-weight="800"
    font-variant="small-caps"
    font-stretch="normal"
    units-per-em="2048"
    panose-1="2 0 5 5 2 0 0 2 0 4"
    ascent="1638"
    descent="-410"
    x-height="1300"
    cap-height="1595"
    bbox="-298 -1021 3416 2655"
    underline-thickness="102"
    underline-position="-307"
    unicode-range="U+0020-FB02"
  />
<missing-glyph horiz-adv-x="0" 
 />
    <glyph glyph-name=".notdef" horiz-adv-x="0" 
 />
    <glyph glyph-name=".null" horiz-adv-x="0" 
 />
    <glyph glyph-name="nonmarkingreturn" horiz-adv-x="0" 
 />
    <glyph glyph-name="space" unicode=" " horiz-adv-x="639" 
 />
    <glyph glyph-name="exclam" unicode="!" horiz-adv-x="780" 
d="M553 492h-467v1112h515zM86 0v397h515v-397h-515z" />
    <glyph glyph-name="quotedbl" unicode="&#x22;" horiz-adv-x="1229" 
d="M408 798h-288l-85 806h458zM936 798h-288l-85 806h458z" />
    <glyph glyph-name="numbersign" unicode="#" horiz-adv-x="1804" 
d="M1393 300h-150l-38 -300h-490l39 299h-105l-38 -299h-490l39 299h-121l53 431h124l18 142h-134l53 432h138l38 291h488l-38 -291h106l38 291h488l-38 -291h134l-52 -431h-137l-19 -143h147zM705 730h104l19 142h-104z" />
    <glyph glyph-name="dollar" unicode="$" horiz-adv-x="1573" 
d="M623 1106q0 -16 29.5 -22.5t78 -12t110 -13.5t126 -26t126 -50t110 -85t78 -131t29.5 -188q0 -66 -3 -130.5t-14 -124t-34 -113t-63.5 -97.5t-101 -77t-147.5 -52v-232h-510v231q-86 16 -148.5 41.5t-105.5 57.5t-69.5 69t-40.5 75t-19 75t-5 70v162h574v-300h112v320
q0 15 -29.5 25.5t-77.5 22.5t-110 26.5t-126 37t-126 55t-110 80.5t-77.5 112.5t-29.5 151.5q0 131 17.5 227t61.5 162t119 105t190 57v228h510v-231q77 -15 130.5 -38.5t89.5 -53t56.5 -64t30.5 -70t12.5 -71t2.5 -68.5v-119h-534v236h-112v-258z" />
    <glyph glyph-name="percent" unicode="%" horiz-adv-x="2902" 
d="M540 1334h-82v-665h82v665zM497 454q-113 0 -190.5 14t-127.5 38t-77.5 55.5t-40 66t-14.5 70t-2 67.5v479q0 32 2 67t14.5 69.5t40 65.5t77.5 55t127.5 38t190.5 14t190.5 -14t127.5 -38t77.5 -55t40 -65.5t14.5 -69.5t2 -67v-479q0 -32 -2 -67.5t-14.5 -70t-40 -66
t-77.5 -55.5t-127.5 -38t-190.5 -14zM2023 955h-81v-665h81v665zM1979 75q-113 0 -190 14t-127 38t-77 55t-39.5 66t-14.5 70.5t-2 67.5v477q0 32 2 67.5t14.5 70t39.5 66t77 55.5t127 38t190 14t190.5 -14t128 -38t78 -55.5t40 -66t14.5 -70t2 -67.5v-477q0 -32 -2 -67.5
t-14.5 -70.5t-40 -66t-78 -55t-128 -38t-190.5 -14zM1639 1670l-339 -1710h-460l344 1710h455z" />
    <glyph glyph-name="ampersand" unicode="&#x26;" horiz-adv-x="1688" 
d="M784 1154v210h-186v-412h189v128h509v-128h137v-224h-137v-93q0 -132 -7.5 -233t-30 -175.5t-64 -125.5t-109.5 -81.5t-166 -44t-234 -13.5q-139 0 -239 13t-168.5 41t-110 73t-63.5 110t-29 150t-7 194q0 88 18 145.5t40.5 90.5t41.5 46.5t21 14.5q-2 1 -21 15t-41.5 48
t-40.5 90.5t-18 143.5q0 153 26.5 250t95.5 152t189 75.5t306 20.5q136 0 233.5 -8t165 -28.5t108.5 -55.5t63 -88.5t29.5 -127.5t7.5 -173h-508zM787 236v492h-189v-492h189z" />
    <glyph glyph-name="quotesingle" unicode="'" horiz-adv-x="606" 
d="M408 798h-288l-85 806h458z" />
    <glyph glyph-name="parenleft" unicode="(" horiz-adv-x="934" 
d="M57 803q0 265 24.5 451.5t72 312.5t116 199t157 110.5t196 48t231.5 10.5v-278q-52 0 -93.5 -4.5t-73 -28.5t-54 -76t-37 -147t-21 -240.5t-6.5 -357.5t6.5 -357.5t21 -240.5t37 -147t54 -76t73 -28.5t93.5 -4.5v-279q-124 0 -231.5 10.5t-196 48t-157 111t-116 199
t-72 312.5t-24.5 452z" />
    <glyph glyph-name="parenright" unicode=")" horiz-adv-x="934" 
d="M736 803q0 -265 -24.5 -452t-71.5 -312.5t-116 -199t-157.5 -111t-196 -48t-231.5 -10.5v279q52 0 93.5 4.5t73 28.5t54 76t37 147t21 240.5t6.5 357.5t-6.5 357.5t-21 240.5t-37 147t-54 76t-73 28.5t-93.5 4.5v278q124 0 231.5 -10.5t196 -48t157.5 -110.5t116 -199
t71.5 -312.5t24.5 -451.5z" />
    <glyph glyph-name="asterisk" unicode="*" horiz-adv-x="1343" 
d="M494 346l-352 132l178 313l-277 -58v431l277 -67l-198 250l342 254l112 -314l114 314l342 -254l-200 -250l278 67v-431l-278 58l179 -313l-351 -132l-84 301z" />
    <glyph glyph-name="plus" unicode="+" horiz-adv-x="1343" 
d="M354 891v407h446v-407h311v-483h-311v-408h-446v408h-311v483h311z" />
    <glyph glyph-name="comma" unicode="," horiz-adv-x="727" 
d="M98 -168q52 12 93 35q18 10 34.5 22.5t30 29t21.5 37t8 44.5h-211v487h492v-337q0 -152 -32 -251.5t-92 -158.5t-147 -83t-197 -24v199z" />
    <glyph glyph-name="hyphen" unicode="-" horiz-adv-x="1006" 
d="M812 897v-436h-753v436h753z" />
    <glyph glyph-name="period" unicode="." horiz-adv-x="686" 
d="M532 0h-458v467h458v-467z" />
    <glyph glyph-name="slash" unicode="/" horiz-adv-x="1110" 
d="M351 1595l-318 -1595h574l318 1595h-574z" />
    <glyph glyph-name="zero" unicode="0" horiz-adv-x="1495" 
d="M554 237h236v1121h-236v-1121zM676 -39q-147 0 -250 18t-172 48t-108.5 70t-59 83t-24.5 87.5t-5 84.5v890q0 40 5 84.5t24.5 88t59 83t108.5 69.5t172 48t250 18t249.5 -18t170.5 -48t106 -69.5t57 -83t23.5 -88t4.5 -84.5v-890q0 -40 -4.5 -84.5t-23.5 -87.5t-57 -83
t-106 -70t-170.5 -48t-249.5 -18z" />
    <glyph glyph-name="one" unicode="1" horiz-adv-x="989" 
d="M762 1595v-1595h-497v1200h-249v184q44 0 94.5 12.5t97.5 38.5t87 66t63 94h404z" />
    <glyph glyph-name="two" unicode="2" horiz-adv-x="1430" 
d="M64 1064q0 152 30 260t102 176.5t192.5 100t300.5 31.5q137 0 242.5 -28.5t177 -88.5t108.5 -152.5t37 -219.5q0 -84 -30 -158.5t-78.5 -140.5t-111 -124t-127.5 -109.5t-127.5 -95.5t-111 -82.5t-78.5 -71.5t-30 -61h634v-300h-1130v222q0 115 30 204t78.5 160t111 127
t127 105t127 94.5t111 95t78.5 107t30 129.5v114h-196v-294h-497z" />
    <glyph glyph-name="three" unicode="3" horiz-adv-x="1458" 
d="M54 1025q0 151 22 265.5t86 191t181 115t306 38.5q132 0 229 -18.5t165.5 -52.5t111 -81.5t67 -105t33 -123.5t8.5 -137q0 -58 -13.5 -102t-34.5 -77t-45.5 -55t-45.5 -36t-36 -20t-16 -7q1 -1 16 -7t36 -19t45.5 -35t45.5 -55t34.5 -77.5t13.5 -103.5q0 -73 -8.5 -143
t-33 -132.5t-67 -115t-111 -90.5t-165.5 -59t-229 -21q-189 0 -306 42.5t-181 125.5t-86 204.5t-22 280.5l497 -1v-377h215v471h-293v224h293v426h-215v-333h-497z" />
    <glyph glyph-name="four" unicode="4" horiz-adv-x="1479" 
d="M1234 0h-497v237h-694v420l267 938h493l-264 -938v-54h198v335h497v-938z" />
    <glyph glyph-name="five" unicode="5" horiz-adv-x="1438" 
d="M523 474v-237h236v601h-217l-20 -183h-496l153 940h998v-295h-571l-43 -302q17 30 55 55q32 20 89 37.5t149 17.5q104 0 179.5 -36t124.5 -106t72.5 -173.5t23.5 -239.5q0 -99 -8.5 -181.5t-33 -148t-67 -114.5t-111 -81.5t-165.5 -49t-229 -16.5q-195 0 -316 37.5
t-187.5 105t-89.5 161.5t-23 208h497z" />
    <glyph glyph-name="six" unicode="6" horiz-adv-x="1462" 
d="M549 237h236v561h-236v-561zM666 -38q-131 0 -227.5 17t-165 48.5t-111.5 77t-67.5 102.5t-33.5 124.5t-9 143.5v580q0 67 8 135.5t31 132.5t65 120.5t110.5 98.5t166.5 66t233 24q142 0 238.5 -23t158.5 -61t94.5 -87.5t47 -102t16 -105t1.5 -95.5h-438v200h-235v-290
h128q184 0 301.5 -30.5t185 -96t93 -169t25.5 -249.5q0 -89 -9 -165t-33.5 -138.5t-67.5 -110.5t-111.5 -80.5t-165.5 -49.5t-229 -17z" />
    <glyph glyph-name="seven" unicode="7" horiz-adv-x="1096" 
d="M711 1595v-244l-197 -1351h-497l191 1358h-192v237h695z" />
    <glyph glyph-name="eight" unicode="8" horiz-adv-x="1432" 
d="M637 1630q138 0 246.5 -25.5t184 -80t115 -139.5t39.5 -204q0 -54 -9.5 -96t-25 -74t-35 -55.5t-40.5 -39.5q-48 -38 -110 -51q70 -13 125 -60q23 -20 45.5 -49t40 -69.5t28.5 -94t11 -121.5q0 -74 -9 -141t-33 -124t-67 -102.5t-111.5 -78t-165.5 -49.5t-229 -17
t-229 17t-165.5 49.5t-111.5 78t-67 102.5t-33 123.5t-9 141.5q0 68 7 121.5t19 94t27 69.5t31 49q37 47 85 60q-42 13 -75 52q-14 16 -27.5 39.5t-24 56t-17 74t-6.5 94.5q0 119 41.5 204t118.5 139.5t187.5 80t248.5 25.5zM519 1358v-397h236v397h-236zM519 236h236v485
h-236v-485z" />
    <glyph glyph-name="nine" unicode="9" horiz-adv-x="1464" 
d="M762 1358h-236v-562h236v562zM646 1632q131 0 227.5 -17t164.5 -48.5t111 -77t67.5 -102.5t33.5 -124.5t9 -143.5v-580q0 -67 -8 -135.5t-31 -132.5t-65 -120.5t-110 -98.5t-166 -66t-233 -24q-147 0 -247 23t-164 61t-98 87.5t-48.5 102t-16.5 104.5t-2 96h456v-199h236
v289h-127q-184 0 -302 30.5t-185.5 96t-93 169t-25.5 249.5q0 89 9 165t33.5 138.5t67.5 110.5t111.5 80.5t166 49.5t229.5 17z" />
    <glyph glyph-name="colon" unicode=":" horiz-adv-x="741" 
d="M558 92h-458v467h458v-467zM558 1000h-458v497h458v-497z" />
    <glyph glyph-name="semicolon" unicode=";" horiz-adv-x="774" 
d="M579 1000h-458v497h458v-497zM137 -48q52 12 93 35q18 10 34.5 22.5t30 29t21.5 37t8 44.5h-211v487h492v-337q0 -152 -32 -251.5t-92 -158.5t-147 -83t-197 -24v199z" />
    <glyph glyph-name="less" unicode="&#x3c;" horiz-adv-x="1042" 
d="M43 1098l792 499v-505l-543 -295l543 -293v-504l-792 489v609z" />
    <glyph glyph-name="equal" unicode="=" horiz-adv-x="1026" 
d="M824 336v-336h-754v336h754zM824 897v-336h-754v336h754z" />
    <glyph glyph-name="greater" unicode="&#x3e;" horiz-adv-x="1042" 
d="M861 489l-793 -489v504l543 293l-543 295v505l793 -499v-609z" />
    <glyph glyph-name="question" unicode="?" horiz-adv-x="1436" 
d="M235 462q0 111 18.5 191.5t48.5 138.5t68 95.5t78 62t78 39t68 25.5t48 22.5t18 29.5l4 298h-100v-294h-525v177q0 40 3 84t19 87t50 81.5t96 68t156.5 47t232.5 17.5q131 0 226 -12t161.5 -39t107 -70.5t63 -106.5t30.5 -147.5t8 -192.5q0 -116 -30 -191t-75.5 -122
t-98 -71.5t-98 -39.5t-75.5 -26t-30 -31v-121h-550zM237 397h548v-397h-548v397z" />
    <glyph glyph-name="at" unicode="@" horiz-adv-x="2277" 
d="M1063 235q-27 -36 -61 -63q-29 -24 -71.5 -43.5t-96.5 -19.5q-77 0 -129 16.5t-86 44.5t-52.5 65.5t-27 79.5t-10 86.5t-1.5 87.5q0 33 1.5 71t10 76t27 73.5t52.5 62.5t86 43.5t129 16.5q81 0 129.5 -15t72.5 -33v234h-53v-135h-409q0 39 -0.5 81t8 82t32 76t71 63.5
t125 43.5t194.5 16q99 0 169 -14t117.5 -37.5t75.5 -56t42.5 -70t18.5 -77.5t4 -80q0 -22 -0.5 -42.5t-0.5 -40.5l-2 -499h82q0 130 -0.5 252t-0.5 250q0 125 -14 212t-41.5 145t-69 91t-96 49.5t-122.5 20.5t-149 4q-129 0 -222.5 -16.5t-159.5 -51t-107 -88t-64 -127
t-31 -168t-8 -211.5q0 -167 12.5 -284.5t43 -196.5t80 -124.5t124 -68.5t175.5 -29t233 -6q27 0 60 1.5t67.5 4.5t70 6.5t68.5 7.5q77 9 157 20l53 -255q-63 -45 -138 -80q-64 -30 -149.5 -55t-184.5 -25q-180 0 -328.5 16t-265.5 59t-203.5 119t-143.5 196.5t-85 290
t-28 400.5q0 206 26 364.5t79 275.5t133 196.5t188 127.5t244 69t302 21q176 0 310 -23.5t233 -70.5t165.5 -118.5t107 -167.5t57.5 -216.5t18 -266.5q0 -235 -33 -388t-98.5 -242t-164 -124.5t-229.5 -35.5q-94 0 -155 22.5t-97 50.5q-42 33 -66 74zM952 637v-305h84v305
h-84z" />
    <glyph glyph-name="A" unicode="A" horiz-adv-x="1606" 
d="M554 393l-41 -393h-515l256 1595h858l256 -1595h-517l-39 393h-258zM580 572h206l-104 789z" />
    <glyph glyph-name="B" unicode="B" horiz-adv-x="1618" 
d="M1326 460q0 -63 -2.5 -122t-18 -110t-49.5 -93t-96 -72t-158 -46.5t-236 -16.5h-670v1595h679q130 0 219 -17t146.5 -47t88.5 -70t45.5 -85t17 -93.5t2.5 -94.5q0 -65 -12 -111.5t-31 -79t-44 -53.5t-50 -35q-60 -33 -136 -39q88 -6 156 -43q30 -16 57 -40.5t47.5 -66.5
t32.5 -104.5t12 -155.5zM593 237h236v513h-236v-513zM593 981h236v377h-236v-377z" />
    <glyph glyph-name="C" unicode="C" horiz-adv-x="1628" 
d="M811 1358h-236v-1121h236v449h497v-315q0 -40 -4.5 -86t-24 -91.5t-58.5 -87.5t-107.5 -74t-171 -51.5t-249.5 -19.5q-146 0 -248 19.5t-170.5 51.5t-107.5 74t-59 87.5t-25 91.5t-5 86v856q0 40 5 85.5t24.5 90.5t59 86.5t107.5 73t169.5 50.5t246.5 19q148 0 251 -19
t172 -50.5t108 -73t58.5 -86.5t24 -90.5t4.5 -85.5v-318h-497v449z" />
    <glyph glyph-name="D" unicode="D" horiz-adv-x="1661" 
d="M593 237h236v1121h-236v-1121zM1326 393q0 -40 -2.5 -84.5t-18 -88.5t-49.5 -83.5t-96 -70t-157.5 -48.5t-235.5 -18h-671v1595h671q140 0 235.5 -18t157.5 -48t96 -69.5t49.5 -83t18 -88t2.5 -84.5v-811z" />
    <glyph glyph-name="E" unicode="E" horiz-adv-x="1198" 
d="M902 1595v-237h-309v-397h288v-250h-288v-474h309v-237h-806v1595h806z" />
    <glyph glyph-name="F" unicode="F" horiz-adv-x="1174" 
d="M902 1595v-237h-309v-404h288v-249h-288v-705h-497v1595h806z" />
    <glyph glyph-name="G" unicode="G" horiz-adv-x="1645" 
d="M1308 686v-686h-435l-48 104q-20 -40 -55 -71q-30 -26 -80.5 -48t-127.5 -22q-95 0 -167.5 18t-126.5 49t-90.5 71t-58.5 84t-31.5 88.5t-9.5 84.5v869q0 43 5.5 90t25 92t59 85.5t107 71t169 48.5t245.5 18q141 0 241.5 -19t169 -50.5t110 -73t63 -86.5t28.5 -90.5
t7 -85.5v-318h-497v449h-236v-1121h322v218h-144v231h555z" />
    <glyph glyph-name="H" unicode="H" horiz-adv-x="1677" 
d="M1376 1595v-1595h-497v688h-286v-688h-497v1595h497v-657h286v657h497z" />
    <glyph glyph-name="I" unicode="I" horiz-adv-x="870" 
d="M593 1595v-1595h-497v1595h497z" />
    <glyph glyph-name="J" unicode="J" horiz-adv-x="1612" 
d="M768 1595h497v-1224q0 -40 -6.5 -86t-27 -91.5t-60.5 -87.5t-106.5 -74t-164.5 -51.5t-236 -19.5q-154 0 -261 19.5t-177 51.5t-108.5 74t-57 87.5t-22 91.5t-3.5 86v232h497v-366h236v1358z" />
    <glyph glyph-name="K" unicode="K" horiz-adv-x="1872" 
d="M593 0h-497v1595h497v-561l320 561h600l-455 -761l473 -834h-601l-263 531l-74 -91v-440z" />
    <glyph glyph-name="L" unicode="L" horiz-adv-x="1161" 
d="M96 0v1595h497v-1358h308v-237h-805z" />
    <glyph glyph-name="M" unicode="M" horiz-adv-x="2056" 
d="M1008 0h-364l-205 916v-916h-380v1595h614l153 -973l153 973h614v-1595h-380v916z" />
    <glyph glyph-name="N" unicode="N" horiz-adv-x="1741" 
d="M893 0l-385 711v-711h-412v1595h454l408 -761v761h399v-1595h-464z" />
    <glyph glyph-name="O" unicode="O" horiz-adv-x="1640" 
d="M577 237h236v1121h-236v-1121zM688 -39q-145 0 -247 19.5t-169.5 51.5t-106 74t-57.5 87.5t-23.5 91.5t-4.5 86v856q0 40 4.5 85.5t23.5 90.5t57.5 86.5t106 73t169 50.5t247.5 19q147 0 250.5 -19t172.5 -50.5t109 -73t60 -86.5t25 -90.5t5 -85.5v-856q0 -40 -5 -86
t-25 -91.5t-60 -87.5t-109 -74t-172.5 -51.5t-250.5 -19.5z" />
    <glyph glyph-name="P" unicode="P" horiz-adv-x="1626" 
d="M96 1595h670q140 0 235.5 -18t158 -48t96 -69.5t49.5 -83t18.5 -88t2.5 -84.5v-381q0 -40 -2.5 -84.5t-18.5 -87.5t-49.5 -83t-96 -70t-158 -48t-235.5 -18h-173v-432h-497v1595zM593 650h236v708h-236v-708z" />
    <glyph glyph-name="Q" unicode="Q" horiz-adv-x="1642" 
d="M556 237h236v1121h-236v-1121zM667 -39q-145 0 -247 19.5t-169.5 51.5t-106 74t-57.5 87.5t-23.5 91.5t-4.5 86v856q0 40 4.5 85.5t23.5 90.5t57.5 86.5t106 73t169 50.5t247.5 19q147 0 250.5 -19t172.5 -50.5t109 -73t60 -86.5t25 -90.5t5 -85.5v-856q0 -40 -5 -86
t-25 -91.5t-60 -87.5t-109 -74t-172.5 -51.5t-250.5 -19.5z" />
    <glyph glyph-name="R" unicode="R" horiz-adv-x="1649" 
d="M829 649h-236v-649h-497v1595h649q145 0 244.5 -18.5t164 -51t99.5 -77.5t51 -99t19 -115t3 -124q0 -59 -7.5 -114.5t-30.5 -100.5t-65.5 -77t-111.5 -44q32 -3 69.5 -17.5t70 -47t54 -86.5t21.5 -136v-487h-497v649zM593 881h236v477h-236v-477z" />
    <glyph glyph-name="S" unicode="S" horiz-adv-x="1585" 
d="M577 1128q0 -32 31.5 -51t83 -33.5t117.5 -28.5t134.5 -35.5t134.5 -55t117.5 -87t83 -131.5t31.5 -188q0 -79 -4 -151t-22 -133.5t-56 -111.5t-106.5 -85.5t-172.5 -54.5t-254 -19q-133 0 -232.5 13.5t-170.5 41.5t-116.5 71.5t-72 102.5t-36.5 135t-10 169h520v-259
h236v296q0 29 -31.5 48t-83 34.5t-117.5 30.5t-134.5 36t-134.5 51t-117.5 74.5t-83 107t-31.5 149.5q0 108 11 192.5t38 147.5t73 106.5t115.5 70.5t165 39t222.5 12q182 0 299.5 -24t185.5 -80t94 -147t26 -223h-497v200h-236v-230z" />
    <glyph glyph-name="T" unicode="T" horiz-adv-x="1448" 
d="M1212 1595v-237h-346v-1358h-497v1358h-344v237h1187z" />
    <glyph glyph-name="U" unicode="U" horiz-adv-x="1671" 
d="M591 237h236v1358h497v-1224q0 -40 -5 -86t-25 -91.5t-60 -87.5t-109 -74t-172 -51.5t-250 -19.5q-145 0 -247 19.5t-169.5 51.5t-106 74t-58 87.5t-24 91.5t-4.5 86v1224h497v-1358z" />
    <glyph glyph-name="V" unicode="V" horiz-adv-x="1653" 
d="M551 1595l119 -1371l119 1371h567l-256 -1595h-858l-256 1595h565z" />
    <glyph glyph-name="W" unicode="W" horiz-adv-x="2376" 
d="M1958 1595l-262 -1595h-578l-139 718l-139 -718h-579l-261 1595h543l114 -929l108 929h429l106 -929l115 929h543z" />
    <glyph glyph-name="X" unicode="X" horiz-adv-x="1556" 
d="M496 1595l161 -433l165 433h517l-362 -813l362 -782h-550l-132 388l-128 -388h-549l359 782l-359 813h516z" />
    <glyph glyph-name="Y" unicode="Y" horiz-adv-x="1571" 
d="M476 1595l167 -607l173 607h482l-404 -1146v-449h-497v459l-415 1136h494z" />
    <glyph glyph-name="Z" unicode="Z" horiz-adv-x="1147" 
d="M960 1595l-314 -1301h304v-294h-927l346 1304h-336v291h927z" />
    <glyph glyph-name="bracketleft" unicode="[" horiz-adv-x="1104" 
d="M92 1819h881v-241h-307v-1655h307v-242h-881v2138z" />
    <glyph glyph-name="backslash" unicode="\" horiz-adv-x="1110" 
d="M603 1595l318 -1595h-574l-318 1595h574z" />
    <glyph glyph-name="bracketright" unicode="]" horiz-adv-x="1102" 
d="M854 -319h-881v242h309v1655h-309v241h881v-2138z" />
    <glyph glyph-name="asciicircum" unicode="^" horiz-adv-x="1706" 
d="M1084 676l256 -615h-435l-80 320l-76 -320h-434l246 615h523z" />
    <glyph glyph-name="underscore" unicode="_" horiz-adv-x="967" 
d="M814 1v-436h-804v436h804z" />
    <glyph glyph-name="grave" unicode="`" horiz-adv-x="1706" 
d="M593 809l687 -563l-70 -205l-825 225z" />
    <glyph glyph-name="a" unicode="a" horiz-adv-x="1481" 
d="M852 0l-45 167q-26 -51 -66 -89t-89 -63.5t-104.5 -38t-110.5 -12.5q-115 0 -192.5 34.5t-124 91t-66 129t-19.5 149.5q0 79 23.5 155.5t81 137t155 97.5t245.5 37q51 0 110 -3t118 -10v278h-236v-167l-394 1q-11 39 -18 77t-7 73q0 60 25.5 114.5t88 95.5t168 65
t266.5 24q145 0 246 -18t168 -48t105 -69.5t57 -83t23.5 -88t4.5 -84.5v-695q0 -48 6.5 -93t14.5 -82q10 -43 22 -82h-456zM532 602v-365h236v365h-236z" />
    <glyph glyph-name="b" unicode="b" horiz-adv-x="1505" 
d="M577 1710v-511q64 71 157.5 108t200.5 37q71 0 138.5 -23t120 -71t84.5 -121.5t32 -173.5v-578q0 -105 -32.5 -183t-86 -129.5t-122.5 -76.5t-141 -25q-60 0 -117 13t-108 38.5t-93.5 64t-72.5 88.5l-46 -167h-411v1710h497zM577 237h236v823h-236v-823z" />
    <glyph glyph-name="c" unicode="c" horiz-adv-x="1479" 
d="M1291 451v-97q0 -39 -3 -83.5t-20 -88t-54.5 -83t-106 -70t-174.5 -48.5t-260 -18q-150 0 -253.5 18t-171.5 48t-106 70t-56 83t-21.5 87.5t-3.5 84.5v600q0 40 3.5 84t21.5 87t56 82.5t106 69.5t171.5 48t253.5 18q146 0 248.5 -16t171 -44t108.5 -64t60 -77t25 -83
t5 -81v-123h-497v205h-236v-823h236v214h497z" />
    <glyph glyph-name="d" unicode="d" horiz-adv-x="1505" 
d="M1293 1710v-1710h-411l-46 167q-30 -50 -72.5 -88.5t-93.5 -64t-108 -38.5t-117 -13q-72 0 -141 25t-122.5 76.5t-86 129.5t-32.5 183v578q0 100 32 173.5t84.5 121.5t120 71t138.5 23q107 0 200.5 -37t157.5 -108v511h497zM796 1060h-236v-823h236v823z" />
    <glyph glyph-name="e" unicode="e" horiz-adv-x="1481" 
d="M1290 451q0 -71 -5 -134.5t-24.5 -118t-59 -97.5t-108 -73.5t-171 -47t-249.5 -16.5q-150 0 -253.5 18t-171.5 48t-106 69.5t-56 83t-21.5 87.5t-3.5 84v600q0 40 3.5 84t21.5 87t56 82.5t106 69.5t171.5 48t253.5 18q146 0 249 -18t171.5 -48t108 -69.5t59.5 -82.5
t25 -87.5t5 -83.5v-375h-733v-342h236v213zM558 757h236v303h-236v-303z" />
    <glyph glyph-name="f" unicode="f" horiz-adv-x="1186" 
d="M195 1300q0 118 33 200.5t92 134.5t140.5 75.5t178.5 23.5q76 0 158.5 -13.5t170.5 -37.5v-206h-276v-177h284v-202h-284v-1098h-497v1098h-187v202h187z" />
    <glyph glyph-name="g" unicode="g" horiz-adv-x="1505" 
d="M796 101q-31 -35 -71.5 -62t-87 -45.5t-97.5 -28t-102 -9.5q-71 0 -138.5 23t-120 71t-84.5 121.5t-32 173.5v578q0 105 32.5 183t86 129.5t122.5 76.5t141 25q58 0 115 -13t108.5 -38.5t94.5 -64t73 -88.5l46 167h411v-1242q0 -117 -25 -210.5t-68 -165.5t-101.5 -123
t-126.5 -83.5t-143 -47.5t-150 -15q-68 0 -133.5 12t-125 34.5t-109.5 54.5t-87 71.5t-57.5 85.5t-20.5 97q0 22 4 36t13 37l503 -12v-117h130v389zM796 1060h-236v-823h236v823z" />
    <glyph glyph-name="h" unicode="h" 
d="M80 0v1710h497v-522q23 37 60 66t83 48.5t99 30t109 10.5q70 0 138.5 -22t122.5 -67.5t87.5 -116.5t33.5 -169v-968h-497v1060h-236v-1060h-497z" />
    <glyph glyph-name="i" unicode="i" horiz-adv-x="780" 
d="M577 0h-497v1300h497v-1300zM577 1710v-237h-497v237h497z" />
    <glyph glyph-name="j" unicode="j" horiz-adv-x="780" 
d="M-24 1300h497v-1206q0 -99 -31.5 -177.5t-89 -134t-138 -85t-177.5 -29.5q-60 0 -124.5 11.5t-133.5 35.5v219h197v1366zM473 1710v-237h-497v237h497z" />
    <glyph glyph-name="k" unicode="k" horiz-adv-x="1612" 
d="M80 0v1710h497v-822l242 412h530l-317 -480l324 -820h-506l-171 485l-102 -137v-348h-497z" />
    <glyph glyph-name="l" unicode="l" horiz-adv-x="780" 
d="M577 0h-497v1710h497v-1710z" />
    <glyph glyph-name="m" unicode="m" horiz-adv-x="2249" 
d="M80 0v1300h391l46 -167q26 52 68 91.5t94 66t110.5 40t116.5 13.5q49 0 96.5 -11.5t89.5 -35t77 -58.5t59 -82q28 46 70.5 81t93.5 58.5t108 35.5t114 12q69 0 135.5 -23t118.5 -70t83.5 -117.5t31.5 -165.5v-968h-477v1060h-237q1 -5 1 -10.5v-10.5v-1039h-477v1060
h-236v-1060h-477z" />
    <glyph glyph-name="n" unicode="n" 
d="M80 0v1300h411l46 -167q26 52 68 91.5t94 66t111 40t120 13.5q71 0 139.5 -23t122 -69.5t86 -117.5t32.5 -166v-968h-497v1060h-236v-1060h-497z" />
    <glyph glyph-name="o" unicode="o" horiz-adv-x="1487" 
d="M558 237h236v823h-236v-823zM682 -39q-150 0 -254.5 18t-173.5 48t-107.5 70t-57.5 83t-23.5 87.5t-4.5 84.5v600q0 40 4.5 84.5t23.5 88t57.5 83t107.5 69.5t173.5 48t254.5 18q149 0 252.5 -18t171 -48t105 -69.5t55.5 -83t21.5 -88t3.5 -84.5v-600q0 -40 -3.5 -84.5
t-21.5 -87.5t-55.5 -83t-105 -70t-171 -48t-252.5 -18z" />
    <glyph glyph-name="p" unicode="p" horiz-adv-x="1503" 
d="M80 -408v1708h411l46 -167q30 50 73 88.5t94 64t108.5 38.5t115.5 13q72 0 141 -25t122.5 -76.5t86 -129.5t32.5 -183v-578q0 -100 -32 -173.5t-84.5 -121.5t-120 -71t-138.5 -23q-52 0 -102.5 9.5t-97 28t-87 45.5t-71.5 62v-509h-497zM577 236h236v824h-236v-824z" />
    <glyph glyph-name="q" unicode="q" horiz-adv-x="1481" 
d="M796 -408v509q-31 -35 -71.5 -62t-87 -45.5t-97 -28t-102.5 -9.5q-71 0 -138.5 23t-120 71t-84.5 121.5t-32 173.5v578q0 105 32.5 183t86 129.5t122.5 76.5t141 25q58 0 115.5 -13t108.5 -38.5t94 -64t73 -88.5l46 167h411v-1708h-497zM796 1060h-236v-823h236v823z" />
    <glyph glyph-name="r" unicode="r" horiz-adv-x="1014" 
d="M80 0v1300h401l56 -205q10 50 31 88t48.5 65.5t59.5 45.5t64 28.5t62 15t53 5.5v-394l-278 -80v-869h-497z" />
    <glyph glyph-name="s" unicode="s" horiz-adv-x="1425" 
d="M764 444q-8 9 -44 14t-89 11.5t-118 16.5t-132 29t-130 49t-112 76t-78.5 110t-29.5 152q0 64 10 121.5t35.5 106.5t70.5 88.5t115 67t168 42.5t231 15q133 -2 227 -15t157.5 -35t101 -54t57 -72t25 -88.5t5.5 -103.5v-86l-470 30v141h-236v-193q9 -9 45.5 -15
t89.5 -13.5t118 -18.5t131.5 -30t129 -48t111.5 -73t78.5 -105t29.5 -143q0 -113 -25.5 -198.5t-94.5 -143t-191 -86.5t-315 -29q-130 3 -223.5 16.5t-157.5 36.5t-102 55.5t-58 72.5t-26.5 88t-6.5 102v78l467 -35v-141h236v207z" />
    <glyph glyph-name="t" unicode="t" horiz-adv-x="954" 
d="M636 0h-497v1100h-123v200h123v295h497v-295h164v-200h-164v-1100z" />
    <glyph glyph-name="u" unicode="u" 
d="M1308 1300v-1300h-411l-46 167q-26 -52 -68 -91.5t-94 -66t-111 -40t-120 -13.5q-71 0 -139.5 23t-122 69.5t-86 117.5t-32.5 166v968h497v-1063h236v1063h497z" />
    <glyph glyph-name="v" unicode="v" horiz-adv-x="1434" 
d="M-8 1300h516l99 -880l101 880h517l-311 -1300h-610z" />
    <glyph glyph-name="w" unicode="w" horiz-adv-x="2181" 
d="M925 739l-80 -739h-633l-206 1300h495l77 -880l109 880h482l107 -880l78 880h496l-206 -1300h-637z" />
    <glyph glyph-name="x" unicode="x" horiz-adv-x="1364" 
d="M-18 0l337 652l-337 648h516l79 -251l78 251h517l-337 -648l337 -652h-513l-82 258l-82 -258h-513z" />
    <glyph glyph-name="y" unicode="y" 
d="M575 237h236v1063h497v-1242q0 -117 -24.5 -210.5t-68 -165.5t-102.5 -123t-127.5 -83.5t-144 -47.5t-150.5 -15q-68 0 -133.5 12t-125 34.5t-109.5 54.5t-87 71.5t-57.5 85.5t-20.5 97q0 22 4 45t13 46l503 -30v-64h134v336q-31 -35 -72 -62t-87.5 -45.5t-97.5 -28
t-102 -9.5q-71 0 -138.5 23t-120 71t-84.5 121.5t-32 173.5v955h497v-1063z" />
    <glyph glyph-name="z" unicode="z" horiz-adv-x="1122" 
d="M59 1300h860v-221l-322 -833h328v-246h-888v233l325 818h-303v249z" />
    <glyph glyph-name="braceleft" unicode="{" horiz-adv-x="1057" 
d="M694 1348q-13 -107 -19 -192t-16 -152.5t-29.5 -118.5t-60.5 -88q41 -37 60.5 -87.5t29.5 -118t16 -153t19 -191.5q14 -111 36 -171t54.5 -88.5t75 -33.5t98.5 -5v-279q-105 0 -198 7t-172.5 30.5t-145 69t-116.5 123t-87 192t-56 275.5q-9 72 -16.5 122t-16 82t-19 50
t-26.5 26t-38.5 9.5t-54.5 1.5v279q32 0 54.5 1.5t38.5 9.5t26.5 26t19 50t16 82t16.5 122q20 161 56 275.5t87 192t116.5 123t145 69t172.5 30.5t198 7v-279q-56 0 -98.5 -5t-75 -33.5t-54.5 -88.5t-36 -171z" />
    <glyph glyph-name="bar" unicode="|" horiz-adv-x="862" 
d="M666 1795v-1895h-574v1895h574z" />
    <glyph glyph-name="braceright" unicode="}" horiz-adv-x="1057" 
d="M196 1348q-14 111 -36 171t-54.5 88.5t-75.5 33.5t-98 5v279q104 0 196.5 -7t172 -30.5t145.5 -69t117.5 -123t87.5 -192t56 -275.5q9 -72 16 -122t15 -82t19 -50t27 -26t39 -9.5t55 -1.5v-279q-32 0 -55 -1.5t-39 -9.5t-27 -26t-19 -50t-15 -82t-16 -122
q-20 -161 -56 -275.5t-87.5 -192t-117.5 -123t-145.5 -69t-172 -30.5t-196.5 -7v279q55 0 98 5t75.5 33.5t54.5 88.5t36 171q13 106 19 191.5t16 153t29.5 118t60.5 87.5q-41 37 -60.5 88t-29.5 118.5t-16 152.5t-19 192z" />
    <glyph glyph-name="asciitilde" unicode="~" horiz-adv-x="1456" 
d="M835 806q-25 0 -46.5 -14t-46 -35t-53.5 -46t-68 -46t-90.5 -35t-120.5 -14q-89 0 -157.5 26t-115 94t-70.5 186.5t-24 304.5h268q0 -33 5 -63.5t17 -53.5t31 -37t48 -14q25 0 48.5 14.5t50 35.5t57 46.5t69 46.5t87.5 35.5t111 14.5q89 0 158 -25.5t115.5 -93.5
t70.5 -186.5t24 -304.5h-269q0 28 -5 57t-16.5 53t-30.5 39t-47 15z" />
    <glyph glyph-name="uni00A0" unicode="&#xa0;" horiz-adv-x="639" 
 />
    <glyph glyph-name="exclamdown" unicode="&#xa1;" horiz-adv-x="776" 
d="M553 1112h-467v-1112h515zM86 1604v-397h515v397h-515z" />
    <glyph glyph-name="cent" unicode="&#xa2;" horiz-adv-x="1430" 
d="M399 79q-88 13 -149 36.5t-100 54.5t-60.5 66.5t-31.5 73.5t-11.5 75.5t-1.5 71.5v565q0 33 1.5 70.5t11.5 74.5t31.5 73t60.5 66.5t99.5 54t149.5 36.5v312h429v-312q89 -13 150 -36.5t100.5 -54t60.5 -66t30.5 -73t11 -75t1.5 -70.5l-2 -156h-517v291h-102v-838h102
v326h519v-188q0 -34 -1.5 -71.5t-11.5 -75t-31.5 -73.5t-60.5 -67t-100 -54.5t-149 -36.5v-383h-429v383z" />
    <glyph glyph-name="sterling" unicode="&#xa3;" horiz-adv-x="1642" 
d="M1105 718h-385v-450h115v294h525v-177q0 -40 -2 -84t-13 -87t-34.5 -81.5t-66.5 -68t-109.5 -47t-163.5 -17.5q-74 0 -122 14.5t-79.5 34.5t-50.5 42.5t-34 38.5q-28 -32 -53 -54.5t-56 -37t-73.5 -22.5t-104.5 -11.5t-148 -4t-205 -0.5v265q39 5 71 18q27 11 49.5 32.5
t22.5 59.5v343h-143v222h143v124q0 108 8 192.5t30.5 147.5t63.5 106.5t107.5 70.5t161.5 39t226 12q137 0 232 -17.5t156.5 -47t95.5 -68t50.5 -81.5t19.5 -87t3 -84v-177h-526v294h-96v-424h385v-222z" />
    <glyph glyph-name="currency" unicode="&#xa4;" horiz-adv-x="1446" 
d="M286 1286q60 26 142.5 41.5t194.5 15.5q109 0 190.5 -15t142.5 -41l105 127l73 -84l-82 -99q52 -42 80 -94.5t41 -109t15 -114t2 -109.5q0 -39 -2.5 -91.5t-18 -108t-48.5 -109.5t-94 -97l107 -126l-73 -84l-132 158q-59 -22 -134 -34.5t-172 -12.5q-99 0 -176 13
t-134 36l-134 -160l-72 84l107 128q-60 43 -93 97t-48 109t-17.5 107t-2.5 91q0 52 2 109t15 113t41 108.5t79 94.5l-83 101l72 84zM570 569h101v500h-101v-500z" />
    <glyph glyph-name="yen" unicode="&#xa5;" horiz-adv-x="1665" 
d="M425 442v17l-44 126h-254v143h205l-303 867h514l167 -657l173 657h513l-301 -867h206v-143h-256l-48 -136v-7h304v-143h-304v-299h-572v299h-298v143h298z" />
    <glyph glyph-name="brokenbar" unicode="&#xa6;" horiz-adv-x="864" 
d="M668 656v-911h-574v911h574zM668 1708v-911h-574v911h574z" />
    <glyph glyph-name="section" unicode="&#xa7;" horiz-adv-x="1401" 
d="M66 1331q0 64 6 121.5t26 106.5t57 88.5t98.5 67t152 42.5t216.5 15q122 0 208.5 -12.5t144.5 -35.5t92 -55.5t51.5 -72.5t22.5 -86.5t5 -97.5q0 -26 -0.5 -52t-0.5 -53h-499v191h-66v-249q8 -9 37 -12t71 -5t93 -4.5t103 -11.5t101 -26.5t87 -48t61 -77.5t23 -114
q0 -55 -13.5 -95.5t-34 -70t-44.5 -48t-45.5 -29.5t-36.5 -16t-17 -5q2 -1 16 -6.5t33.5 -18t41.5 -33.5t41 -52.5t31.5 -74.5t12.5 -99q0 -64 -6 -121.5t-26 -106.5t-56.5 -88.5t-98.5 -67t-152 -42.5t-216 -15q-122 0 -208.5 12.5t-144.5 35.5t-92 55.5t-51.5 72.5
t-22.5 86.5t-5 97.5q0 26 0.5 52t0.5 53h498v-191h66v249q-6 9 -42 9q-33 0 -82 -4.5t-107 -4.5q-40 0 -81.5 4t-79.5 16t-71.5 33t-58.5 54t-39.5 80t-14.5 112q0 51 12.5 90.5t31 68.5t40.5 48.5t41.5 31.5t33 17.5t15.5 6.5q-3 1 -28 15.5t-54 47.5t-53 87.5t-24 134.5z
M635 750v223h-62v-223h62z" />
    <glyph glyph-name="dieresis" unicode="&#xa8;" horiz-adv-x="774" 
d="M198 418v-336h-407v336h407zM816 418v-336h-407v336h407z" />
    <glyph glyph-name="copyright" unicode="&#xa9;" horiz-adv-x="1911" 
d="M819 -102q-146 0 -256 20.5t-191.5 55t-136.5 80.5t-91 98t-55 106.5t-27.5 105.5t-9.5 96.5t-1 78.5v577q0 44 3 108t23.5 134.5t66.5 140t131 125.5t217.5 90.5t326.5 34.5q145 0 255.5 -20t191.5 -54t136.5 -79.5t91 -97t54.5 -105t27.5 -104.5t9.5 -95.5t1 -77.5
v-577q0 -33 -1 -78.5t-9.5 -96.5t-27.5 -105.5t-54.5 -106.5t-91 -98t-136.5 -80.5t-191.5 -55t-255.5 -20.5zM819 69q131 0 222.5 19.5t153 52t96.5 75t52.5 88.5t22 92t4.5 86v683q0 40 -4.5 85.5t-22 90.5t-52.5 87t-96.5 74.5t-153 51.5t-222.5 19t-223 -19t-153 -51.5
t-96 -74.5t-52.5 -87t-22 -91t-4.5 -85q0 -14 1 -27t0 -25v-579q0 -12 -0.5 -25t-0.5 -27q0 -40 4.5 -86t22 -92t52.5 -88.5t96 -75t153 -52t223 -19.5zM768 375h71v377h350v-267q0 -28 -2 -58.5t-13 -60.5t-34.5 -57.5t-67.5 -48t-111.5 -33t-165.5 -12.5
q-93 0 -157.5 12.5t-107 33.5t-65.5 48.5t-34 58t-13 61.5t-2 60v670q0 29 2 60.5t13 62t34 58t65.5 48.5t106.5 33.5t158 12.5q98 0 165.5 -12.5t111.5 -33t67.5 -48t34.5 -58t13 -61t2 -58.5v-248h-350v359h-71v-899z" />
    <glyph glyph-name="ordfeminine" unicode="&#xaa;" horiz-adv-x="1487" 
d="M854 289l-45 167q-26 -51 -66 -89t-89 -63.5t-104.5 -38t-110.5 -12.5q-115 0 -192.5 34.5t-124 91t-66 129t-19.5 149.5q0 79 23.5 155.5t81 137t155 97.5t245.5 37q51 0 110 -3t118 -10v278h-236v-167l-394 1q-11 39 -18 77t-7 73q0 60 25.5 114.5t88 95.5t168 65
t266.5 24q145 0 246 -18t168 -48t105 -69.5t57 -83t23.5 -88t4.5 -84.5v-695q0 -48 6.5 -93t14.5 -82q10 -43 22 -82h-456zM534 891v-365h236v365h-236z" />
    <glyph glyph-name="guillemotleft" unicode="&#xab;" horiz-adv-x="1870" 
d="M43 1098l707 499v-505l-458 -295l458 -293v-504l-707 489v609zM825 1098l707 499v-505l-458 -295l458 -293v-504l-707 489v609z" />
    <glyph glyph-name="logicalnot" unicode="&#xac;" horiz-adv-x="1313" 
d="M1044 278h-207v363h-784v676h991v-1039z" />
    <glyph glyph-name="uni00AD" unicode="&#xad;" horiz-adv-x="1006" 
d="M812 897v-436h-753v436h753z" />
    <glyph glyph-name="registered" unicode="&#xae;" horiz-adv-x="1911" 
d="M819 -102q-146 0 -256 20.5t-191.5 55t-136.5 80.5t-91 98t-55 106.5t-27.5 105.5t-9.5 96.5t-1 78.5v577q0 44 3 108t23.5 134.5t66.5 140t131 125.5t217.5 90.5t326.5 34.5q145 0 255.5 -20t191.5 -54t136.5 -79.5t91 -97t54.5 -105t27.5 -104.5t9.5 -95.5t1 -77.5
v-577q0 -33 -1 -78.5t-9.5 -96.5t-27.5 -105.5t-54.5 -106.5t-91 -98t-136.5 -80.5t-191.5 -55t-255.5 -20.5zM861 756h-75v-477h-352v1155h379q98 0 165.5 -12.5t111.5 -33t67.5 -48t34.5 -58t13 -61t2 -58.5v-153q0 -47 -14 -77t-35 -48.5t-45.5 -28t-45.5 -14.5
q25 -3 51.5 -13t49 -32.5t37.5 -59.5t15 -94l2 -364h-361v477zM786 915h75v359h-75v-359zM819 69q131 0 222.5 19.5t153 52t96.5 75t52.5 88.5t22 92t4.5 86v683q0 40 -4.5 85.5t-22 90.5t-52.5 87t-96.5 74.5t-153 51.5t-222.5 19t-223 -19t-153 -51.5t-96 -74.5t-52.5 -87
t-22 -91t-4.5 -85q0 -14 1 -27t0 -25v-579q0 -12 -0.5 -25t-0.5 -27q0 -40 4.5 -86t22 -92t52.5 -88.5t96 -75t153 -52t223 -19.5z" />
    <glyph glyph-name="macron" unicode="&#xaf;" horiz-adv-x="774" 
d="M777 418v-336h-924v336h924z" />
    <glyph glyph-name="degree" unicode="&#xb0;" horiz-adv-x="752" 
d="M355 1661q72 0 131 -23t101.5 -62t66 -91.5t23.5 -112.5q0 -61 -23.5 -114t-66 -92.5t-101.5 -62t-131 -22.5q-71 0 -129.5 22.5t-101 62t-66 92.5t-23.5 114q0 60 23.5 112.5t66 91.5t101 62t129.5 23zM357 1483q-52 0 -80.5 -31.5t-28.5 -77.5q0 -45 28.5 -77.5
t80.5 -32.5q54 0 81.5 32.5t27.5 77.5q0 46 -27.5 77.5t-81.5 31.5z" />
    <glyph glyph-name="plusminus" unicode="&#xb1;" horiz-adv-x="1339" 
d="M352 1394v407h446v-407h311v-483h-311v-408h-446v408h-311v483h311zM946 435v-436h-753v436h753z" />
    <glyph glyph-name="uni00B2" unicode="&#xb2;" horiz-adv-x="1167" 
d="M63 851q0 69 5 129.5t20.5 111t45 90.5t78.5 67.5t121 42t172 14.5q148 0 238.5 -30t139.5 -85t65 -131.5t16 -169.5q0 -113 -21.5 -189.5t-57 -126.5t-80.5 -80t-91.5 -49.5t-91.5 -34t-80.5 -35t-57 -51.5t-21.5 -84h458v-240h-858v242q0 124 21 212t54.5 148t77 96.5
t89 57.5t89 30.5t77 15.5t54.5 13t21 23v248h-83v-235h-400z" />
    <glyph glyph-name="uni00B3" unicode="&#xb3;" horiz-adv-x="1194" 
d="M55 820q0 80 5.5 147.5t22.5 122t48 95.5t81.5 68t123.5 41t175 14t175.5 -15t124.5 -42t82 -65t48.5 -84t23 -99t5.5 -109q0 -72 -15.5 -117.5t-33.5 -72.5q-22 -32 -49 -48q27 -15 49 -46q18 -26 33.5 -72.5t15.5 -119.5q0 -58 -5.5 -114t-23 -106t-48.5 -92t-82 -72
t-124.5 -47t-175.5 -17q-101 0 -174.5 15t-124 45t-81.5 74t-48 102t-22.5 129.5t-5.5 156.5l400 -1v-302h98v377h-162v180h162v345h-98v-271h-400z" />
    <glyph glyph-name="acute" unicode="&#xb4;" horiz-adv-x="1706" 
d="M1363 266l-826 -225l-70 205l686 563z" />
    <glyph glyph-name="uni00B5" unicode="&#xb5;" horiz-adv-x="1491" 
d="M74 -114v1414h521v-1069h101v1069h516v-1300h-450l-27 76q-13 -20 -30 -34.5t-36 -25.5t-39 -18.5t-39 -13.5v-329h-451z" />
    <glyph glyph-name="uni00B5" unicode="&#x3bc;" horiz-adv-x="1491" 
d="M74 -114v1414h521v-1069h101v1069h516v-1300h-450l-27 76q-13 -20 -30 -34.5t-36 -25.5t-39 -18.5t-39 -13.5v-329h-451z" />
    <glyph glyph-name="paragraph" unicode="&#xb6;" horiz-adv-x="1370" 
d="M520 659q-138 0 -231 33.5t-149 93t-79.5 141.5t-23.5 180q0 110 22.5 201t85 156t174 100.5t290.5 35.5h483v-1600h-236v658h-99v-658h-237v659z" />
    <glyph glyph-name="periodcentered" unicode="&#xb7;" horiz-adv-x="698" 
d="M538 655h-458v467h458v-467z" />
    <glyph glyph-name="cedilla" unicode="&#xb8;" horiz-adv-x="1456" 
d="M533 8h264v-114q82 0 139.5 -12t95.5 -32.5t59.5 -46.5t31.5 -55t12.5 -58.5t2.5 -55.5v-156q0 -26 -2.5 -56t-14 -58.5t-35 -55t-65 -46.5t-105 -32t-154.5 -12q-92 0 -156 12t-106 32t-65 46.5t-34 55t-13.5 58t-2.5 56.5v107l344 63v-250h68v314h-264v296z" />
    <glyph glyph-name="uni00B9" unicode="&#xb9;" horiz-adv-x="834" 
d="M622 1276v-1276h-460v1081h-137v195h597z" />
    <glyph glyph-name="ordmasculine" unicode="&#xba;" horiz-adv-x="1487" 
d="M558 237h236v823h-236v-823zM682 -39q-150 0 -254.5 18t-173.5 48t-107.5 70t-57.5 83t-23.5 87.5t-4.5 84.5v600q0 40 4.5 84.5t23.5 88t57.5 83t107.5 69.5t173.5 48t254.5 18q149 0 252.5 -18t171 -48t105 -69.5t55.5 -83t21.5 -88t3.5 -84.5v-600q0 -40 -3.5 -84.5
t-21.5 -87.5t-55.5 -83t-105 -70t-171 -48t-252.5 -18z" />
    <glyph glyph-name="guillemotright" unicode="&#xbb;" horiz-adv-x="1870" 
d="M1563 1098l-707 499v-505l458 -295l-458 -293v-504l707 489v609zM781 1098l-707 499v-505l458 -295l-458 -293v-504l707 489v609z" />
    <glyph glyph-name="onequarter" unicode="&#xbc;" horiz-adv-x="2900" 
d="M632 1611v-1276h-460v1081h-137v195h597zM956 1595l-318 -1595h574l318 1595h-574zM2414 -1h-434v194h-503v332l166 750h426l-165 -750v-44h76v268h434v-750z" />
    <glyph glyph-name="onehalf" unicode="&#xbd;" horiz-adv-x="2908" 
d="M952 1595l-318 -1595h574l318 1595h-574zM1541 851q0 69 5 129.5t20.5 111t45 90.5t78.5 67.5t121 42t172 14.5q148 0 238.5 -30t139.5 -85t65 -131.5t16 -169.5q0 -113 -21.5 -189.5t-57 -126.5t-80.5 -80t-91.5 -49.5t-91.5 -34t-80.5 -35t-57 -51.5t-21.5 -84h458
v-240h-858v242q0 124 21 212t54.5 148t77 96.5t89 57.5t89 30.5t77 15.5t54.5 13t21 23v248h-83v-235h-400zM632 1605v-1276h-460v1081h-137v195h597z" />
    <glyph glyph-name="threequarters" unicode="&#xbe;" horiz-adv-x="3181" 
d="M46 1141q0 80 5.5 147.5t22.5 122t48 95.5t81.5 68t123.5 41t175 14t175.5 -15t124.5 -42t82 -65t48.5 -84t23 -99t5.5 -109q0 -72 -15.5 -117.5t-33.5 -72.5q-22 -32 -49 -48q27 -15 49 -46q18 -26 33.5 -72.5t15.5 -119.5q0 -58 -5.5 -114t-23 -106t-48.5 -92t-82 -72
t-124.5 -47t-175.5 -17q-101 0 -174.5 15t-124 45t-81.5 74t-48 102t-22.5 129.5t-5.5 156.5l400 -1v-302h98v377h-162v180h162v345h-98v-271h-400zM1229 1595l-318 -1595h574l318 1595h-574zM2669 -108h-434v194h-503v332l166 750h426l-165 -750v-44h76v268h434v-750z" />
    <glyph glyph-name="questiondown" unicode="&#xbf;" horiz-adv-x="1436" 
d="M998 1131q0 -111 -18.5 -191.5t-48.5 -138.5t-68 -95.5t-78 -62t-78 -39t-68 -25.5t-48 -22.5t-18 -29.5l-4 -298h100v294h525v-177q0 -40 -3 -84t-19 -87t-50 -81.5t-96 -68t-156.5 -47t-232.5 -17.5q-131 0 -226 12t-161.5 39t-107 70.5t-63 106.5t-30.5 147.5
t-8 192.5q0 116 30 191t75.5 122t98 71.5t98 39.5t75.5 26t30 31v121h550zM996 1196h-548v397h548v-397z" />
    <glyph glyph-name="Agrave" unicode="&#xc0;" horiz-adv-x="1606" 
d="M554 393l-41 -393h-515l256 1595h858l256 -1595h-517l-39 393h-258zM580 572h206l-104 789zM516 2447l687 -563l-70 -205l-825 225z" />
    <glyph glyph-name="Aacute" unicode="&#xc1;" horiz-adv-x="1606" 
d="M554 393l-41 -393h-515l256 1595h858l256 -1595h-517l-39 393h-258zM580 572h206l-104 789zM1288 1904l-826 -225l-70 205l686 563z" />
    <glyph glyph-name="Acircumflex" unicode="&#xc2;" horiz-adv-x="1606" 
d="M554 393l-41 -393h-515l256 1595h858l256 -1595h-517l-39 393h-258zM580 572h206l-104 789zM1007 2314l256 -615h-435l-80 320l-76 -320h-434l246 615h523z" />
    <glyph glyph-name="Atilde" unicode="&#xc3;" horiz-adv-x="1606" 
d="M556 393l-41 -393h-515l256 1595h858l256 -1595h-517l-39 393h-258zM582 572h206l-104 789zM790 1875q-25 0 -46.5 -14t-46 -35t-53.5 -46t-68 -46t-90.5 -35t-120.5 -14q-89 0 -157.5 26t-115 94t-70.5 186.5t-24 304.5h268q0 -33 5 -63.5t17 -53.5t31 -37t48 -14
q25 0 48.5 14.5t50 35.5t57 46.5t69 46.5t87.5 35.5t111 14.5q89 0 158 -25.5t115.5 -93.5t70.5 -186.5t24 -304.5h-269q0 28 -5 57t-16.5 53t-30.5 39t-47 15z" />
    <glyph glyph-name="Adieresis" unicode="&#xc4;" horiz-adv-x="1606" 
d="M554 393l-41 -393h-515l256 1595h858l256 -1595h-517l-39 393h-258zM580 572h206l-104 789zM492 2056v-336h-407v336h407zM1110 2056v-336h-407v336h407z" />
    <glyph glyph-name="Aring" unicode="&#xc5;" horiz-adv-x="1606" 
d="M554 393l-41 -393h-515l256 1595h858l256 -1595h-517l-39 393h-258zM580 572h206l-104 789zM700 1779q-67 0 -126 23t-102.5 62t-68.5 91.5t-25 112.5q0 61 25 114t68.5 92.5t102.5 62t126 22.5q66 0 124 -22.5t101.5 -62t69 -92.5t25.5 -114q0 -60 -25.5 -112.5
t-69 -91.5t-101.5 -62t-124 -23zM698 1957q22 0 42 8.5t35 23t23.5 34.5t8.5 43q0 22 -8.5 42t-23.5 35t-35 24t-42 9q-23 0 -42.5 -9t-34.5 -24t-23.5 -35t-8.5 -42q0 -23 8.5 -43t23.5 -34.5t34.5 -23t42.5 -8.5z" />
    <glyph glyph-name="AE" unicode="&#xc6;" horiz-adv-x="2081" 
d="M635 348l-100 -348h-566l575 1595h432v-1595h-148v348h-193zM701 578h127v423zM1668 1595v-241h-309v-393h288v-250h-288v-467h309v-244h-827v1595h827z" />
    <glyph glyph-name="Ccedilla" unicode="&#xc7;" horiz-adv-x="1630" 
d="M813 1358h-236v-1121h236v449h497v-315q0 -40 -4.5 -86t-24 -91.5t-58.5 -87.5t-107.5 -74t-171 -51.5t-249.5 -19.5q-146 0 -248 19.5t-170.5 51.5t-107.5 74t-59 87.5t-25 91.5t-5 86v856q0 40 5 85.5t24.5 90.5t59 86.5t107.5 73t169.5 50.5t246.5 19q148 0 251 -19
t172 -50.5t108 -73t58.5 -86.5t24 -90.5t4.5 -85.5v-318h-497v449zM595 8h264v-114q82 0 139.5 -12t95.5 -32.5t59.5 -46.5t31.5 -55t12.5 -58.5t2.5 -55.5v-156q0 -26 -2.5 -56t-14 -58.5t-35 -55t-65 -46.5t-105 -32t-154.5 -12q-92 0 -156 12t-106 32t-65 46.5t-34 55
t-13.5 58t-2.5 56.5v107l344 63v-250h68v314h-264v296z" />
    <glyph glyph-name="Egrave" unicode="&#xc8;" horiz-adv-x="1198" 
d="M891 1595v-237h-309v-397h288v-250h-288v-474h309v-237h-806v1595h806zM356 2447l687 -563l-70 -205l-825 225z" />
    <glyph glyph-name="Eacute" unicode="&#xc9;" horiz-adv-x="1198" 
d="M902 1595v-237h-309v-397h288v-250h-288v-474h309v-237h-806v1595h806zM1139 1904l-826 -225l-70 205l686 563z" />
    <glyph glyph-name="Ecircumflex" unicode="&#xca;" horiz-adv-x="1198" 
d="M826 1595v-237h-309v-397h288v-250h-288v-474h309v-237h-806v1595h806zM782 2314l256 -615h-435l-80 320l-76 -320h-434l246 615h523z" />
    <glyph glyph-name="Edieresis" unicode="&#xcb;" horiz-adv-x="1198" 
d="M990 1595v-237h-309v-397h288v-250h-288v-474h309v-237h-806v1595h806zM430 2056v-336h-407v336h407zM1048 2056v-336h-407v336h407z" />
    <glyph glyph-name="Igrave" unicode="&#xcc;" horiz-adv-x="870" 
d="M491 1595v-1595h-497v1595h497zM111 2447l687 -563l-70 -205l-825 225z" />
    <glyph glyph-name="Iacute" unicode="&#xcd;" horiz-adv-x="870" 
d="M490 1595v-1595h-497v1595h497zM881 1904l-826 -225l-70 205l686 563z" />
    <glyph glyph-name="Icircumflex" unicode="&#xce;" horiz-adv-x="870" 
d="M491 1595v-1595h-497v1595h497zM602 2314l256 -615h-435l-80 320l-76 -320h-434l246 615h523z" />
    <glyph glyph-name="Idieresis" unicode="&#xcf;" horiz-adv-x="870" 
d="M653 1595v-1595h-497v1595h497zM249 2056v-336h-407v336h407zM867 2056v-336h-407v336h407z" />
    <glyph glyph-name="Eth" unicode="&#xd0;" horiz-adv-x="1710" 
d="M770 868v-142h-721v142h721zM642 237h236v1121h-236v-1121zM1375 393q0 -40 -2.5 -84.5t-18 -88.5t-49.5 -83.5t-96 -70t-157.5 -48.5t-235.5 -18h-671v1595h671q140 0 235.5 -18t157.5 -48t96 -69.5t49.5 -83t18 -88t2.5 -84.5v-811z" />
    <glyph glyph-name="Ntilde" unicode="&#xd1;" horiz-adv-x="1741" 
d="M906 0l-385 711v-711h-412v1595h454l408 -761v761h399v-1595h-464zM888 1900q-25 0 -46.5 -14t-46 -35t-53.5 -46t-68 -46t-90.5 -35t-120.5 -14q-89 0 -157.5 26t-115 94t-70.5 186.5t-24 304.5h268q0 -33 5 -63.5t17 -53.5t31 -37t48 -14q25 0 48.5 14.5t50 35.5
t57 46.5t69 46.5t87.5 35.5t111 14.5q89 0 158 -25.5t115.5 -93.5t70.5 -186.5t24 -304.5h-269q0 28 -5 57t-16.5 53t-30.5 39t-47 15z" />
    <glyph glyph-name="Ograve" unicode="&#xd2;" horiz-adv-x="1640" 
d="M577 237h236v1121h-236v-1121zM688 -39q-145 0 -247 19.5t-169.5 51.5t-106 74t-57.5 87.5t-23.5 91.5t-4.5 86v856q0 40 4.5 85.5t23.5 90.5t57.5 86.5t106 73t169 50.5t247.5 19q147 0 250.5 -19t172.5 -50.5t109 -73t60 -86.5t25 -90.5t5 -85.5v-856q0 -40 -5 -86
t-25 -91.5t-60 -87.5t-109 -74t-172.5 -51.5t-250.5 -19.5zM505 2447l687 -563l-70 -205l-825 225z" />
    <glyph glyph-name="Oacute" unicode="&#xd3;" horiz-adv-x="1640" 
d="M577 237h236v1121h-236v-1121zM688 -39q-145 0 -247 19.5t-169.5 51.5t-106 74t-57.5 87.5t-23.5 91.5t-4.5 86v856q0 40 4.5 85.5t23.5 90.5t57.5 86.5t106 73t169 50.5t247.5 19q147 0 250.5 -19t172.5 -50.5t109 -73t60 -86.5t25 -90.5t5 -85.5v-856q0 -40 -5 -86
t-25 -91.5t-60 -87.5t-109 -74t-172.5 -51.5t-250.5 -19.5zM1277 1904l-826 -225l-70 205l686 563z" />
    <glyph glyph-name="Ocircumflex" unicode="&#xd4;" horiz-adv-x="1640" 
d="M577 237h236v1121h-236v-1121zM688 -39q-145 0 -247 19.5t-169.5 51.5t-106 74t-57.5 87.5t-23.5 91.5t-4.5 86v856q0 40 4.5 85.5t23.5 90.5t57.5 86.5t106 73t169 50.5t247.5 19q147 0 250.5 -19t172.5 -50.5t109 -73t60 -86.5t25 -90.5t5 -85.5v-856q0 -40 -5 -86
t-25 -91.5t-60 -87.5t-109 -74t-172.5 -51.5t-250.5 -19.5zM996 2314l256 -615h-435l-80 320l-76 -320h-434l246 615h523z" />
    <glyph glyph-name="Otilde" unicode="&#xd5;" horiz-adv-x="1640" 
d="M650 237h236v1121h-236v-1121zM761 -39q-145 0 -247 19.5t-169.5 51.5t-106 74t-57.5 87.5t-23.5 91.5t-4.5 86v856q0 40 4.5 85.5t23.5 90.5t57.5 86.5t106 73t169 50.5t247.5 19q147 0 250.5 -19t172.5 -50.5t109 -73t60 -86.5t25 -90.5t5 -85.5v-856q0 -40 -5 -86
t-25 -91.5t-60 -87.5t-109 -74t-172.5 -51.5t-250.5 -19.5zM872 1900q-25 0 -46.5 -14t-46 -35t-53.5 -46t-68 -46t-90.5 -35t-120.5 -14q-89 0 -157.5 26t-115 94t-70.5 186.5t-24 304.5h268q0 -33 5 -63.5t17 -53.5t31 -37t48 -14q25 0 48.5 14.5t50 35.5t57 46.5t69 46.5
t87.5 35.5t111 14.5q89 0 158 -25.5t115.5 -93.5t70.5 -186.5t24 -304.5h-269q0 28 -5 57t-16.5 53t-30.5 39t-47 15z" />
    <glyph glyph-name="Odieresis" unicode="&#xd6;" horiz-adv-x="1640" 
d="M583 237h236v1121h-236v-1121zM694 -39q-145 0 -247 19.5t-169.5 51.5t-106 74t-57.5 87.5t-23.5 91.5t-4.5 86v856q0 40 4.5 85.5t23.5 90.5t57.5 86.5t106 73t169 50.5t247.5 19q147 0 250.5 -19t172.5 -50.5t109 -73t60 -86.5t25 -90.5t5 -85.5v-856q0 -40 -5 -86
t-25 -91.5t-60 -87.5t-109 -74t-172.5 -51.5t-250.5 -19.5zM487 2056v-336h-407v336h407zM1105 2056v-336h-407v336h407z" />
    <glyph glyph-name="multiply" unicode="&#xd7;" horiz-adv-x="1358" 
d="M1132 924l-233 -275l233 -274l-316 -371l-232 275l-234 -275l-315 371l234 274l-234 275l315 370l234 -274l232 274z" />
    <glyph glyph-name="Oslash" unicode="&#xd8;" horiz-adv-x="1634" 
d="M1149 1817l110 -101l-1044 -1882l-116 96zM575 237h236v1121h-236v-1121zM686 -39q-145 0 -247 19.5t-169.5 51.5t-106 74t-57.5 87.5t-23.5 91.5t-4.5 86v856q0 40 4.5 85.5t23.5 90.5t57.5 86.5t106 73t169 50.5t247.5 19q147 0 250.5 -19t172.5 -50.5t109 -73
t60 -86.5t25 -90.5t5 -85.5v-856q0 -40 -5 -86t-25 -91.5t-60 -87.5t-109 -74t-172.5 -51.5t-250.5 -19.5z" />
    <glyph glyph-name="Ugrave" unicode="&#xd9;" horiz-adv-x="1671" 
d="M591 237h236v1358h497v-1224q0 -40 -5 -86t-25 -91.5t-60 -87.5t-109 -74t-172 -51.5t-250 -19.5q-145 0 -247 19.5t-169.5 51.5t-106 74t-58 87.5t-24 91.5t-4.5 86v1224h497v-1358zM533 2447l687 -563l-70 -205l-825 225z" />
    <glyph glyph-name="Uacute" unicode="&#xda;" horiz-adv-x="1671" 
d="M591 237h236v1358h497v-1224q0 -40 -5 -86t-25 -91.5t-60 -87.5t-109 -74t-172 -51.5t-250 -19.5q-145 0 -247 19.5t-169.5 51.5t-106 74t-58 87.5t-24 91.5t-4.5 86v1224h497v-1358zM1305 1904l-826 -225l-70 205l686 563z" />
    <glyph glyph-name="Ucircumflex" unicode="&#xdb;" horiz-adv-x="1671" 
d="M591 237h236v1358h497v-1224q0 -40 -5 -86t-25 -91.5t-60 -87.5t-109 -74t-172 -51.5t-250 -19.5q-145 0 -247 19.5t-169.5 51.5t-106 74t-58 87.5t-24 91.5t-4.5 86v1224h497v-1358zM1024 2314l256 -615h-435l-80 320l-76 -320h-434l246 615h523z" />
    <glyph glyph-name="Udieresis" unicode="&#xdc;" horiz-adv-x="1671" 
d="M591 237h236v1358h497v-1224q0 -40 -5 -86t-25 -91.5t-60 -87.5t-109 -74t-172 -51.5t-250 -19.5q-145 0 -247 19.5t-169.5 51.5t-106 74t-58 87.5t-24 91.5t-4.5 86v1224h497v-1358zM508 2056v-336h-407v336h407zM1126 2056v-336h-407v336h407z" />
    <glyph glyph-name="Yacute" unicode="&#xdd;" horiz-adv-x="1571" 
d="M476 1595l167 -607l173 607h482l-404 -1146v-449h-497v459l-415 1136h494zM1251 1904l-826 -225l-70 205l686 563z" />
    <glyph glyph-name="Thorn" unicode="&#xde;" horiz-adv-x="1599" 
d="M96 1595h497v-182h171q142 0 239 -18t159.5 -48t96 -69.5t48.5 -83t17 -88t2 -84.5v-381q0 -40 -2 -84.5t-17 -87.5t-48.5 -83t-96 -70t-159.5 -48t-239 -18h-171v-250h-497v1595zM593 482h236v700h-236v-700z" />
    <glyph glyph-name="germandbls" unicode="&#xdf;" horiz-adv-x="1483" 
d="M524 -205h-497v1422q0 39 4.5 82.5t23.5 85.5t57.5 80t107 67t172 46t252.5 17q133 0 225 -20.5t152.5 -54.5t94 -78.5t49.5 -91.5t19 -94t3 -86q0 -59 -11.5 -101.5t-31 -73.5t-44 -51.5t-49.5 -34.5q-60 -33 -136 -39q35 -2 73.5 -9.5t76.5 -23t73 -39t61.5 -58t42 -81
t15.5 -106.5v-295q0 -36 -5 -72t-23 -68.5t-54 -61t-97 -49t-152.5 -32.5t-220.5 -12h-84v231h139v556h-112v231h112v377h-236v-1563z" />
    <glyph glyph-name="agrave" unicode="&#xe0;" horiz-adv-x="1481" 
d="M852 0l-45 167q-26 -51 -66 -89t-89 -63.5t-104.5 -38t-110.5 -12.5q-115 0 -192.5 34.5t-124 91t-66 129t-19.5 149.5q0 79 23.5 155.5t81 137t155 97.5t245.5 37q51 0 110 -3t118 -10v278h-236v-167l-394 1q-11 39 -18 77t-7 73q0 60 25.5 114.5t88 95.5t168 65
t266.5 24q145 0 246 -18t168 -48t105 -69.5t57 -83t23.5 -88t4.5 -84.5v-695q0 -48 6.5 -93t14.5 -82q10 -43 22 -82h-456zM532 602v-365h236v365h-236zM445 2202l687 -563l-70 -205l-825 225z" />
    <glyph glyph-name="aacute" unicode="&#xe1;" horiz-adv-x="1481" 
d="M852 0l-45 167q-26 -51 -66 -89t-89 -63.5t-104.5 -38t-110.5 -12.5q-115 0 -192.5 34.5t-124 91t-66 129t-19.5 149.5q0 79 23.5 155.5t81 137t155 97.5t245.5 37q51 0 110 -3t118 -10v278h-236v-167l-394 1q-11 39 -18 77t-7 73q0 60 25.5 114.5t88 95.5t168 65
t266.5 24q145 0 246 -18t168 -48t105 -69.5t57 -83t23.5 -88t4.5 -84.5v-695q0 -48 6.5 -93t14.5 -82q10 -43 22 -82h-456zM532 602v-365h236v365h-236zM1216 1659l-826 -225l-70 205l686 563z" />
    <glyph glyph-name="acircumflex" unicode="&#xe2;" horiz-adv-x="1481" 
d="M852 0l-45 167q-26 -51 -66 -89t-89 -63.5t-104.5 -38t-110.5 -12.5q-115 0 -192.5 34.5t-124 91t-66 129t-19.5 149.5q0 79 23.5 155.5t81 137t155 97.5t245.5 37q51 0 110 -3t118 -10v278h-236v-167l-394 1q-11 39 -18 77t-7 73q0 60 25.5 114.5t88 95.5t168 65
t266.5 24q145 0 246 -18t168 -48t105 -69.5t57 -83t23.5 -88t4.5 -84.5v-695q0 -48 6.5 -93t14.5 -82q10 -43 22 -82h-456zM532 602v-365h236v365h-236zM974 2069l256 -615h-435l-80 320l-76 -320h-434l246 615h523z" />
    <glyph glyph-name="atilde" unicode="&#xe3;" horiz-adv-x="1481" 
d="M897 0l-45 167q-26 -51 -66 -89t-89 -63.5t-104.5 -38t-110.5 -12.5q-115 0 -192.5 34.5t-124 91t-66 129t-19.5 149.5q0 79 23.5 155.5t81 137t155 97.5t245.5 37q51 0 110 -3t118 -10v278h-236v-167l-394 1q-11 39 -18 77t-7 73q0 60 25.5 114.5t88 95.5t168 65
t266.5 24q145 0 246 -18t168 -48t105 -69.5t57 -83t23.5 -88t4.5 -84.5v-695q0 -48 6.5 -93t14.5 -82q10 -43 22 -82h-456zM577 602v-365h236v365h-236zM823 1655q-25 0 -46.5 -14t-46 -35t-53.5 -46t-68 -46t-90.5 -35t-120.5 -14q-89 0 -157.5 26t-115 94t-70.5 186.5
t-24 304.5h268q0 -33 5 -63.5t17 -53.5t31 -37t48 -14q25 0 48.5 14.5t50 35.5t57 46.5t69 46.5t87.5 35.5t111 14.5q89 0 158 -25.5t115.5 -93.5t70.5 -186.5t24 -304.5h-269q0 28 -5 57t-16.5 53t-30.5 39t-47 15z" />
    <glyph glyph-name="adieresis" unicode="&#xe4;" horiz-adv-x="1481" 
d="M852 0l-45 167q-26 -51 -66 -89t-89 -63.5t-104.5 -38t-110.5 -12.5q-115 0 -192.5 34.5t-124 91t-66 129t-19.5 149.5q0 79 23.5 155.5t81 137t155 97.5t245.5 37q51 0 110 -3t118 -10v278h-236v-167l-394 1q-11 39 -18 77t-7 73q0 60 25.5 114.5t88 95.5t168 65
t266.5 24q145 0 246 -18t168 -48t105 -69.5t57 -83t23.5 -88t4.5 -84.5v-695q0 -48 6.5 -93t14.5 -82q10 -43 22 -82h-456zM532 602v-365h236v365h-236zM520 1811v-336h-407v336h407zM1138 1811v-336h-407v336h407z" />
    <glyph glyph-name="aring" unicode="&#xe5;" horiz-adv-x="1481" 
d="M852 0l-45 167q-26 -51 -66 -89t-89 -63.5t-104.5 -38t-110.5 -12.5q-115 0 -192.5 34.5t-124 91t-66 129t-19.5 149.5q0 79 23.5 155.5t81 137t155 97.5t245.5 37q51 0 110 -3t118 -10v278h-236v-167l-394 1q-11 39 -18 77t-7 73q0 60 25.5 114.5t88 95.5t168 65
t266.5 24q145 0 246 -18t168 -48t105 -69.5t57 -83t23.5 -88t4.5 -84.5v-695q0 -48 6.5 -93t14.5 -82q10 -43 22 -82h-456zM532 602v-365h236v365h-236zM688 1534q-67 0 -126 23t-102.5 62t-68.5 91.5t-25 112.5q0 61 25 114t68.5 92.5t102.5 62t126 22.5q66 0 124 -22.5
t101.5 -62t69 -92.5t25.5 -114q0 -60 -25.5 -112.5t-69 -91.5t-101.5 -62t-124 -23zM686 1712q22 0 42 8.5t35 23t23.5 34.5t8.5 43q0 22 -8.5 42t-23.5 35t-35 24t-42 9q-23 0 -42.5 -9t-34.5 -24t-23.5 -35t-8.5 -42q0 -23 8.5 -43t23.5 -34.5t34.5 -23t42.5 -8.5z" />
    <glyph glyph-name="ae" unicode="&#xe6;" horiz-adv-x="2191" 
d="M1890 451q0 -71 -4.5 -134.5t-23 -118t-55.5 -97.5t-102.5 -73.5t-164.5 -47t-241 -16.5q-70 0 -130 16.5t-105 36.5q-52 23 -95 53q-140 -57 -257 -81.5t-214 -24.5q-119 0 -207 33.5t-146 89t-86 128.5t-28 153q0 79 22 155.5t78.5 137t152.5 97.5t244 37q44 0 91 -3
t98 -10v247h-197v-136l-394 1q-11 39 -18 77t-7 73q0 60 24.5 114.5t84.5 95.5t162 65t257 24q89 0 152 -12.5t104 -27.5q48 -18 79 -40q36 22 85 40q42 15 104.5 27.5t145.5 12.5q141 0 240 -18t165 -48t103.5 -69.5t56 -82.5t23 -87.5t4.5 -83.5v-375h-677v-301h180v172z
M520 602v-324h197v51v273h-197zM1214 757h180v272h-180v-272z" />
    <glyph glyph-name="ccedilla" unicode="&#xe7;" horiz-adv-x="1483" 
d="M1293 451v-97q0 -39 -3 -83.5t-20 -88t-54.5 -83t-106 -70t-174.5 -48.5t-260 -18q-150 0 -253.5 18t-171.5 48t-106 70t-56 83t-21.5 87.5t-3.5 84.5v600q0 40 3.5 84t21.5 87t56 82.5t106 69.5t171.5 48t253.5 18q146 0 248.5 -16t171 -44t108.5 -64t60 -77t25 -83
t5 -81v-123h-497v205h-236v-823h236v214h497zM579 8h264v-114q82 0 139.5 -12t95.5 -32.5t59.5 -46.5t31.5 -55t12.5 -58.5t2.5 -55.5v-156q0 -26 -2.5 -56t-14 -58.5t-35 -55t-65 -46.5t-105 -32t-154.5 -12q-92 0 -156 12t-106 32t-65 46.5t-34 55t-13.5 58t-2.5 56.5v107
l344 63v-250h68v314h-264v296z" />
    <glyph glyph-name="egrave" unicode="&#xe8;" horiz-adv-x="1481" 
d="M1290 451q0 -71 -5 -134.5t-24.5 -118t-59 -97.5t-108 -73.5t-171 -47t-249.5 -16.5q-150 0 -253.5 18t-171.5 48t-106 69.5t-56 83t-21.5 87.5t-3.5 84v600q0 40 3.5 84t21.5 87t56 82.5t106 69.5t171.5 48t253.5 18q146 0 249 -18t171.5 -48t108 -69.5t59.5 -82.5
t25 -87.5t5 -83.5v-375h-733v-342h236v213zM558 757h236v303h-236v-303zM469 2202l687 -563l-70 -205l-825 225z" />
    <glyph glyph-name="eacute" unicode="&#xe9;" horiz-adv-x="1481" 
d="M1290 451q0 -71 -5 -134.5t-24.5 -118t-59 -97.5t-108 -73.5t-171 -47t-249.5 -16.5q-150 0 -253.5 18t-171.5 48t-106 69.5t-56 83t-21.5 87.5t-3.5 84v600q0 40 3.5 84t21.5 87t56 82.5t106 69.5t171.5 48t253.5 18q146 0 249 -18t171.5 -48t108 -69.5t59.5 -82.5
t25 -87.5t5 -83.5v-375h-733v-342h236v213zM558 757h236v303h-236v-303zM1241 1659l-826 -225l-70 205l686 563z" />
    <glyph glyph-name="ecircumflex" unicode="&#xea;" horiz-adv-x="1481" 
d="M1290 451q0 -71 -5 -134.5t-24.5 -118t-59 -97.5t-108 -73.5t-171 -47t-249.5 -16.5q-150 0 -253.5 18t-171.5 48t-106 69.5t-56 83t-21.5 87.5t-3.5 84v600q0 40 3.5 84t21.5 87t56 82.5t106 69.5t171.5 48t253.5 18q146 0 249 -18t171.5 -48t108 -69.5t59.5 -82.5
t25 -87.5t5 -83.5v-375h-733v-342h236v213zM558 757h236v303h-236v-303zM960 2069l256 -615h-435l-80 320l-76 -320h-434l246 615h523z" />
    <glyph glyph-name="edieresis" unicode="&#xeb;" horiz-adv-x="1481" 
d="M1313 451q0 -71 -5 -134.5t-24.5 -118t-59 -97.5t-108 -73.5t-171 -47t-249.5 -16.5q-150 0 -253.5 18t-171.5 48t-106 69.5t-56 83t-21.5 87.5t-3.5 84v600q0 40 3.5 84t21.5 87t56 82.5t106 69.5t171.5 48t253.5 18q146 0 249 -18t171.5 -48t108 -69.5t59.5 -82.5
t25 -87.5t5 -83.5v-375h-733v-342h236v213zM581 757h236v303h-236v-303zM468 1811v-336h-407v336h407zM1086 1811v-336h-407v336h407z" />
    <glyph glyph-name="igrave" unicode="&#xec;" horiz-adv-x="766" 
d="M592 0h-514v1298h514v-1298zM59 2202l687 -563l-70 -205l-825 225z" />
    <glyph glyph-name="iacute" unicode="&#xed;" horiz-adv-x="768" 
d="M498 0h-514v1298h514v-1298zM831 1659l-826 -225l-70 205l686 563z" />
    <glyph glyph-name="icircumflex" unicode="&#xee;" horiz-adv-x="768" 
d="M536 0h-514v1298h514v-1298zM553 2069l256 -615h-435l-80 320l-76 -320h-434l246 615h523z" />
    <glyph glyph-name="idieresis" unicode="&#xef;" horiz-adv-x="766" 
d="M626 0h-514v1298h514v-1298zM198 1811v-336h-407v336h407zM816 1811v-336h-407v336h407z" />
    <glyph glyph-name="eth" unicode="&#xf0;" horiz-adv-x="1427" 
d="M425 1415q-38 29 -74 53.5t-64 41.5q-33 20 -61 36l203 341q47 -21 102 -52q47 -26 106.5 -66.5t125.5 -96.5l188 143l64 -123l-152 -116q62 -65 118.5 -145t100 -175.5t69 -208t25.5 -241.5q0 -153 -7 -275t-28 -216t-60 -161t-102 -109.5t-154 -62.5t-217 -20
q-128 0 -220 17t-156 49.5t-103 80.5t-60.5 110.5t-28.5 138.5t-7 165q0 81 5.5 155.5t23 138t50.5 115t88.5 88t136.5 56.5t194 20h127q0 29 -10 58t-27 58t-40 57t-50 54l-228 -173l-63 124zM656 826h-110v-590h110v590z" />
    <glyph glyph-name="ntilde" unicode="&#xf1;" 
d="M181 0v1300h411l46 -167q26 52 68 91.5t94 66t111 40t120 13.5q71 0 139.5 -23t122 -69.5t86 -117.5t32.5 -166v-968h-497v1060h-236v-1060h-497zM872 1655q-25 0 -46.5 -14t-46 -35t-53.5 -46t-68 -46t-90.5 -35t-120.5 -14q-89 0 -157.5 26t-115 94t-70.5 186.5
t-24 304.5h268q0 -33 5 -63.5t17 -53.5t31 -37t48 -14q25 0 48.5 14.5t50 35.5t57 46.5t69 46.5t87.5 35.5t111 14.5q89 0 158 -25.5t115.5 -93.5t70.5 -186.5t24 -304.5h-269q0 28 -5 57t-16.5 53t-30.5 39t-47 15z" />
    <glyph glyph-name="ograve" unicode="&#xf2;" horiz-adv-x="1487" 
d="M558 237h236v823h-236v-823zM682 -39q-150 0 -254.5 18t-173.5 48t-107.5 70t-57.5 83t-23.5 87.5t-4.5 84.5v600q0 40 4.5 84.5t23.5 88t57.5 83t107.5 69.5t173.5 48t254.5 18q149 0 252.5 -18t171 -48t105 -69.5t55.5 -83t21.5 -88t3.5 -84.5v-600q0 -40 -3.5 -84.5
t-21.5 -87.5t-55.5 -83t-105 -70t-171 -48t-252.5 -18zM470 2202l687 -563l-70 -205l-825 225z" />
    <glyph glyph-name="oacute" unicode="&#xf3;" horiz-adv-x="1487" 
d="M558 237h236v823h-236v-823zM682 -39q-150 0 -254.5 18t-173.5 48t-107.5 70t-57.5 83t-23.5 87.5t-4.5 84.5v600q0 40 4.5 84.5t23.5 88t57.5 83t107.5 69.5t173.5 48t254.5 18q149 0 252.5 -18t171 -48t105 -69.5t55.5 -83t21.5 -88t3.5 -84.5v-600q0 -40 -3.5 -84.5
t-21.5 -87.5t-55.5 -83t-105 -70t-171 -48t-252.5 -18zM1242 1659l-826 -225l-70 205l686 563z" />
    <glyph glyph-name="ocircumflex" unicode="&#xf4;" horiz-adv-x="1487" 
d="M558 237h236v823h-236v-823zM682 -39q-150 0 -254.5 18t-173.5 48t-107.5 70t-57.5 83t-23.5 87.5t-4.5 84.5v600q0 40 4.5 84.5t23.5 88t57.5 83t107.5 69.5t173.5 48t254.5 18q149 0 252.5 -18t171 -48t105 -69.5t55.5 -83t21.5 -88t3.5 -84.5v-600q0 -40 -3.5 -84.5
t-21.5 -87.5t-55.5 -83t-105 -70t-171 -48t-252.5 -18zM961 2069l256 -615h-435l-80 320l-76 -320h-434l246 615h523z" />
    <glyph glyph-name="otilde" unicode="&#xf5;" horiz-adv-x="1487" 
d="M647 237h236v823h-236v-823zM771 -39q-150 0 -254.5 18t-173.5 48t-107.5 70t-57.5 83t-23.5 87.5t-4.5 84.5v600q0 40 4.5 84.5t23.5 88t57.5 83t107.5 69.5t173.5 48t254.5 18q149 0 252.5 -18t171 -48t105 -69.5t55.5 -83t21.5 -88t3.5 -84.5v-600q0 -40 -3.5 -84.5
t-21.5 -87.5t-55.5 -83t-105 -70t-171 -48t-252.5 -18zM853 1655q-25 0 -46.5 -14t-46 -35t-53.5 -46t-68 -46t-90.5 -35t-120.5 -14q-89 0 -157.5 26t-115 94t-70.5 186.5t-24 304.5h268q0 -33 5 -63.5t17 -53.5t31 -37t48 -14q25 0 48.5 14.5t50 35.5t57 46.5t69 46.5
t87.5 35.5t111 14.5q89 0 158 -25.5t115.5 -93.5t70.5 -186.5t24 -304.5h-269q0 28 -5 57t-16.5 53t-30.5 39t-47 15z" />
    <glyph glyph-name="odieresis" unicode="&#xf6;" horiz-adv-x="1487" 
d="M580 237h236v823h-236v-823zM704 -39q-150 0 -254.5 18t-173.5 48t-107.5 70t-57.5 83t-23.5 87.5t-4.5 84.5v600q0 40 4.5 84.5t23.5 88t57.5 83t107.5 69.5t173.5 48t254.5 18q149 0 252.5 -18t171 -48t105 -69.5t55.5 -83t21.5 -88t3.5 -84.5v-600q0 -40 -3.5 -84.5
t-21.5 -87.5t-55.5 -83t-105 -70t-171 -48t-252.5 -18zM468 1811v-336h-407v336h407zM1086 1811v-336h-407v336h407z" />
    <glyph glyph-name="divide" unicode="&#xf7;" horiz-adv-x="1313" 
d="M792 92h-458v467h458v-467zM792 1000h-458v497h458v-497zM1089 908v-238h-1050v238h1050z" />
    <glyph glyph-name="oslash" unicode="&#xf8;" horiz-adv-x="1487" 
d="M659 -39q-116 0 -203 11.5t-151 31.5l-90 -135l-116 78l79 118q-42 31 -66 67t-36 73.5t-14.5 75t-2.5 71.5v600q0 40 4 84.5t22.5 88t56 83t104 69.5t167.5 48t246 18q115 0 200.5 -11.5t148.5 -31.5l89 132l109 -82l-74 -110q42 -31 66 -67t35.5 -73.5t14 -75.5
t2.5 -72v-600q0 -40 -3.5 -84.5t-21.5 -87.5t-54.5 -83t-102 -70t-165.5 -48t-244 -18zM556 627l197 293v109h-197v-402zM753 278v395l-197 -294v-101h197z" />
    <glyph glyph-name="ugrave" unicode="&#xf9;" 
d="M1308 1300v-1300h-411l-46 167q-26 -52 -68 -91.5t-94 -66t-111 -40t-120 -13.5q-71 0 -139.5 23t-122 69.5t-86 117.5t-32.5 166v968h497v-1063h236v1063h497zM470 2202l687 -563l-70 -205l-825 225z" />
    <glyph glyph-name="uacute" unicode="&#xfa;" 
d="M1308 1300v-1300h-411l-46 167q-26 -52 -68 -91.5t-94 -66t-111 -40t-120 -13.5q-71 0 -139.5 23t-122 69.5t-86 117.5t-32.5 166v968h497v-1063h236v1063h497zM1241 1659l-826 -225l-70 205l686 563z" />
    <glyph glyph-name="ucircumflex" unicode="&#xfb;" 
d="M1308 1300v-1300h-411l-46 167q-26 -52 -68 -91.5t-94 -66t-111 -40t-120 -13.5q-71 0 -139.5 23t-122 69.5t-86 117.5t-32.5 166v968h497v-1063h236v1063h497zM961 2069l256 -615h-435l-80 320l-76 -320h-434l246 615h523z" />
    <glyph glyph-name="udieresis" unicode="&#xfc;" 
d="M1348 1300v-1300h-411l-46 167q-26 -52 -68 -91.5t-94 -66t-111 -40t-120 -13.5q-71 0 -139.5 23t-122 69.5t-86 117.5t-32.5 166v968h497v-1063h236v1063h497zM485 1811v-336h-407v336h407zM1103 1811v-336h-407v336h407z" />
    <glyph glyph-name="yacute" unicode="&#xfd;" 
d="M575 237h236v1063h497v-1242q0 -117 -24.5 -210.5t-68 -165.5t-102.5 -123t-127.5 -83.5t-144 -47.5t-150.5 -15q-68 0 -133.5 12t-125 34.5t-109.5 54.5t-87 71.5t-57.5 85.5t-20.5 97q0 22 4 45t13 46l503 -30v-64h134v336q-31 -35 -72 -62t-87.5 -45.5t-97.5 -28
t-102 -9.5q-71 0 -138.5 23t-120 71t-84.5 121.5t-32 173.5v955h497v-1063zM1241 1659l-826 -225l-70 205l686 563z" />
    <glyph glyph-name="thorn" unicode="&#xfe;" horiz-adv-x="1483" 
d="M596 1602v-377q7 15 19.5 32t39 32t72 24.5t117.5 9.5q93 0 157.5 -19.5t106 -52t64 -75.5t33 -89t12 -92t1.5 -86v-518q0 -39 -1.5 -85.5t-12 -92.5t-33 -88.5t-64 -75.5t-106 -52.5t-157.5 -19.5q-74 0 -117.5 10t-69 25t-38 32.5t-23.5 33.5v-487h-516v2011h516z
M596 231h103v838h-103v-838z" />
    <glyph glyph-name="ydieresis" unicode="&#xff;" 
d="M575 237h236v1063h497v-1242q0 -117 -24.5 -210.5t-68 -165.5t-102.5 -123t-127.5 -83.5t-144 -47.5t-150.5 -15q-68 0 -133.5 12t-125 34.5t-109.5 54.5t-87 71.5t-57.5 85.5t-20.5 97q0 22 4 45t13 46l503 -30v-64h134v336q-31 -35 -72 -62t-87.5 -45.5t-97.5 -28
t-102 -9.5q-71 0 -138.5 23t-120 71t-84.5 121.5t-32 173.5v955h497v-1063zM506 1811v-336h-407v336h407zM1124 1811v-336h-407v336h407z" />
    <glyph glyph-name="Amacron" unicode="&#x100;" horiz-adv-x="1606" 
d="M554 393l-41 -393h-515l256 1595h858l256 -1595h-517l-39 393h-258zM580 572h206l-104 789zM1085 2056v-336h-924v336h924z" />
    <glyph glyph-name="amacron" unicode="&#x101;" horiz-adv-x="1481" 
d="M852 0l-45 167q-26 -51 -66 -89t-89 -63.5t-104.5 -38t-110.5 -12.5q-115 0 -192.5 34.5t-124 91t-66 129t-19.5 149.5q0 79 23.5 155.5t81 137t155 97.5t245.5 37q51 0 110 -3t118 -10v278h-236v-167l-394 1q-11 39 -18 77t-7 73q0 60 25.5 114.5t88 95.5t168 65
t266.5 24q145 0 246 -18t168 -48t105 -69.5t57 -83t23.5 -88t4.5 -84.5v-695q0 -48 6.5 -93t14.5 -82q10 -43 22 -82h-456zM532 602v-365h236v365h-236zM1015 1811v-336h-924v336h924z" />
    <glyph glyph-name="Abreve" unicode="&#x102;" horiz-adv-x="1606" 
d="M554 393l-41 -393h-515l256 1595h858l256 -1595h-517l-39 393h-258zM580 572h206l-104 789zM657 1710q-107 0 -186 33.5t-130.5 111t-76.5 204t-25 312.5h269q0 -60 3 -107.5t17 -81t44.5 -51.5t84.5 -18q51 0 79.5 18t42 51.5t16 81.5t2.5 107h270q0 -186 -25.5 -312.5
t-76 -204t-127.5 -111t-181 -33.5z" />
    <glyph glyph-name="abreve" unicode="&#x103;" horiz-adv-x="1481" 
d="M852 0l-45 167q-26 -51 -66 -89t-89 -63.5t-104.5 -38t-110.5 -12.5q-115 0 -192.5 34.5t-124 91t-66 129t-19.5 149.5q0 79 23.5 155.5t81 137t155 97.5t245.5 37q51 0 110 -3t118 -10v278h-236v-167l-394 1q-11 39 -18 77t-7 73q0 60 25.5 114.5t88 95.5t168 65
t266.5 24q145 0 246 -18t168 -48t105 -69.5t57 -83t23.5 -88t4.5 -84.5v-695q0 -48 6.5 -93t14.5 -82q10 -43 22 -82h-456zM532 602v-365h236v365h-236zM585 1465q-107 0 -186 33.5t-130.5 111t-76.5 204t-25 312.5h269q0 -60 3 -107.5t17 -81t44.5 -51.5t84.5 -18
q51 0 79.5 18t42 51.5t16 81.5t2.5 107h270q0 -186 -25.5 -312.5t-76 -204t-127.5 -111t-181 -33.5z" />
    <glyph glyph-name="Aogonek" unicode="&#x104;" horiz-adv-x="1606" 
d="M554 393l-41 -393h-515l256 1595h858l256 -1595h-517l-39 393h-258zM580 572h206l-104 789zM1295 -737q-117 0 -201.5 31t-138.5 82.5t-80 118.5t-26 138q0 81 31 161t89 143t140.5 102.5t186.5 39.5v-79q-51 0 -92 -20t-69.5 -52.5t-43.5 -73.5t-15 -83q0 -37 12.5 -72
t39.5 -62t68.5 -43t98.5 -16v-315z" />
    <glyph glyph-name="aogonek" unicode="&#x105;" horiz-adv-x="1481" 
d="M852 0l-45 167q-26 -51 -66 -89t-89 -63.5t-104.5 -38t-110.5 -12.5q-115 0 -192.5 34.5t-124 91t-66 129t-19.5 149.5q0 79 23.5 155.5t81 137t155 97.5t245.5 37q51 0 110 -3t118 -10v278h-236v-167l-394 1q-11 39 -18 77t-7 73q0 60 25.5 114.5t88 95.5t168 65
t266.5 24q145 0 246 -18t168 -48t105 -69.5t57 -83t23.5 -88t4.5 -84.5v-695q0 -48 6.5 -93t14.5 -82q10 -43 22 -82h-456zM532 602v-365h236v365h-236zM1156 -737q-117 0 -201.5 31t-138.5 82.5t-80 118.5t-26 138q0 81 31 161t89 143t140.5 102.5t186.5 39.5v-79
q-51 0 -92 -20t-69.5 -52.5t-43.5 -73.5t-15 -83q0 -37 12.5 -72t39.5 -62t68.5 -43t98.5 -16v-315z" />
    <glyph glyph-name="Cacute" unicode="&#x106;" horiz-adv-x="1628" 
d="M811 1358h-236v-1121h236v449h497v-315q0 -40 -4.5 -86t-24 -91.5t-58.5 -87.5t-107.5 -74t-171 -51.5t-249.5 -19.5q-146 0 -248 19.5t-170.5 51.5t-107.5 74t-59 87.5t-25 91.5t-5 86v856q0 40 5 85.5t24.5 90.5t59 86.5t107.5 73t169.5 50.5t246.5 19q148 0 251 -19
t172 -50.5t108 -73t58.5 -86.5t24 -90.5t4.5 -85.5v-318h-497v449zM1263 1904l-826 -225l-70 205l686 563z" />
    <glyph glyph-name="cacute" unicode="&#x107;" horiz-adv-x="1479" 
d="M1291 451v-97q0 -39 -3 -83.5t-20 -88t-54.5 -83t-106 -70t-174.5 -48.5t-260 -18q-150 0 -253.5 18t-171.5 48t-106 70t-56 83t-21.5 87.5t-3.5 84.5v600q0 40 3.5 84t21.5 87t56 82.5t106 69.5t171.5 48t253.5 18q146 0 248.5 -16t171 -44t108.5 -64t60 -77t25 -83
t5 -81v-123h-497v205h-236v-823h236v214h497zM1243 1659l-826 -225l-70 205l686 563z" />
    <glyph glyph-name="Ccircumflex" unicode="&#x108;" horiz-adv-x="1628" 
d="M811 1358h-236v-1121h236v449h497v-315q0 -40 -4.5 -86t-24 -91.5t-58.5 -87.5t-107.5 -74t-171 -51.5t-249.5 -19.5q-146 0 -248 19.5t-170.5 51.5t-107.5 74t-59 87.5t-25 91.5t-5 86v856q0 40 5 85.5t24.5 90.5t59 86.5t107.5 73t169.5 50.5t246.5 19q148 0 251 -19
t172 -50.5t108 -73t58.5 -86.5t24 -90.5t4.5 -85.5v-318h-497v449zM1032 2314l256 -615h-435l-80 320l-76 -320h-434l246 615h523z" />
    <glyph glyph-name="ccircumflex" unicode="&#x109;" horiz-adv-x="1479" 
d="M1291 451v-97q0 -39 -3 -83.5t-20 -88t-54.5 -83t-106 -70t-174.5 -48.5t-260 -18q-150 0 -253.5 18t-171.5 48t-106 70t-56 83t-21.5 87.5t-3.5 84.5v600q0 40 3.5 84t21.5 87t56 82.5t106 69.5t171.5 48t253.5 18q146 0 248.5 -16t171 -44t108.5 -64t60 -77t25 -83
t5 -81v-123h-497v205h-236v-823h236v214h497zM962 2069l256 -615h-435l-80 320l-76 -320h-434l246 615h523z" />
    <glyph glyph-name="Cdotaccent" unicode="&#x10a;" horiz-adv-x="1628" 
d="M811 1358h-236v-1121h236v449h497v-315q0 -40 -4.5 -86t-24 -91.5t-58.5 -87.5t-107.5 -74t-171 -51.5t-249.5 -19.5q-146 0 -248 19.5t-170.5 51.5t-107.5 74t-59 87.5t-25 91.5t-5 86v856q0 40 5 85.5t24.5 90.5t59 86.5t107.5 73t169.5 50.5t246.5 19q148 0 251 -19
t172 -50.5t108 -73t58.5 -86.5t24 -90.5t4.5 -85.5v-318h-497v449zM936 1703h-458v467h458v-467z" />
    <glyph glyph-name="cdotaccent" unicode="&#x10b;" horiz-adv-x="1479" 
d="M1291 451v-97q0 -39 -3 -83.5t-20 -88t-54.5 -83t-106 -70t-174.5 -48.5t-260 -18q-150 0 -253.5 18t-171.5 48t-106 70t-56 83t-21.5 87.5t-3.5 84.5v600q0 40 3.5 84t21.5 87t56 82.5t106 69.5t171.5 48t253.5 18q146 0 248.5 -16t171 -44t108.5 -64t60 -77t25 -83
t5 -81v-123h-497v205h-236v-823h236v214h497zM859 1432h-458v467h458v-467z" />
    <glyph glyph-name="Ccaron" unicode="&#x10c;" horiz-adv-x="1628" 
d="M811 1358h-236v-1121h236v449h497v-315q0 -40 -4.5 -86t-24 -91.5t-58.5 -87.5t-107.5 -74t-171 -51.5t-249.5 -19.5q-146 0 -248 19.5t-170.5 51.5t-107.5 74t-59 87.5t-25 91.5t-5 86v856q0 40 5 85.5t24.5 90.5t59 86.5t107.5 73t169.5 50.5t246.5 19q148 0 251 -19
t172 -50.5t108 -73t58.5 -86.5t24 -90.5t4.5 -85.5v-318h-497v449zM505 1720l-246 614h434l76 -319l80 319h435l-256 -614h-523z" />
    <glyph glyph-name="ccaron" unicode="&#x10d;" horiz-adv-x="1479" 
d="M1291 451v-97q0 -39 -3 -83.5t-20 -88t-54.5 -83t-106 -70t-174.5 -48.5t-260 -18q-150 0 -253.5 18t-171.5 48t-106 70t-56 83t-21.5 87.5t-3.5 84.5v600q0 40 3.5 84t21.5 87t56 82.5t106 69.5t171.5 48t253.5 18q146 0 248.5 -16t171 -44t108.5 -64t60 -77t25 -83
t5 -81v-123h-497v205h-236v-823h236v214h497zM439 1475l-246 614h434l76 -319l80 319h435l-256 -614h-523z" />
    <glyph glyph-name="Dcaron" unicode="&#x10e;" horiz-adv-x="1661" 
d="M593 237h236v1121h-236v-1121zM1326 393q0 -40 -2.5 -84.5t-18 -88.5t-49.5 -83.5t-96 -70t-157.5 -48.5t-235.5 -18h-671v1595h671q140 0 235.5 -18t157.5 -48t96 -69.5t49.5 -83t18 -88t2.5 -84.5v-811zM513 1722l-246 614h434l76 -319l80 319h435l-256 -614h-523z" />
    <glyph glyph-name="dcaron" unicode="&#x10f;" horiz-adv-x="2118" 
d="M1293 1710v-1710h-411l-46 167q-30 -50 -72.5 -88.5t-93.5 -64t-108 -38.5t-117 -13q-72 0 -141 25t-122.5 76.5t-86 129.5t-32.5 183v578q0 100 32 173.5t84.5 121.5t120 71t138.5 23q107 0 200.5 -37t157.5 -108v511h497zM796 1060h-236v-823h236v823zM1356 1055
q52 12 93 35q18 10 34.5 22.5t30 29t21.5 37t8 44.5h-211v487h492v-337q0 -152 -32 -251.5t-92 -158.5t-147 -83t-197 -24v199z" />
    <glyph glyph-name="Dcroat" unicode="&#x110;" horiz-adv-x="1679" 
d="M741 868v-142h-721v142h721zM613 237h236v1121h-236v-1121zM1346 393q0 -40 -2.5 -84.5t-18 -88.5t-49.5 -83.5t-96 -70t-157.5 -48.5t-235.5 -18h-671v1595h671q140 0 235.5 -18t157.5 -48t96 -69.5t49.5 -83t18 -88t2.5 -84.5v-811z" />
    <glyph glyph-name="dcroat" unicode="&#x111;" horiz-adv-x="1505" 
d="M1349 1595v-138h-840v138h840zM1293 1710v-1710h-411l-46 167q-30 -50 -72.5 -88.5t-93.5 -64t-108 -38.5t-117 -13q-72 0 -141 25t-122.5 76.5t-86 129.5t-32.5 183v578q0 100 32 173.5t84.5 121.5t120 71t138.5 23q107 0 200.5 -37t157.5 -108v511h497zM796 1060h-236
v-823h236v823z" />
    <glyph glyph-name="Emacron" unicode="&#x112;" horiz-adv-x="1198" 
d="M975 1595v-237h-309v-397h288v-250h-288v-474h309v-237h-806v1595h806zM1010 2056v-336h-924v336h924z" />
    <glyph glyph-name="emacron" unicode="&#x113;" horiz-adv-x="1481" 
d="M1290 451q0 -71 -5 -134.5t-24.5 -118t-59 -97.5t-108 -73.5t-171 -47t-249.5 -16.5q-150 0 -253.5 18t-171.5 48t-106 69.5t-56 83t-21.5 87.5t-3.5 84v600q0 40 3.5 84t21.5 87t56 82.5t106 69.5t171.5 48t253.5 18q146 0 249 -18t171.5 -48t108 -69.5t59.5 -82.5
t25 -87.5t5 -83.5v-375h-733v-342h236v213zM558 757h236v303h-236v-303zM1040 1811v-336h-924v336h924z" />
    <glyph glyph-name="Ebreve" unicode="&#x114;" horiz-adv-x="1035" 
d="M902 1595v-237h-309v-397h288v-250h-288v-474h309v-237h-806v1595h806zM495 1710q-107 0 -186 33.5t-130.5 111t-76.5 204t-25 312.5h269q0 -60 3 -107.5t17 -81t44.5 -51.5t84.5 -18q51 0 79.5 18t42 51.5t16 81.5t2.5 107h270q0 -186 -25.5 -312.5t-76 -204
t-127.5 -111t-181 -33.5z" />
    <glyph glyph-name="ebreve" unicode="&#x115;" horiz-adv-x="1322" 
d="M1290 451q0 -71 -5 -134.5t-24.5 -118t-59 -97.5t-108 -73.5t-171 -47t-249.5 -16.5q-150 0 -253.5 18t-171.5 48t-106 69.5t-56 83t-21.5 87.5t-3.5 84v600q0 40 3.5 84t21.5 87t56 82.5t106 69.5t171.5 48t253.5 18q146 0 249 -18t171.5 -48t108 -69.5t59.5 -82.5
t25 -87.5t5 -83.5v-375h-733v-342h236v213zM558 757h236v303h-236v-303zM598 1465q-107 0 -186 33.5t-130.5 111t-76.5 204t-25 312.5h269q0 -60 3 -107.5t17 -81t44.5 -51.5t84.5 -18q51 0 79.5 18t42 51.5t16 81.5t2.5 107h270q0 -186 -25.5 -312.5t-76 -204t-127.5 -111
t-181 -33.5z" />
    <glyph glyph-name="Edotaccent" unicode="&#x116;" horiz-adv-x="1198" 
d="M902 1595v-237h-309v-397h288v-250h-288v-474h309v-237h-806v1595h806zM754 1677h-458v467h458v-467z" />
    <glyph glyph-name="edotaccent" unicode="&#x117;" horiz-adv-x="1481" 
d="M1290 451q0 -71 -5 -134.5t-24.5 -118t-59 -97.5t-108 -73.5t-171 -47t-249.5 -16.5q-150 0 -253.5 18t-171.5 48t-106 69.5t-56 83t-21.5 87.5t-3.5 84v600q0 40 3.5 84t21.5 87t56 82.5t106 69.5t171.5 48t253.5 18q146 0 249 -18t171.5 -48t108 -69.5t59.5 -82.5
t25 -87.5t5 -83.5v-375h-733v-342h236v213zM558 757h236v303h-236v-303zM858 1432h-458v467h458v-467z" />
    <glyph glyph-name="Eogonek" unicode="&#x118;" horiz-adv-x="1198" 
d="M902 1595v-237h-309v-397h288v-250h-288v-474h309v-237h-806v1595h806zM885 -737q-117 0 -201.5 31t-138.5 82.5t-80 118.5t-26 138q0 81 31 161t89 143t140.5 102.5t186.5 39.5v-79q-51 0 -92 -20t-69.5 -52.5t-43.5 -73.5t-15 -83q0 -37 12.5 -72t39.5 -62t68.5 -43
t98.5 -16v-315z" />
    <glyph glyph-name="eogonek" unicode="&#x119;" horiz-adv-x="1483" 
d="M1292 451q0 -71 -5 -134.5t-24.5 -118t-59 -97.5t-108 -73.5t-171 -47t-249.5 -16.5q-150 0 -253.5 18t-171.5 48t-106 69.5t-56 83t-21.5 87.5t-3.5 84v600q0 40 3.5 84t21.5 87t56 82.5t106 69.5t171.5 48t253.5 18q146 0 249 -18t171.5 -48t108 -69.5t59.5 -82.5
t25 -87.5t5 -83.5v-375h-733v-342h236v213zM560 757h236v303h-236v-303zM839 -737q-117 0 -201.5 31t-138.5 82.5t-80 118.5t-26 138q0 81 31 161t89 143t140.5 102.5t186.5 39.5v-79q-51 0 -92 -20t-69.5 -52.5t-43.5 -73.5t-15 -83q0 -37 12.5 -72t39.5 -62t68.5 -43
t98.5 -16v-315z" />
    <glyph glyph-name="Ecaron" unicode="&#x11a;" horiz-adv-x="1198" 
d="M826 1595v-237h-309v-397h288v-250h-288v-474h309v-237h-806v1595h806zM259 1720l-246 614h434l76 -319l80 319h435l-256 -614h-523z" />
    <glyph glyph-name="ecaron" unicode="&#x11b;" horiz-adv-x="1481" 
d="M1290 451q0 -71 -5 -134.5t-24.5 -118t-59 -97.5t-108 -73.5t-171 -47t-249.5 -16.5q-150 0 -253.5 18t-171.5 48t-106 69.5t-56 83t-21.5 87.5t-3.5 84v600q0 40 3.5 84t21.5 87t56 82.5t106 69.5t171.5 48t253.5 18q146 0 249 -18t171.5 -48t108 -69.5t59.5 -82.5
t25 -87.5t5 -83.5v-375h-733v-342h236v213zM558 757h236v303h-236v-303zM437 1475l-246 614h434l76 -319l80 319h435l-256 -614h-523z" />
    <glyph glyph-name="Gcircumflex" unicode="&#x11c;" horiz-adv-x="1645" 
d="M1308 686v-686h-435l-48 104q-20 -40 -55 -71q-30 -26 -80.5 -48t-127.5 -22q-95 0 -167.5 18t-126.5 49t-90.5 71t-58.5 84t-31.5 88.5t-9.5 84.5v869q0 43 5.5 90t25 92t59 85.5t107 71t169 48.5t245.5 18q141 0 241.5 -19t169 -50.5t110 -73t63 -86.5t28.5 -90.5
t7 -85.5v-318h-497v449h-236v-1121h322v218h-144v231h555zM1025 2314l256 -615h-435l-80 320l-76 -320h-434l246 615h523z" />
    <glyph glyph-name="gcircumflex" unicode="&#x11d;" horiz-adv-x="1505" 
d="M796 101q-31 -35 -71.5 -62t-87 -45.5t-97.5 -28t-102 -9.5q-71 0 -138.5 23t-120 71t-84.5 121.5t-32 173.5v578q0 105 32.5 183t86 129.5t122.5 76.5t141 25q58 0 115 -13t108.5 -38.5t94.5 -64t73 -88.5l46 167h411v-1242q0 -117 -25 -210.5t-68 -165.5t-101.5 -123
t-126.5 -83.5t-143 -47.5t-150 -15q-68 0 -133.5 12t-125 34.5t-109.5 54.5t-87 71.5t-57.5 85.5t-20.5 97q0 22 4 36t13 37l503 -12v-117h130v389zM796 1060h-236v-823h236v823zM959 2069l256 -615h-435l-80 320l-76 -320h-434l246 615h523z" />
    <glyph glyph-name="Gbreve" unicode="&#x11e;" horiz-adv-x="1645" 
d="M1308 686v-686h-435l-48 104q-20 -40 -55 -71q-30 -26 -80.5 -48t-127.5 -22q-95 0 -167.5 18t-126.5 49t-90.5 71t-58.5 84t-31.5 88.5t-9.5 84.5v869q0 43 5.5 90t25 92t59 85.5t107 71t169 48.5t245.5 18q141 0 241.5 -19t169 -50.5t110 -73t63 -86.5t28.5 -90.5
t7 -85.5v-318h-497v449h-236v-1121h322v218h-144v231h555zM641 1710q-107 0 -186 33.5t-130.5 111t-76.5 204t-25 312.5h269q0 -60 3 -107.5t17 -81t44.5 -51.5t84.5 -18q51 0 79.5 18t42 51.5t16 81.5t2.5 107h270q0 -186 -25.5 -312.5t-76 -204t-127.5 -111t-181 -33.5z
" />
    <glyph glyph-name="gbreve" unicode="&#x11f;" horiz-adv-x="1505" 
d="M796 101q-31 -35 -71.5 -62t-87 -45.5t-97.5 -28t-102 -9.5q-71 0 -138.5 23t-120 71t-84.5 121.5t-32 173.5v578q0 105 32.5 183t86 129.5t122.5 76.5t141 25q58 0 115 -13t108.5 -38.5t94.5 -64t73 -88.5l46 167h411v-1242q0 -117 -25 -210.5t-68 -165.5t-101.5 -123
t-126.5 -83.5t-143 -47.5t-150 -15q-68 0 -133.5 12t-125 34.5t-109.5 54.5t-87 71.5t-57.5 85.5t-20.5 97q0 22 4 36t13 37l503 -12v-117h130v389zM796 1060h-236v-823h236v823zM609 1465q-107 0 -186 33.5t-130.5 111t-76.5 204t-25 312.5h269q0 -60 3 -107.5t17 -81
t44.5 -51.5t84.5 -18q51 0 79.5 18t42 51.5t16 81.5t2.5 107h270q0 -186 -25.5 -312.5t-76 -204t-127.5 -111t-181 -33.5z" />
    <glyph glyph-name="Gdotaccent" unicode="&#x120;" horiz-adv-x="1645" 
d="M1308 686v-686h-435l-48 104q-20 -40 -55 -71q-30 -26 -80.5 -48t-127.5 -22q-95 0 -167.5 18t-126.5 49t-90.5 71t-58.5 84t-31.5 88.5t-9.5 84.5v869q0 43 5.5 90t25 92t59 85.5t107 71t169 48.5t245.5 18q141 0 241.5 -19t169 -50.5t110 -73t63 -86.5t28.5 -90.5
t7 -85.5v-318h-497v449h-236v-1121h322v218h-144v231h555zM927 1708h-458v467h458v-467z" />
    <glyph glyph-name="gdotaccent" unicode="&#x121;" horiz-adv-x="1505" 
d="M796 101q-31 -35 -71.5 -62t-87 -45.5t-97.5 -28t-102 -9.5q-71 0 -138.5 23t-120 71t-84.5 121.5t-32 173.5v578q0 105 32.5 183t86 129.5t122.5 76.5t141 25q58 0 115 -13t108.5 -38.5t94.5 -64t73 -88.5l46 167h411v-1242q0 -117 -25 -210.5t-68 -165.5t-101.5 -123
t-126.5 -83.5t-143 -47.5t-150 -15q-68 0 -133.5 12t-125 34.5t-109.5 54.5t-87 71.5t-57.5 85.5t-20.5 97q0 22 4 36t13 37l503 -12v-117h130v389zM796 1060h-236v-823h236v823zM857 1432h-458v467h458v-467z" />
    <glyph glyph-name="Gcommaaccent" unicode="&#x122;" horiz-adv-x="1645" 
d="M1308 686v-686h-435l-48 104q-20 -40 -55 -71q-30 -26 -80.5 -48t-127.5 -22q-95 0 -167.5 18t-126.5 49t-90.5 71t-58.5 84t-31.5 88.5t-9.5 84.5v869q0 43 5.5 90t25 92t59 85.5t107 71t169 48.5t245.5 18q141 0 241.5 -19t169 -50.5t110 -73t63 -86.5t28.5 -90.5
t7 -85.5v-318h-497v449h-236v-1121h322v218h-144v231h555zM508 -731q52 12 93 35q18 10 34.5 22.5t30 29t21.5 37t8 44.5h-211v487h492v-337q0 -152 -32 -251.5t-92 -158.5t-147 -83t-197 -24v199z" />
    <glyph glyph-name="gcommaaccent" unicode="&#x123;" horiz-adv-x="1505" 
d="M796 101q-31 -35 -71.5 -62t-87 -45.5t-97.5 -28t-102 -9.5q-71 0 -138.5 23t-120 71t-84.5 121.5t-32 173.5v578q0 105 32.5 183t86 129.5t122.5 76.5t141 25q58 0 115 -13t108.5 -38.5t94.5 -64t73 -88.5l46 167h411v-1242q0 -117 -25 -210.5t-68 -165.5t-101.5 -123
t-126.5 -83.5t-143 -47.5t-150 -15q-68 0 -133.5 12t-125 34.5t-109.5 54.5t-87 71.5t-57.5 85.5t-20.5 97q0 22 4 36t13 37l503 -12v-117h130v389zM796 1060h-236v-823h236v823zM878 2085q-53 -12 -94 -35q-18 -10 -34.5 -22.5t-29.5 -29t-21 -37t-8 -44.5h210v-487h-492
v337q0 152 32 251.5t92.5 158.5t147.5 83t197 24v-199z" />
    <glyph glyph-name="Hcircumflex" unicode="&#x124;" horiz-adv-x="1677" 
d="M1376 1595v-1595h-497v688h-286v-688h-497v1595h497v-657h286v657h497zM1047 2318l256 -615h-435l-80 320l-76 -320h-434l246 615h523z" />
    <glyph glyph-name="hcircumflex" unicode="&#x125;" 
d="M-67 0v1710h497v-522q23 37 60 66t83 48.5t99 30t109 10.5q70 0 138.5 -22t122.5 -67.5t87.5 -116.5t33.5 -169v-968h-497v1060h-236v-1060h-497zM801 2393l256 -615h-435l-80 320l-76 -320h-434l246 615h523z" />
    <glyph glyph-name="Hbar" unicode="&#x126;" horiz-adv-x="1772" 
d="M1539 1300v-124h-1494v124h1494zM1421 1595v-1595h-497v688h-286v-688h-497v1595h497v-657h286v657h497z" />
    <glyph glyph-name="hbar" unicode="&#x127;" 
d="M878 1594v-140h-890v140h890zM68 0v1710h497v-522q23 37 60 66t83 48.5t99 30t109 10.5q70 0 138.5 -22t122.5 -67.5t87.5 -116.5t33.5 -169v-968h-497v1060h-236v-1060h-497z" />
    <glyph glyph-name="Itilde" unicode="&#x128;" horiz-adv-x="870" 
d="M630 1595v-1595h-497v1595h497zM545 1900q-25 0 -46.5 -14t-46 -35t-53.5 -46t-68 -46t-90.5 -35t-120.5 -14q-89 0 -157.5 26t-115 94t-70.5 186.5t-24 304.5h268q0 -33 5 -63.5t17 -53.5t31 -37t48 -14q25 0 48.5 14.5t50 35.5t57 46.5t69 46.5t87.5 35.5t111 14.5
q89 0 158 -25.5t115.5 -93.5t70.5 -186.5t24 -304.5h-269q0 28 -5 57t-16.5 53t-30.5 39t-47 15z" />
    <glyph glyph-name="itilde" unicode="&#x129;" horiz-adv-x="766" 
d="M639 0h-514v1298h514v-1298zM494 1655q-25 0 -46.5 -14t-46 -35t-53.5 -46t-68 -46t-90.5 -35t-120.5 -14q-89 0 -157.5 26t-115 94t-70.5 186.5t-24 304.5h268q0 -33 5 -63.5t17 -53.5t31 -37t48 -14q25 0 48.5 14.5t50 35.5t57 46.5t69 46.5t87.5 35.5t111 14.5
q89 0 158 -25.5t115.5 -93.5t70.5 -186.5t24 -304.5h-269q0 28 -5 57t-16.5 53t-30.5 39t-47 15z" />
    <glyph glyph-name="Imacron" unicode="&#x12a;" horiz-adv-x="870" 
d="M640 1595v-1595h-497v1595h497zM830 2056v-336h-924v336h924z" />
    <glyph glyph-name="imacron" unicode="&#x12b;" horiz-adv-x="766" 
d="M646 0h-514v1298h514v-1298zM777 1811v-336h-924v336h924z" />
    <glyph glyph-name="Ibreve" unicode="&#x12c;" horiz-adv-x="753" 
d="M593 1595v-1595h-497v1595h497zM315 1710q-107 0 -186 33.5t-130.5 111t-76.5 204t-25 312.5h269q0 -60 3 -107.5t17 -81t44.5 -51.5t84.5 -18q51 0 79.5 18t42 51.5t16 81.5t2.5 107h270q0 -186 -25.5 -312.5t-76 -204t-127.5 -111t-181 -33.5z" />
    <glyph glyph-name="ibreve" unicode="&#x12d;" horiz-adv-x="746" 
d="M579 0h-514v1298h514v-1298zM230 1465q-107 0 -186 33.5t-130.5 111t-76.5 204t-25 312.5h269q0 -60 3 -107.5t17 -81t44.5 -51.5t84.5 -18q51 0 79.5 18t42 51.5t16 81.5t2.5 107h270q0 -186 -25.5 -312.5t-76 -204t-127.5 -111t-181 -33.5z" />
    <glyph glyph-name="Iogonek" unicode="&#x12e;" horiz-adv-x="870" 
d="M593 1595v-1595h-497v1595h497zM578 -737q-117 0 -201.5 31t-138.5 82.5t-80 118.5t-26 138q0 81 31 161t89 143t140.5 102.5t186.5 39.5v-79q-51 0 -92 -20t-69.5 -52.5t-43.5 -73.5t-15 -83q0 -37 12.5 -72t39.5 -62t68.5 -43t98.5 -16v-315z" />
    <glyph glyph-name="iogonek" unicode="&#x12f;" horiz-adv-x="780" 
d="M539 0h-497v1300h497v-1300zM539 1710v-237h-497v237h497zM486 -737q-117 0 -201.5 31t-138.5 82.5t-80 118.5t-26 138q0 81 31 161t89 143t140.5 102.5t186.5 39.5v-79q-51 0 -92 -20t-69.5 -52.5t-43.5 -73.5t-15 -83q0 -37 12.5 -72t39.5 -62t68.5 -43t98.5 -16v-315z
" />
    <glyph glyph-name="Idotaccent" unicode="&#x130;" horiz-adv-x="870" 
d="M593 1595v-1595h-497v1595h497zM601 1677h-458v467h458v-467z" />
    <glyph glyph-name="dotlessi" unicode="&#x131;" horiz-adv-x="766" 
d="M594 0h-514v1298h514v-1298z" />
    <glyph glyph-name="IJ" unicode="&#x132;" horiz-adv-x="2139" 
d="M593 1595v-1595h-497v1595h497zM1521 1595h497v-1224q0 -40 -6.5 -86t-27 -91.5t-60.5 -87.5t-106.5 -74t-164.5 -51.5t-236 -19.5q-154 0 -261 19.5t-177 51.5t-108.5 74t-57 87.5t-22 91.5t-3.5 86v232h497v-366h236v1358z" />
    <glyph glyph-name="ij" unicode="&#x133;" horiz-adv-x="1331" 
d="M577 0h-497v1300h497v-1300zM577 1710v-237h-497v237h497zM750 1300h497v-1206q0 -99 -31.5 -177.5t-89 -134t-138 -85t-177.5 -29.5q-60 0 -124.5 11.5t-133.5 35.5v219h197v1366zM1247 1710v-237h-497v237h497z" />
    <glyph glyph-name="Jcircumflex" unicode="&#x134;" horiz-adv-x="1612" 
d="M768 1595h497v-1224q0 -40 -6.5 -86t-27 -91.5t-60.5 -87.5t-106.5 -74t-164.5 -51.5t-236 -19.5q-154 0 -261 19.5t-177 51.5t-108.5 74t-57 87.5t-22 91.5t-3.5 86v232h497v-366h236v1358zM1019 2319l256 -615h-435l-80 320l-76 -320h-434l246 615h523z" />
    <glyph glyph-name="jcircumflex" unicode="&#x135;" horiz-adv-x="780" 
d="M563 94q0 -40 -2 -86.5t-14 -92.5t-36.5 -89t-70 -76t-114.5 -52.5t-169 -19.5q-77 0 -137 3.5t-105.5 9t-78.5 12t-57 12.5v219h256v1366h528v-1206zM572 2010l256 -615h-435l-80 320l-76 -320h-434l246 615h523z" />
    <glyph glyph-name="Kcommaaccent" unicode="&#x136;" horiz-adv-x="1870" 
d="M593 0h-497v1595h497v-561l320 561h600l-455 -761l473 -834h-601l-263 531l-74 -91v-440zM576 -742q52 12 93 35q18 10 34.5 22.5t30 29t21.5 37t8 44.5h-211v487h492v-337q0 -152 -32 -251.5t-92 -158.5t-147 -83t-197 -24v199z" />
    <glyph glyph-name="kcommaaccent" unicode="&#x137;" horiz-adv-x="1610" 
d="M80 0v1710h497v-822l242 412h530l-317 -480l324 -820h-506l-171 485l-102 -137v-348h-497zM458 -742q52 12 93 35q18 10 34.5 22.5t30 29t21.5 37t8 44.5h-211v487h492v-337q0 -152 -32 -251.5t-92 -158.5t-147 -83t-197 -24v199z" />
    <glyph glyph-name="kgreenlandic" unicode="&#x138;" horiz-adv-x="1612" 
d="M80 0v1299h528v-441l242 442h530l-303 -510l324 -790h-520l-171 455l-102 -137v-318h-528z" />
    <glyph glyph-name="Lacute" unicode="&#x139;" horiz-adv-x="1161" 
d="M-9 0v1595h497v-1358h308v-237h-805zM898 1905l-826 -225l-70 205l686 563z" />
    <glyph glyph-name="lacute" unicode="&#x13a;" horiz-adv-x="780" 
d="M483 0h-497v1710h497v-1710zM838 2026l-826 -225l-70 205l686 563z" />
    <glyph glyph-name="Lcommaaccent" unicode="&#x13b;" horiz-adv-x="1159" 
d="M96 0v1595h497v-1358h308v-237h-805zM284 -739q52 12 93 35q18 10 34.5 22.5t30 29t21.5 37t8 44.5h-211v487h492v-337q0 -152 -32 -251.5t-92 -158.5t-147 -83t-197 -24v199z" />
    <glyph glyph-name="lcommaaccent" unicode="&#x13c;" horiz-adv-x="782" 
d="M577 0h-497v1710h497v-1710zM104 -735q52 12 93 35q18 10 34.5 22.5t30 29t21.5 37t8 44.5h-211v487h492v-337q0 -152 -32 -251.5t-92 -158.5t-147 -83t-197 -24v199z" />
    <glyph glyph-name="Lcaron" unicode="&#x13d;" horiz-adv-x="1423" 
d="M96 0v1595h497v-1358h308v-237h-805zM768 1250q52 12 93 35q18 10 34.5 22.5t30 29t21.5 37t8 44.5h-211v487h492v-337q0 -152 -32 -251.5t-92 -158.5t-147 -83t-197 -24v199z" />
    <glyph glyph-name="lcaron" unicode="&#x13e;" horiz-adv-x="1432" 
d="M577 0h-497v1710h497v-1710zM757 1056q52 12 93 35q18 10 34.5 22.5t30 29t21.5 37t8 44.5h-211v487h492v-337q0 -152 -32 -251.5t-92 -158.5t-147 -83t-197 -24v199z" />
    <glyph glyph-name="Ldot" unicode="&#x13f;" horiz-adv-x="958" 
d="M96 0v1595h497v-1358h308v-237h-805zM678 950h-458v467h458v-467z" />
    <glyph glyph-name="ldot" unicode="&#x140;" horiz-adv-x="1378" 
d="M577 0h-497v1710h497v-1710zM1198 655h-458v467h458v-467z" />
    <glyph glyph-name="Lslash" unicode="&#x141;" horiz-adv-x="1567" 
d="M1302 1072l-1273 -662v340l1273 660v-338zM291 0v1595h497v-1358h308v-237h-805z" />
    <glyph glyph-name="lslash" unicode="&#x142;" horiz-adv-x="1124" 
d="M945 1023l-931 -484v249l931 483v-248zM711 0h-497v1710h497v-1710z" />
    <glyph glyph-name="Nacute" unicode="&#x143;" horiz-adv-x="1741" 
d="M893 0l-385 711v-711h-412v1595h454l408 -761v761h399v-1595h-464zM1353 1904l-826 -225l-70 205l686 563z" />
    <glyph glyph-name="nacute" unicode="&#x144;" 
d="M80 0v1300h411l46 -167q26 52 68 91.5t94 66t111 40t120 13.5q71 0 139.5 -23t122 -69.5t86 -117.5t32.5 -166v-968h-497v1060h-236v-1060h-497zM1249 1659l-826 -225l-70 205l686 563z" />
    <glyph glyph-name="Ncommaaccent" unicode="&#x145;" horiz-adv-x="1741" 
d="M893 0l-385 711v-711h-412v1595h454l408 -761v761h399v-1595h-464zM533 -736q52 12 93 35q18 10 34.5 22.5t30 29t21.5 37t8 44.5h-211v487h492v-337q0 -152 -32 -251.5t-92 -158.5t-147 -83t-197 -24v199z" />
    <glyph glyph-name="ncommaaccent" unicode="&#x146;" 
d="M80 0v1300h411l46 -167q26 52 68 91.5t94 66t111 40t120 13.5q71 0 139.5 -23t122 -69.5t86 -117.5t32.5 -166v-968h-497v1060h-236v-1060h-497zM433 -736q52 12 93 35q18 10 34.5 22.5t30 29t21.5 37t8 44.5h-211v487h492v-337q0 -152 -32 -251.5t-92 -158.5t-147 -83
t-197 -24v199z" />
    <glyph glyph-name="Ncaron" unicode="&#x147;" horiz-adv-x="1741" 
d="M893 0l-385 711v-711h-412v1595h454l408 -761v761h399v-1595h-464zM550 1720l-246 614h434l76 -319l80 319h435l-256 -614h-523z" />
    <glyph glyph-name="ncaron" unicode="&#x148;" 
d="M80 0v1300h411l46 -167q26 52 68 91.5t94 66t111 40t120 13.5q71 0 139.5 -23t122 -69.5t86 -117.5t32.5 -166v-968h-497v1060h-236v-1060h-497zM445 1475l-246 614h434l76 -319l80 319h435l-256 -614h-523z" />
    <glyph glyph-name="napostrophe" unicode="&#x149;" horiz-adv-x="1359" 
d="M80 0v1300h411l46 -167q26 52 68 91.5t94 66t111 40t120 13.5q71 0 139.5 -23t122 -69.5t86 -117.5t32.5 -166v-968h-497v1060h-236v-1060h-497z" />
    <glyph glyph-name="Eng" unicode="&#x14a;" horiz-adv-x="1741" 
d="M1010 -144l-512 855v-711h-402v1595h504l408 -761v761h401v-1840q0 -131 -39.5 -229.5t-104 -164.5t-147 -99.5t-168.5 -33.5q-85 0 -166 32.5t-144 98.5t-101.5 165t-38.5 231v120h400v-258h110v239z" />
    <glyph glyph-name="eng" unicode="&#x14b;" 
d="M80 0v1300h462l26 -75q22 30 56.5 52.5t74 37t80.5 21.5t76 7q93 0 158 -20t107.5 -53t66 -76t35 -89t14 -92t2.5 -85v-974q0 -40 -2 -86.5t-14 -92.5t-36.5 -89t-70 -76t-114.5 -52.5t-169 -19.5q-77 0 -137 3.5t-105.5 9t-78.5 12t-57 12.5v219h256v1275h-102v-1069
h-528z" />
    <glyph glyph-name="Omacron" unicode="&#x14c;" horiz-adv-x="1640" 
d="M577 237h236v1121h-236v-1121zM688 -39q-145 0 -247 19.5t-169.5 51.5t-106 74t-57.5 87.5t-23.5 91.5t-4.5 86v856q0 40 4.5 85.5t23.5 90.5t57.5 86.5t106 73t169 50.5t247.5 19q147 0 250.5 -19t172.5 -50.5t109 -73t60 -86.5t25 -90.5t5 -85.5v-856q0 -40 -5 -86
t-25 -91.5t-60 -87.5t-109 -74t-172.5 -51.5t-250.5 -19.5zM1074 2056v-336h-924v336h924z" />
    <glyph glyph-name="omacron" unicode="&#x14d;" horiz-adv-x="1487" 
d="M558 237h236v823h-236v-823zM682 -39q-150 0 -254.5 18t-173.5 48t-107.5 70t-57.5 83t-23.5 87.5t-4.5 84.5v600q0 40 4.5 84.5t23.5 88t57.5 83t107.5 69.5t173.5 48t254.5 18q149 0 252.5 -18t171 -48t105 -69.5t55.5 -83t21.5 -88t3.5 -84.5v-600q0 -40 -3.5 -84.5
t-21.5 -87.5t-55.5 -83t-105 -70t-171 -48t-252.5 -18zM1041 1811v-336h-924v336h924z" />
    <glyph glyph-name="Obreve" unicode="&#x14e;" horiz-adv-x="1449" 
d="M577 237h236v1121h-236v-1121zM688 -39q-145 0 -247 19.5t-169.5 51.5t-106 74t-57.5 87.5t-23.5 91.5t-4.5 86v856q0 40 4.5 85.5t23.5 90.5t57.5 86.5t106 73t169 50.5t247.5 19q147 0 250.5 -19t172.5 -50.5t109 -73t60 -86.5t25 -90.5t5 -85.5v-856q0 -40 -5 -86
t-25 -91.5t-60 -87.5t-109 -74t-172.5 -51.5t-250.5 -19.5zM657 1710q-107 0 -186 33.5t-130.5 111t-76.5 204t-25 312.5h269q0 -60 3 -107.5t17 -81t44.5 -51.5t84.5 -18q51 0 79.5 18t42 51.5t16 81.5t2.5 107h270q0 -186 -25.5 -312.5t-76 -204t-127.5 -111t-181 -33.5z
" />
    <glyph glyph-name="obreve" unicode="&#x14f;" horiz-adv-x="1343" 
d="M558 237h236v823h-236v-823zM682 -39q-150 0 -254.5 18t-173.5 48t-107.5 70t-57.5 83t-23.5 87.5t-4.5 84.5v600q0 40 4.5 84.5t23.5 88t57.5 83t107.5 69.5t173.5 48t254.5 18q149 0 252.5 -18t171 -48t105 -69.5t55.5 -83t21.5 -88t3.5 -84.5v-600q0 -40 -3.5 -84.5
t-21.5 -87.5t-55.5 -83t-105 -70t-171 -48t-252.5 -18zM629 1465q-107 0 -186 33.5t-130.5 111t-76.5 204t-25 312.5h269q0 -60 3 -107.5t17 -81t44.5 -51.5t84.5 -18q51 0 79.5 18t42 51.5t16 81.5t2.5 107h270q0 -186 -25.5 -312.5t-76 -204t-127.5 -111t-181 -33.5z" />
    <glyph glyph-name="Ohungarumlaut" unicode="&#x150;" horiz-adv-x="1640" 
d="M577 237h236v1121h-236v-1121zM688 -39q-145 0 -247 19.5t-169.5 51.5t-106 74t-57.5 87.5t-23.5 91.5t-4.5 86v856q0 40 4.5 85.5t23.5 90.5t57.5 86.5t106 73t169 50.5t247.5 19q147 0 250.5 -19t172.5 -50.5t109 -73t60 -86.5t25 -90.5t5 -85.5v-856q0 -40 -5 -86
t-25 -91.5t-60 -87.5t-109 -74t-172.5 -51.5t-250.5 -19.5zM801 2595l-270 -927h-183v985zM1316 2591l-270 -923h-183v981z" />
    <glyph glyph-name="ohungarumlaut" unicode="&#x151;" horiz-adv-x="1487" 
d="M558 237h236v823h-236v-823zM682 -39q-150 0 -254.5 18t-173.5 48t-107.5 70t-57.5 83t-23.5 87.5t-4.5 84.5v600q0 40 4.5 84.5t23.5 88t57.5 83t107.5 69.5t173.5 48t254.5 18q149 0 252.5 -18t171 -48t105 -69.5t55.5 -83t21.5 -88t3.5 -84.5v-600q0 -40 -3.5 -84.5
t-21.5 -87.5t-55.5 -83t-105 -70t-171 -48t-252.5 -18zM767 2350l-270 -927h-183v985zM1282 2346l-270 -923h-183v981z" />
    <glyph glyph-name="OE" unicode="&#x152;" horiz-adv-x="1925" 
d="M651 0q-142 0 -239.5 16.5t-161 44.5t-97.5 64.5t-50 78t-18.5 84.5t-2.5 83v856q0 39 2.5 81.5t18.5 83.5t50 78t97.5 64.5t161 44t239.5 16.5h946v-241h-311v-393h289v-250h-289v-467h311v-244h-946zM612 233h103v1131h-103v-1131z" />
    <glyph glyph-name="oe" unicode="&#x153;" horiz-adv-x="2187" 
d="M1919 555v-186q0 -40 -1 -85.5t-14.5 -90.5t-45.5 -86.5t-93 -73t-157 -50.5t-238 -19q-104 0 -172.5 14t-111.5 34t-64.5 43t-30.5 41q-12 -19 -37.5 -42t-68.5 -43t-106.5 -33.5t-150.5 -13.5q-142 0 -239 19t-159 50.5t-95 73t-47.5 86.5t-16.5 90.5t-2 85.5v563
q0 40 2 86t16.5 91.5t47.5 88t95 74.5t159 51.5t239 19.5q91 0 156 -14.5t108.5 -35.5t67 -43.5t31.5 -37.5q12 17 37 39.5t69 43t110.5 34.5t162.5 14q143 0 239 -19.5t157 -51.5t92.5 -74.5t45 -88t14.5 -91.5t1 -86l-4 -311h-692v-343h197v277h499zM566 278h197v751h-197
v-751zM1223 827h197v202h-197v-202z" />
    <glyph glyph-name="Racute" unicode="&#x154;" horiz-adv-x="1649" 
d="M829 649h-236v-649h-497v1595h649q145 0 244.5 -18.5t164 -51t99.5 -77.5t51 -99t19 -115t3 -124q0 -59 -7.5 -114.5t-30.5 -100.5t-65.5 -77t-111.5 -44q32 -3 69.5 -17.5t70 -47t54 -86.5t21.5 -136v-487h-497v649zM593 881h236v477h-236v-477zM1346 1906l-826 -225
l-70 205l686 563z" />
    <glyph glyph-name="racute" unicode="&#x155;" horiz-adv-x="1014" 
d="M80 0v1300h401l56 -205q10 50 31 88t48.5 65.5t59.5 45.5t64 28.5t62 15t53 5.5v-394l-278 -80v-869h-497zM1061 1659l-826 -225l-70 205l686 563z" />
    <glyph glyph-name="Rcommaaccent" unicode="&#x156;" horiz-adv-x="1651" 
d="M829 649h-236v-649h-497v1595h649q145 0 244.5 -18.5t164 -51t99.5 -77.5t51 -99t19 -115t3 -124q0 -59 -7.5 -114.5t-30.5 -100.5t-65.5 -77t-111.5 -44q32 -3 69.5 -17.5t70 -47t54 -86.5t21.5 -136v-487h-497v649zM593 881h236v477h-236v-477zM519 -730q52 12 93 35
q18 10 34.5 22.5t30 29t21.5 37t8 44.5h-211v487h492v-337q0 -152 -32 -251.5t-92 -158.5t-147 -83t-197 -24v199z" />
    <glyph glyph-name="rcommaaccent" unicode="&#x157;" horiz-adv-x="1014" 
d="M80 0v1300h401l56 -205q10 50 31 88t48.5 65.5t59.5 45.5t64 28.5t62 15t53 5.5v-394l-278 -80v-869h-497zM164 -735q52 12 93 35q18 10 34.5 22.5t30 29t21.5 37t8 44.5h-211v487h492v-337q0 -152 -32 -251.5t-92 -158.5t-147 -83t-197 -24v199z" />
    <glyph glyph-name="Rcaron" unicode="&#x158;" horiz-adv-x="1649" 
d="M829 649h-236v-649h-497v1595h649q145 0 244.5 -18.5t164 -51t99.5 -77.5t51 -99t19 -115t3 -124q0 -59 -7.5 -114.5t-30.5 -100.5t-65.5 -77t-111.5 -44q32 -3 69.5 -17.5t70 -47t54 -86.5t21.5 -136v-487h-497v649zM593 881h236v477h-236v-477zM542 1722l-246 614h434
l76 -319l80 319h435l-256 -614h-523z" />
    <glyph glyph-name="rcaron" unicode="&#x159;" horiz-adv-x="1014" 
d="M10 0v1300h401l56 -205q10 50 31 88t48.5 65.5t59.5 45.5t64 28.5t62 15t53 5.5v-394l-278 -80v-869h-497zM186 1475l-246 614h434l76 -319l80 319h435l-256 -614h-523z" />
    <glyph glyph-name="Sacute" unicode="&#x15a;" horiz-adv-x="1585" 
d="M577 1128q0 -32 31.5 -51t83 -33.5t117.5 -28.5t134.5 -35.5t134.5 -55t117.5 -87t83 -131.5t31.5 -188q0 -79 -4 -151t-22 -133.5t-56 -111.5t-106.5 -85.5t-172.5 -54.5t-254 -19q-133 0 -232.5 13.5t-170.5 41.5t-116.5 71.5t-72 102.5t-36.5 135t-10 169h520v-259
h236v296q0 29 -31.5 48t-83 34.5t-117.5 30.5t-134.5 36t-134.5 51t-117.5 74.5t-83 107t-31.5 149.5q0 108 11 192.5t38 147.5t73 106.5t115.5 70.5t165 39t222.5 12q182 0 299.5 -24t185.5 -80t94 -147t26 -223h-497v200h-236v-230zM1275 1904l-826 -225l-70 205l686 563z
" />
    <glyph glyph-name="sacute" unicode="&#x15b;" horiz-adv-x="1425" 
d="M764 444q-8 9 -44 14t-89 11.5t-118 16.5t-132 29t-130 49t-112 76t-78.5 110t-29.5 152q0 64 10 121.5t35.5 106.5t70.5 88.5t115 67t168 42.5t231 15q133 -2 227 -15t157.5 -35t101 -54t57 -72t25 -88.5t5.5 -103.5v-86l-470 30v141h-236v-193q9 -9 45.5 -15
t89.5 -13.5t118 -18.5t131.5 -30t129 -48t111.5 -73t78.5 -105t29.5 -143q0 -113 -25.5 -198.5t-94.5 -143t-191 -86.5t-315 -29q-130 3 -223.5 16.5t-157.5 36.5t-102 55.5t-58 72.5t-26.5 88t-6.5 102v78l467 -35v-141h236v207zM1212 1659l-826 -225l-70 205l686 563z" />
    <glyph glyph-name="Scircumflex" unicode="&#x15c;" horiz-adv-x="1585" 
d="M577 1128q0 -32 31.5 -51t83 -33.5t117.5 -28.5t134.5 -35.5t134.5 -55t117.5 -87t83 -131.5t31.5 -188q0 -79 -4 -151t-22 -133.5t-56 -111.5t-106.5 -85.5t-172.5 -54.5t-254 -19q-133 0 -232.5 13.5t-170.5 41.5t-116.5 71.5t-72 102.5t-36.5 135t-10 169h520v-259
h236v296q0 29 -31.5 48t-83 34.5t-117.5 30.5t-134.5 36t-134.5 51t-117.5 74.5t-83 107t-31.5 149.5q0 108 11 192.5t38 147.5t73 106.5t115.5 70.5t165 39t222.5 12q182 0 299.5 -24t185.5 -80t94 -147t26 -223h-497v200h-236v-230zM994 2314l256 -615h-435l-80 320
l-76 -320h-434l246 615h523z" />
    <glyph glyph-name="scircumflex" unicode="&#x15d;" horiz-adv-x="1425" 
d="M764 444q-8 9 -44 14t-89 11.5t-118 16.5t-132 29t-130 49t-112 76t-78.5 110t-29.5 152q0 64 10 121.5t35.5 106.5t70.5 88.5t115 67t168 42.5t231 15q133 -2 227 -15t157.5 -35t101 -54t57 -72t25 -88.5t5.5 -103.5v-86l-470 30v141h-236v-193q9 -9 45.5 -15
t89.5 -13.5t118 -18.5t131.5 -30t129 -48t111.5 -73t78.5 -105t29.5 -143q0 -113 -25.5 -198.5t-94.5 -143t-191 -86.5t-315 -29q-130 3 -223.5 16.5t-157.5 36.5t-102 55.5t-58 72.5t-26.5 88t-6.5 102v78l467 -35v-141h236v207zM932 2069l256 -615h-435l-80 320l-76 -320
h-434l246 615h523z" />
    <glyph glyph-name="Scedilla" unicode="&#x15e;" horiz-adv-x="1585" 
d="M577 1128q0 -32 31.5 -51t83 -33.5t117.5 -28.5t134.5 -35.5t134.5 -55t117.5 -87t83 -131.5t31.5 -188q0 -79 -4 -151t-22 -133.5t-56 -111.5t-106.5 -85.5t-172.5 -54.5t-254 -19q-133 0 -232.5 13.5t-170.5 41.5t-116.5 71.5t-72 102.5t-36.5 135t-10 169h520v-259
h236v296q0 29 -31.5 48t-83 34.5t-117.5 30.5t-134.5 36t-134.5 51t-117.5 74.5t-83 107t-31.5 149.5q0 108 11 192.5t38 147.5t73 106.5t115.5 70.5t165 39t222.5 12q182 0 299.5 -24t185.5 -80t94 -147t26 -223h-497v200h-236v-230zM584 8h264v-114q82 0 139.5 -12
t95.5 -32.5t59.5 -46.5t31.5 -55t12.5 -58.5t2.5 -55.5v-156q0 -26 -2.5 -56t-14 -58.5t-35 -55t-65 -46.5t-105 -32t-154.5 -12q-92 0 -156 12t-106 32t-65 46.5t-34 55t-13.5 58t-2.5 56.5v107l344 63v-250h68v314h-264v296z" />
    <glyph glyph-name="scedilla" unicode="&#x15f;" horiz-adv-x="1427" 
d="M766 444q-8 9 -44 14t-89 11.5t-118 16.5t-132 29t-130 49t-112 76t-78.5 110t-29.5 152q0 64 10 121.5t35.5 106.5t70.5 88.5t115 67t168 42.5t231 15q133 -2 227 -15t157.5 -35t101 -54t57 -72t25 -88.5t5.5 -103.5v-86l-470 30v141h-236v-193q9 -9 45.5 -15
t89.5 -13.5t118 -18.5t131.5 -30t129 -48t111.5 -73t78.5 -105t29.5 -143q0 -113 -25.5 -198.5t-94.5 -143t-191 -86.5t-315 -29q-130 3 -223.5 16.5t-157.5 36.5t-102 55.5t-58 72.5t-26.5 88t-6.5 102v78l467 -35v-141h236v207zM553 8h264v-114q82 0 139.5 -12t95.5 -32.5
t59.5 -46.5t31.5 -55t12.5 -58.5t2.5 -55.5v-156q0 -26 -2.5 -56t-14 -58.5t-35 -55t-65 -46.5t-105 -32t-154.5 -12q-92 0 -156 12t-106 32t-65 46.5t-34 55t-13.5 58t-2.5 56.5v107l344 63v-250h68v314h-264v296z" />
    <glyph glyph-name="Scaron" unicode="&#x160;" horiz-adv-x="1585" 
d="M577 1128q0 -32 31.5 -51t83 -33.5t117.5 -28.5t134.5 -35.5t134.5 -55t117.5 -87t83 -131.5t31.5 -188q0 -79 -4 -151t-22 -133.5t-56 -111.5t-106.5 -85.5t-172.5 -54.5t-254 -19q-133 0 -232.5 13.5t-170.5 41.5t-116.5 71.5t-72 102.5t-36.5 135t-10 169h520v-259
h236v296q0 29 -31.5 48t-83 34.5t-117.5 30.5t-134.5 36t-134.5 51t-117.5 74.5t-83 107t-31.5 149.5q0 108 11 192.5t38 147.5t73 106.5t115.5 70.5t165 39t222.5 12q182 0 299.5 -24t185.5 -80t94 -147t26 -223h-497v200h-236v-230zM471 1720l-246 614h434l76 -319l80 319
h435l-256 -614h-523z" />
    <glyph glyph-name="scaron" unicode="&#x161;" horiz-adv-x="1425" 
d="M764 444q-8 9 -44 14t-89 11.5t-118 16.5t-132 29t-130 49t-112 76t-78.5 110t-29.5 152q0 64 10 121.5t35.5 106.5t70.5 88.5t115 67t168 42.5t231 15q133 -2 227 -15t157.5 -35t101 -54t57 -72t25 -88.5t5.5 -103.5v-86l-470 30v141h-236v-193q9 -9 45.5 -15
t89.5 -13.5t118 -18.5t131.5 -30t129 -48t111.5 -73t78.5 -105t29.5 -143q0 -113 -25.5 -198.5t-94.5 -143t-191 -86.5t-315 -29q-130 3 -223.5 16.5t-157.5 36.5t-102 55.5t-58 72.5t-26.5 88t-6.5 102v78l467 -35v-141h236v207zM409 1475l-246 614h434l76 -319l80 319h435
l-256 -614h-523z" />
    <glyph glyph-name="Tcommaaccent" unicode="&#x162;" horiz-adv-x="1448" 
d="M1212 1595v-237h-346v-1358h-497v1358h-344v237h1187zM367 -822q52 12 93 35q18 10 34.5 22.5t30 29t21.5 37t8 44.5h-211v487h492v-337q0 -152 -32 -251.5t-92 -158.5t-147 -83t-197 -24v199z" />
    <glyph glyph-name="tcommaaccent" unicode="&#x163;" horiz-adv-x="952" 
d="M514 0h-497v1100h-123v200h123v295h497v-295h164v-200h-164v-1100zM42 -822q52 12 93 35q18 10 34.5 22.5t30 29t21.5 37t8 44.5h-211v487h492v-337q0 -152 -32 -251.5t-92 -158.5t-147 -83t-197 -24v199z" />
    <glyph glyph-name="Tcaron" unicode="&#x164;" horiz-adv-x="1448" 
d="M1212 1595v-237h-346v-1358h-497v1358h-344v237h1187zM388 1722l-246 614h434l76 -319l80 319h435l-256 -614h-523z" />
    <glyph glyph-name="tcaron" unicode="&#x165;" horiz-adv-x="1581" 
d="M514 0h-497v1100h-123v200h123v295h497v-295h164v-200h-164v-1100zM756 1058q52 12 93 35q18 10 34.5 22.5t30 29t21.5 37t8 44.5h-211v487h492v-337q0 -152 -32 -251.5t-92 -158.5t-147 -83t-197 -24v199z" />
    <glyph glyph-name="Tbar" unicode="&#x166;" horiz-adv-x="1454" 
d="M1216 1595v-237h-346v-1358h-497v1358h-344v237h1187zM995 990v-336h-924v336h924z" />
    <glyph glyph-name="tbar" unicode="&#x167;" horiz-adv-x="1001" 
d="M822 797v-200h-781v200h781zM673 0h-497v1100h-123v200h123v295h497v-295h164v-200h-164v-1100z" />
    <glyph glyph-name="Utilde" unicode="&#x168;" horiz-adv-x="1671" 
d="M651 237h236v1358h497v-1224q0 -40 -5 -86t-25 -91.5t-60 -87.5t-109 -74t-172 -51.5t-250 -19.5q-145 0 -247 19.5t-169.5 51.5t-106 74t-58 87.5t-24 91.5t-4.5 86v1224h497v-1358zM886 1902q-25 0 -46.5 -14t-46 -35t-53.5 -46t-68 -46t-90.5 -35t-120.5 -14
q-89 0 -157.5 26t-115 94t-70.5 186.5t-24 304.5h268q0 -33 5 -63.5t17 -53.5t31 -37t48 -14q25 0 48.5 14.5t50 35.5t57 46.5t69 46.5t87.5 35.5t111 14.5q89 0 158 -25.5t115.5 -93.5t70.5 -186.5t24 -304.5h-269q0 28 -5 57t-16.5 53t-30.5 39t-47 15z" />
    <glyph glyph-name="utilde" unicode="&#x169;" 
d="M1411 1300v-1300h-411l-46 167q-26 -52 -68 -91.5t-94 -66t-111 -40t-120 -13.5q-71 0 -139.5 23t-122 69.5t-86 117.5t-32.5 166v968h497v-1063h236v1063h497zM866 1655q-25 0 -46.5 -14t-46 -35t-53.5 -46t-68 -46t-90.5 -35t-120.5 -14q-89 0 -157.5 26t-115 94
t-70.5 186.5t-24 304.5h268q0 -33 5 -63.5t17 -53.5t31 -37t48 -14q25 0 48.5 14.5t50 35.5t57 46.5t69 46.5t87.5 35.5t111 14.5q89 0 158 -25.5t115.5 -93.5t70.5 -186.5t24 -304.5h-269q0 28 -5 57t-16.5 53t-30.5 39t-47 15z" />
    <glyph glyph-name="Umacron" unicode="&#x16a;" horiz-adv-x="1671" 
d="M591 237h236v1358h497v-1224q0 -40 -5 -86t-25 -91.5t-60 -87.5t-109 -74t-172 -51.5t-250 -19.5q-145 0 -247 19.5t-169.5 51.5t-106 74t-58 87.5t-24 91.5t-4.5 86v1224h497v-1358zM1103 2056v-336h-924v336h924z" />
    <glyph glyph-name="umacron" unicode="&#x16b;" 
d="M1308 1300v-1300h-411l-46 167q-26 -52 -68 -91.5t-94 -66t-111 -40t-120 -13.5q-71 0 -139.5 23t-122 69.5t-86 117.5t-32.5 166v968h497v-1063h236v1063h497zM1039 1811v-336h-924v336h924z" />
    <glyph glyph-name="Ubreve" unicode="&#x16c;" horiz-adv-x="1671" 
d="M591 237h236v1358h497v-1224q0 -40 -5 -86t-25 -91.5t-60 -87.5t-109 -74t-172 -51.5t-250 -19.5q-145 0 -247 19.5t-169.5 51.5t-106 74t-58 87.5t-24 91.5t-4.5 86v1224h497v-1358zM673 1712q-107 0 -186 33.5t-130.5 111t-76.5 204t-25 312.5h269q0 -60 3 -107.5
t17 -81t44.5 -51.5t84.5 -18q51 0 79.5 18t42 51.5t16 81.5t2.5 107h270q0 -186 -25.5 -312.5t-76 -204t-127.5 -111t-181 -33.5z" />
    <glyph glyph-name="ubreve" unicode="&#x16d;" 
d="M1308 1300v-1300h-411l-46 167q-26 -52 -68 -91.5t-94 -66t-111 -40t-120 -13.5q-71 0 -139.5 23t-122 69.5t-86 117.5t-32.5 166v968h497v-1063h236v1063h497zM610 1465q-107 0 -186 33.5t-130.5 111t-76.5 204t-25 312.5h269q0 -60 3 -107.5t17 -81t44.5 -51.5
t84.5 -18q51 0 79.5 18t42 51.5t16 81.5t2.5 107h270q0 -186 -25.5 -312.5t-76 -204t-127.5 -111t-181 -33.5z" />
    <glyph glyph-name="Uring" unicode="&#x16e;" horiz-adv-x="1671" 
d="M591 237h236v1358h497v-1224q0 -40 -5 -86t-25 -91.5t-60 -87.5t-109 -74t-172 -51.5t-250 -19.5q-145 0 -247 19.5t-169.5 51.5t-106 74t-58 87.5t-24 91.5t-4.5 86v1224h497v-1358zM717 1781q-67 0 -126 23t-102.5 62t-68.5 91.5t-25 112.5q0 61 25 114t68.5 92.5
t102.5 62t126 22.5q66 0 124 -22.5t101.5 -62t69 -92.5t25.5 -114q0 -60 -25.5 -112.5t-69 -91.5t-101.5 -62t-124 -23zM715 1959q22 0 42 8.5t35 23t23.5 34.5t8.5 43q0 22 -8.5 42t-23.5 35t-35 24t-42 9q-23 0 -42.5 -9t-34.5 -24t-23.5 -35t-8.5 -42q0 -23 8.5 -43
t23.5 -34.5t34.5 -23t42.5 -8.5z" />
    <glyph glyph-name="uring" unicode="&#x16f;" 
d="M1308 1300v-1300h-411l-46 167q-26 -52 -68 -91.5t-94 -66t-111 -40t-120 -13.5q-71 0 -139.5 23t-122 69.5t-86 117.5t-32.5 166v968h497v-1063h236v1063h497zM654 1534q-67 0 -126 23t-102.5 62t-68.5 91.5t-25 112.5q0 61 25 114t68.5 92.5t102.5 62t126 22.5
q66 0 124 -22.5t101.5 -62t69 -92.5t25.5 -114q0 -60 -25.5 -112.5t-69 -91.5t-101.5 -62t-124 -23zM652 1712q22 0 42 8.5t35 23t23.5 34.5t8.5 43q0 22 -8.5 42t-23.5 35t-35 24t-42 9q-23 0 -42.5 -9t-34.5 -24t-23.5 -35t-8.5 -42q0 -23 8.5 -43t23.5 -34.5t34.5 -23
t42.5 -8.5z" />
    <glyph glyph-name="Uhungarumlaut" unicode="&#x170;" horiz-adv-x="1671" 
d="M591 237h236v1358h497v-1224q0 -40 -5 -86t-25 -91.5t-60 -87.5t-109 -74t-172 -51.5t-250 -19.5q-145 0 -247 19.5t-169.5 51.5t-106 74t-58 87.5t-24 91.5t-4.5 86v1224h497v-1358zM1492 2597l-270 -927h-183v985zM2007 2593l-270 -923h-183v981z" />
    <glyph glyph-name="uhungarumlaut" unicode="&#x171;" 
d="M1308 1300v-1300h-411l-46 167q-26 -52 -68 -91.5t-94 -66t-111 -40t-120 -13.5q-71 0 -139.5 23t-122 69.5t-86 117.5t-32.5 166v968h497v-1063h236v1063h497zM1429 2350l-270 -927h-183v985zM1944 2346l-270 -923h-183v981z" />
    <glyph glyph-name="Uogonek" unicode="&#x172;" horiz-adv-x="1671" 
d="M591 237h236v1358h497v-1224q0 -40 -5 -86t-25 -91.5t-60 -87.5t-109 -74t-172 -51.5t-250 -19.5q-145 0 -247 19.5t-169.5 51.5t-106 74t-58 87.5t-24 91.5t-4.5 86v1224h497v-1358zM1011 -737q-117 0 -201.5 31t-138.5 82.5t-80 118.5t-26 138q0 81 31 161t89 143
t140.5 102.5t186.5 39.5v-79q-51 0 -92 -20t-69.5 -52.5t-43.5 -73.5t-15 -83q0 -37 12.5 -72t39.5 -62t68.5 -43t98.5 -16v-315z" />
    <glyph glyph-name="uogonek" unicode="&#x173;" 
d="M1308 1300v-1300h-411l-46 167q-26 -52 -68 -91.5t-94 -66t-111 -40t-120 -13.5q-71 0 -139.5 23t-122 69.5t-86 117.5t-32.5 166v968h497v-1063h236v1063h497zM1163 -737q-117 0 -201.5 31t-138.5 82.5t-80 118.5t-26 138q0 81 31 161t89 143t140.5 102.5t186.5 39.5
v-79q-51 0 -92 -20t-69.5 -52.5t-43.5 -73.5t-15 -83q0 -37 12.5 -72t39.5 -62t68.5 -43t98.5 -16v-315z" />
    <glyph glyph-name="Wcircumflex" unicode="&#x174;" horiz-adv-x="2376" 
d="M1958 1595l-262 -1595h-578l-139 718l-139 -718h-579l-261 1595h543l114 -929l108 929h429l106 -929l115 929h543zM1320 2324l256 -615h-435l-80 320l-76 -320h-434l246 615h523z" />
    <glyph glyph-name="wcircumflex" unicode="&#x175;" horiz-adv-x="2181" 
d="M925 739l-80 -739h-633l-206 1300h495l77 -880l109 880h482l107 -880l78 880h496l-206 -1300h-637zM1241 2068l256 -615h-435l-80 320l-76 -320h-434l246 615h523z" />
    <glyph glyph-name="Ycircumflex" unicode="&#x176;" horiz-adv-x="1571" 
d="M476 1595l167 -607l173 607h482l-404 -1146v-449h-497v459l-415 1136h494zM970 2321l256 -615h-435l-80 320l-76 -320h-434l246 615h523z" />
    <glyph glyph-name="ycircumflex" unicode="&#x177;" 
d="M575 237h236v1063h497v-1242q0 -117 -24.5 -210.5t-68 -165.5t-102.5 -123t-127.5 -83.5t-144 -47.5t-150.5 -15q-68 0 -133.5 12t-125 34.5t-109.5 54.5t-87 71.5t-57.5 85.5t-20.5 97q0 22 4 45t13 46l503 -30v-64h134v336q-31 -35 -72 -62t-87.5 -45.5t-97.5 -28
t-102 -9.5q-71 0 -138.5 23t-120 71t-84.5 121.5t-32 173.5v955h497v-1063zM962 2069l256 -615h-435l-80 320l-76 -320h-434l246 615h523z" />
    <glyph glyph-name="Ydieresis" unicode="&#x178;" horiz-adv-x="1571" 
d="M476 1595l167 -607l173 607h482l-404 -1146v-449h-497v459l-415 1136h494zM455 2056v-336h-407v336h407zM1073 2056v-336h-407v336h407z" />
    <glyph glyph-name="Zacute" unicode="&#x179;" horiz-adv-x="1147" 
d="M960 1595l-314 -1301h304v-294h-927l346 1304h-336v291h927zM1094 1904l-826 -225l-70 205l686 563z" />
    <glyph glyph-name="zacute" unicode="&#x17a;" horiz-adv-x="1122" 
d="M59 1300h860v-221l-322 -833h328v-246h-888v233l325 818h-303v249zM978 1659l-826 -225l-70 205l686 563z" />
    <glyph glyph-name="Zdotaccent" unicode="&#x17b;" horiz-adv-x="1147" 
d="M960 1595l-314 -1301h304v-294h-927l346 1304h-336v291h927zM750 1638h-458v467h458v-467z" />
    <glyph glyph-name="zdotaccent" unicode="&#x17c;" horiz-adv-x="1122" 
d="M59 1300h860v-221l-322 -833h328v-246h-888v233l325 818h-303v249zM731 1393h-458v467h458v-467z" />
    <glyph glyph-name="Zcaron" unicode="&#x17d;" horiz-adv-x="1147" 
d="M907 1595l-314 -1301h304v-294h-927l346 1304h-336v291h927zM237 1720l-246 614h434l76 -319l80 319h435l-256 -614h-523z" />
    <glyph glyph-name="zcaron" unicode="&#x17e;" horiz-adv-x="1122" 
d="M-13 1300h860v-221l-322 -833h328v-246h-888v233l325 818h-303v249zM200 1475l-246 614h434l76 -319l80 319h435l-256 -614h-523z" />
    <glyph glyph-name="longs" unicode="&#x17f;" horiz-adv-x="968" 
d="M195 1300q0 118 33 200.5t92 134.5t140.5 75.5t178.5 23.5q76 0 158.5 -13.5t170.5 -37.5v-206h-276v-177h284v-202h-284v-1098h-497v1098h-187v202h187z" />
    <glyph glyph-name="florin" unicode="&#x192;" horiz-adv-x="1204" 
d="M583 -17q-12 -114 -50.5 -193.5t-97 -129t-134.5 -72t-163 -22.5q-70 0 -146 13.5t-154 37.5l21 206h179l128 1175h-187l23 202h187l2 17q12 103 42 181t89 129.5t152.5 77.5t233.5 26q94 0 155.5 -7.5t100.5 -17.5q19 -5 37 -10t32 -13l-21 -206h-276l-19 -177h282
l-21 -202h-284z" />
    <glyph glyph-name="uni01C4" unicode="&#x1c4;" horiz-adv-x="1707" 
 />
    <glyph glyph-name="uni01C5" unicode="&#x1c5;" horiz-adv-x="2458" 
d="M593 237h236v1121h-236v-1121zM1326 393q0 -40 -2.5 -84.5t-18 -88.5t-49.5 -83.5t-96 -70t-157.5 -48.5t-235.5 -18h-671v1595h671q140 0 235.5 -18t157.5 -48t96 -69.5t49.5 -83t18 -88t2.5 -84.5v-811zM1517 1300h860v-221l-322 -833h328v-246h-888v233l325 818h-303
v249zM467 1722l-246 614h434l76 -319l80 319h435l-256 -614h-523z" />
    <glyph glyph-name="uni01C6" unicode="&#x1c6;" horiz-adv-x="1707" 
 />
    <glyph glyph-name="uni01C7" unicode="&#x1c7;" horiz-adv-x="2344" 
d="M96 0v1595h497v-1358h308v-237h-805zM1726 1595h497v-1224q0 -40 -6.5 -86t-27 -91.5t-60.5 -87.5t-106.5 -74t-164.5 -51.5t-236 -19.5q-154 0 -261 19.5t-177 51.5t-108.5 74t-57 87.5t-22 91.5t-3.5 86v232h497v-366h236v1358z" />
    <glyph glyph-name="uni01C8" unicode="&#x1c8;" horiz-adv-x="1620" 
d="M96 0v1595h497v-1358h308v-237h-805zM934 1300h497v-1206q0 -99 -31.5 -177.5t-89 -134t-138 -85t-177.5 -29.5q-60 0 -124.5 11.5t-133.5 35.5v219h197v1366zM1431 1710v-237h-497v237h497z" />
    <glyph glyph-name="uni01C9" unicode="&#x1c9;" horiz-adv-x="1362" 
d="M577 0h-497v1710h497v-1710zM676 1300h497v-1206q0 -99 -31.5 -177.5t-89 -134t-138 -85t-177.5 -29.5q-60 0 -124.5 11.5t-133.5 35.5v219h197v1366zM1173 1710v-237h-497v237h497z" />
    <glyph glyph-name="uni01CA" unicode="&#x1ca;" horiz-adv-x="2881" 
d="M893 0l-385 711v-711h-412v1595h454l408 -761v761h399v-1595h-464zM2263 1595h497v-1224q0 -40 -6.5 -86t-27 -91.5t-60.5 -87.5t-106.5 -74t-164.5 -51.5t-236 -19.5q-154 0 -261 19.5t-177 51.5t-108.5 74t-57 87.5t-22 91.5t-3.5 86v232h497v-366h236v1358z" />
    <glyph glyph-name="uni01CB" unicode="&#x1cb;" horiz-adv-x="2157" 
d="M893 0l-385 711v-711h-412v1595h454l408 -761v761h399v-1595h-464zM1471 1300h497v-1206q0 -99 -31.5 -177.5t-89 -134t-138 -85t-177.5 -29.5q-60 0 -124.5 11.5t-133.5 35.5v219h197v1366zM1968 1710v-237h-497v237h497z" />
    <glyph glyph-name="uni01CC" unicode="&#x1cc;" horiz-adv-x="2021" 
d="M80 0v1300h411l46 -167q26 52 68 91.5t94 66t111 40t120 13.5q71 0 139.5 -23t122 -69.5t86 -117.5t32.5 -166v-968h-497v1060h-236v-1060h-497zM1335 1300h497v-1206q0 -99 -31.5 -177.5t-89 -134t-138 -85t-177.5 -29.5q-60 0 -124.5 11.5t-133.5 35.5v219h197v1366z
M1832 1710v-237h-497v237h497z" />
    <glyph glyph-name="uni01CD" unicode="&#x1cd;" horiz-adv-x="1606" 
d="M554 393l-41 -393h-515l256 1595h858l256 -1595h-517l-39 393h-258zM580 572h206l-104 789zM484 1720l-246 614h434l76 -319l80 319h435l-256 -614h-523z" />
    <glyph glyph-name="uni01CE" unicode="&#x1ce;" horiz-adv-x="1481" 
d="M852 0l-45 167q-26 -51 -66 -89t-89 -63.5t-104.5 -38t-110.5 -12.5q-115 0 -192.5 34.5t-124 91t-66 129t-19.5 149.5q0 79 23.5 155.5t81 137t155 97.5t245.5 37q51 0 110 -3t118 -10v278h-236v-167l-394 1q-11 39 -18 77t-7 73q0 60 25.5 114.5t88 95.5t168 65
t266.5 24q145 0 246 -18t168 -48t105 -69.5t57 -83t23.5 -88t4.5 -84.5v-695q0 -48 6.5 -93t14.5 -82q10 -43 22 -82h-456zM532 602v-365h236v365h-236zM413 1475l-246 614h434l76 -319l80 319h435l-256 -614h-523z" />
    <glyph glyph-name="uni01CF" unicode="&#x1cf;" horiz-adv-x="870" 
d="M491 1595v-1595h-497v1595h497zM79 1720l-246 614h434l76 -319l80 319h435l-256 -614h-523z" />
    <glyph glyph-name="uni01D0" unicode="&#x1d0;" horiz-adv-x="768" 
d="M500 0h-514v1298h514v-1298zM28 1475l-246 614h434l76 -319l80 319h435l-256 -614h-523z" />
    <glyph glyph-name="uni01D1" unicode="&#x1d1;" horiz-adv-x="1640" 
d="M577 237h236v1121h-236v-1121zM688 -39q-145 0 -247 19.5t-169.5 51.5t-106 74t-57.5 87.5t-23.5 91.5t-4.5 86v856q0 40 4.5 85.5t23.5 90.5t57.5 86.5t106 73t169 50.5t247.5 19q147 0 250.5 -19t172.5 -50.5t109 -73t60 -86.5t25 -90.5t5 -85.5v-856q0 -40 -5 -86
t-25 -91.5t-60 -87.5t-109 -74t-172.5 -51.5t-250.5 -19.5zM473 1720l-246 614h434l76 -319l80 319h435l-256 -614h-523z" />
    <glyph glyph-name="uni01D2" unicode="&#x1d2;" horiz-adv-x="1487" 
d="M558 237h236v823h-236v-823zM682 -39q-150 0 -254.5 18t-173.5 48t-107.5 70t-57.5 83t-23.5 87.5t-4.5 84.5v600q0 40 4.5 84.5t23.5 88t57.5 83t107.5 69.5t173.5 48t254.5 18q149 0 252.5 -18t171 -48t105 -69.5t55.5 -83t21.5 -88t3.5 -84.5v-600q0 -40 -3.5 -84.5
t-21.5 -87.5t-55.5 -83t-105 -70t-171 -48t-252.5 -18zM438 1475l-246 614h434l76 -319l80 319h435l-256 -614h-523z" />
    <glyph glyph-name="uni01D3" unicode="&#x1d3;" horiz-adv-x="1467" 
d="M591 237h236v1358h497v-1224q0 -40 -5 -86t-25 -91.5t-60 -87.5t-109 -74t-172 -51.5t-250 -19.5q-145 0 -247 19.5t-169.5 51.5t-106 74t-58 87.5t-24 91.5t-4.5 86v1224h497v-1358zM454 1722l-246 614h434l76 -319l80 319h435l-256 -614h-523z" />
    <glyph glyph-name="uni01D4" unicode="&#x1d4;" 
d="M1308 1300v-1300h-411l-46 167q-26 -52 -68 -91.5t-94 -66t-111 -40t-120 -13.5q-71 0 -139.5 23t-122 69.5t-86 117.5t-32.5 166v968h497v-1063h236v1063h497zM438 1475l-246 614h434l76 -319l80 319h435l-256 -614h-523z" />
    <glyph glyph-name="uni01E2" unicode="&#x1e2;" horiz-adv-x="2090" 
d="M624 348l-100 -348h-566l575 1595h432v-1595h-148v348h-193zM690 578h127v423zM1657 1595v-241h-309v-393h288v-250h-288v-467h309v-244h-827v1595h827zM1505 2009v-336h-924v336h924z" />
    <glyph glyph-name="uni01E3" unicode="&#x1e3;" horiz-adv-x="2046" 
d="M1861 451q0 -71 -4.5 -134.5t-23 -118t-55.5 -97.5t-102.5 -73.5t-164.5 -47t-241 -16.5q-70 0 -130 16.5t-105 36.5q-52 23 -95 53q-140 -57 -257 -81.5t-214 -24.5q-119 0 -207 33.5t-146 89t-86 128.5t-28 153q0 79 22 155.5t78.5 137t152.5 97.5t244 37q44 0 91 -3
t98 -10v247h-197v-136l-394 1q-11 39 -18 77t-7 73q0 60 24.5 114.5t84.5 95.5t162 65t257 24q89 0 152 -12.5t104 -27.5q48 -18 79 -40q36 22 85 40q42 15 104.5 27.5t145.5 12.5q141 0 240 -18t165 -48t103.5 -69.5t56 -82.5t23 -87.5t4.5 -83.5v-375h-677v-301h180v172z
M491 602v-324h197v51v273h-197zM1185 757h180v272h-180v-272zM1356 1753v-336h-924v336h924z" />
    <glyph glyph-name="Gcaron" unicode="&#x1e6;" horiz-adv-x="1645" 
d="M1308 686v-686h-435l-48 104q-20 -40 -55 -71q-30 -26 -80.5 -48t-127.5 -22q-95 0 -167.5 18t-126.5 49t-90.5 71t-58.5 84t-31.5 88.5t-9.5 84.5v869q0 43 5.5 90t25 92t59 85.5t107 71t169 48.5t245.5 18q141 0 241.5 -19t169 -50.5t110 -73t63 -86.5t28.5 -90.5
t7 -85.5v-318h-497v449h-236v-1121h322v218h-144v231h555zM468 1720l-246 614h434l76 -319l80 319h435l-256 -614h-523z" />
    <glyph glyph-name="uni01F1" unicode="&#x1f1;" horiz-adv-x="2486" 
d="M593 237h236v1121h-236v-1121zM1326 393q0 -40 -2.5 -84.5t-18 -88.5t-49.5 -83.5t-96 -70t-157.5 -48.5t-235.5 -18h-671v1595h671q140 0 235.5 -18t157.5 -48t96 -69.5t49.5 -83t18 -88t2.5 -84.5v-811zM2414 1595l-314 -1301h304v-294h-927l346 1304h-336v291h927z
" />
    <glyph glyph-name="uni01F2" unicode="&#x1f2;" horiz-adv-x="2458" 
d="M593 237h236v1121h-236v-1121zM1326 393q0 -40 -2.5 -84.5t-18 -88.5t-49.5 -83.5t-96 -70t-157.5 -48.5t-235.5 -18h-671v1595h671q140 0 235.5 -18t157.5 -48t96 -69.5t49.5 -83t18 -88t2.5 -84.5v-811zM1517 1300h860v-221l-322 -833h328v-246h-888v233l325 818h-303
v249z" />
    <glyph glyph-name="uni01F4" unicode="&#x1f4;" horiz-adv-x="1645" 
d="M1308 686v-686h-435l-48 104q-20 -40 -55 -71q-30 -26 -80.5 -48t-127.5 -22q-95 0 -167.5 18t-126.5 49t-90.5 71t-58.5 84t-31.5 88.5t-9.5 84.5v869q0 43 5.5 90t25 92t59 85.5t107 71t169 48.5t245.5 18q141 0 241.5 -19t169 -50.5t110 -73t63 -86.5t28.5 -90.5
t7 -85.5v-318h-497v449h-236v-1121h322v218h-144v231h555zM1272 1904l-826 -225l-70 205l686 563z" />
    <glyph glyph-name="AEacute" unicode="&#x1fc;" horiz-adv-x="2090" 
d="M1503 1904l-826 -225l-70 205l686 563zM624 348l-100 -348h-566l575 1595h432v-1595h-148v348h-193zM690 578h127v423zM1657 1595v-241h-309v-393h288v-250h-288v-467h309v-244h-827v1595h827z" />
    <glyph glyph-name="aeacute" unicode="&#x1fd;" horiz-adv-x="2046" 
d="M1861 451q0 -71 -4.5 -134.5t-23 -118t-55.5 -97.5t-102.5 -73.5t-164.5 -47t-241 -16.5q-70 0 -130 16.5t-105 36.5q-52 23 -95 53q-140 -57 -257 -81.5t-214 -24.5q-119 0 -207 33.5t-146 89t-86 128.5t-28 153q0 79 22 155.5t78.5 137t152.5 97.5t244 37q44 0 91 -3
t98 -10v247h-197v-136l-394 1q-11 39 -18 77t-7 73q0 60 24.5 114.5t84.5 95.5t162 65t257 24q89 0 152 -12.5t104 -27.5q48 -18 79 -40q36 22 85 40q42 15 104.5 27.5t145.5 12.5q141 0 240 -18t165 -48t103.5 -69.5t56 -82.5t23 -87.5t4.5 -83.5v-375h-677v-301h180v172z
M491 602v-324h197v51v273h-197zM1185 757h180v272h-180v-272zM1481 1665l-826 -225l-70 205l686 563z" />
    <glyph glyph-name="oslashacute" unicode="&#x1ff;" horiz-adv-x="1343" 
d="M659 -39q-116 0 -203 11.5t-151 31.5l-90 -135l-116 78l79 118q-42 31 -66 67t-36 73.5t-14.5 75t-2.5 71.5v600q0 40 4 84.5t22.5 88t56 83t104 69.5t167.5 48t246 18q115 0 200.5 -11.5t148.5 -31.5l89 132l109 -82l-74 -110q42 -31 66 -67t35.5 -73.5t14 -75.5
t2.5 -72v-600q0 -40 -3.5 -84.5t-21.5 -87.5t-54.5 -83t-102 -70t-165.5 -48t-244 -18zM556 627l197 293v109h-197v-402zM753 278v395l-197 -294v-101h197zM1195 1659l-826 -225l-70 205l686 563z" />
    <glyph glyph-name="uni0200" unicode="&#x200;" horiz-adv-x="1382" 
d="M554 393l-41 -393h-515l256 1595h858l256 -1595h-517l-39 393h-258zM580 572h206l-104 789z" />
    <glyph glyph-name="uni0201" unicode="&#x201;" horiz-adv-x="1354" 
d="M852 0l-45 167q-26 -51 -66 -89t-89 -63.5t-104.5 -38t-110.5 -12.5q-115 0 -192.5 34.5t-124 91t-66 129t-19.5 149.5q0 79 23.5 155.5t81 137t155 97.5t245.5 37q51 0 110 -3t118 -10v278h-236v-167l-394 1q-11 39 -18 77t-7 73q0 60 25.5 114.5t88 95.5t168 65
t266.5 24q145 0 246 -18t168 -48t105 -69.5t57 -83t23.5 -88t4.5 -84.5v-695q0 -48 6.5 -93t14.5 -82q10 -43 22 -82h-456zM532 602v-365h236v365h-236z" />
    <glyph glyph-name="uni0202" unicode="&#x202;" horiz-adv-x="1382" 
d="M554 393l-41 -393h-515l256 1595h858l256 -1595h-517l-39 393h-258zM580 572h206l-104 789z" />
    <glyph glyph-name="uni0203" unicode="&#x203;" horiz-adv-x="1354" 
d="M852 0l-45 167q-26 -51 -66 -89t-89 -63.5t-104.5 -38t-110.5 -12.5q-115 0 -192.5 34.5t-124 91t-66 129t-19.5 149.5q0 79 23.5 155.5t81 137t155 97.5t245.5 37q51 0 110 -3t118 -10v278h-236v-167l-394 1q-11 39 -18 77t-7 73q0 60 25.5 114.5t88 95.5t168 65
t266.5 24q145 0 246 -18t168 -48t105 -69.5t57 -83t23.5 -88t4.5 -84.5v-695q0 -48 6.5 -93t14.5 -82q10 -43 22 -82h-456zM532 602v-365h236v365h-236z" />
    <glyph glyph-name="uni0204" unicode="&#x204;" horiz-adv-x="1016" 
d="M902 1595v-237h-309v-397h288v-250h-288v-474h309v-237h-806v1595h806z" />
    <glyph glyph-name="uni0205" unicode="&#x205;" horiz-adv-x="1322" 
d="M1290 451q0 -71 -5 -134.5t-24.5 -118t-59 -97.5t-108 -73.5t-171 -47t-249.5 -16.5q-150 0 -253.5 18t-171.5 48t-106 69.5t-56 83t-21.5 87.5t-3.5 84v600q0 40 3.5 84t21.5 87t56 82.5t106 69.5t171.5 48t253.5 18q146 0 249 -18t171.5 -48t108 -69.5t59.5 -82.5
t25 -87.5t5 -83.5v-375h-733v-342h236v213zM558 757h236v303h-236v-303z" />
    <glyph glyph-name="uni0206" unicode="&#x206;" horiz-adv-x="1016" 
d="M902 1595v-237h-309v-397h288v-250h-288v-474h309v-237h-806v1595h806z" />
    <glyph glyph-name="uni0207" unicode="&#x207;" horiz-adv-x="1322" 
d="M1290 451q0 -71 -5 -134.5t-24.5 -118t-59 -97.5t-108 -73.5t-171 -47t-249.5 -16.5q-150 0 -253.5 18t-171.5 48t-106 69.5t-56 83t-21.5 87.5t-3.5 84v600q0 40 3.5 84t21.5 87t56 82.5t106 69.5t171.5 48t253.5 18q146 0 249 -18t171.5 -48t108 -69.5t59.5 -82.5
t25 -87.5t5 -83.5v-375h-733v-342h236v213zM558 757h236v303h-236v-303z" />
    <glyph glyph-name="uni0208" unicode="&#x208;" horiz-adv-x="753" 
d="M593 1595v-1595h-497v1595h497z" />
    <glyph glyph-name="uni0209" unicode="&#x209;" horiz-adv-x="686" 
d="M594 0h-514v1298h514v-1298z" />
    <glyph glyph-name="uni020A" unicode="&#x20a;" horiz-adv-x="753" 
d="M593 1595v-1595h-497v1595h497z" />
    <glyph glyph-name="uni020B" unicode="&#x20b;" horiz-adv-x="669" 
d="M577 0h-497v1300h497v-1300zM577 1710v-237h-497v237h497z" />
    <glyph glyph-name="uni020C" unicode="&#x20c;" horiz-adv-x="1449" 
d="M577 237h236v1121h-236v-1121zM688 -39q-145 0 -247 19.5t-169.5 51.5t-106 74t-57.5 87.5t-23.5 91.5t-4.5 86v856q0 40 4.5 85.5t23.5 90.5t57.5 86.5t106 73t169 50.5t247.5 19q147 0 250.5 -19t172.5 -50.5t109 -73t60 -86.5t25 -90.5t5 -85.5v-856q0 -40 -5 -86
t-25 -91.5t-60 -87.5t-109 -74t-172.5 -51.5t-250.5 -19.5z" />
    <glyph glyph-name="uni020D" unicode="&#x20d;" horiz-adv-x="1343" 
d="M558 237h236v823h-236v-823zM682 -39q-150 0 -254.5 18t-173.5 48t-107.5 70t-57.5 83t-23.5 87.5t-4.5 84.5v600q0 40 4.5 84.5t23.5 88t57.5 83t107.5 69.5t173.5 48t254.5 18q149 0 252.5 -18t171 -48t105 -69.5t55.5 -83t21.5 -88t3.5 -84.5v-600q0 -40 -3.5 -84.5
t-21.5 -87.5t-55.5 -83t-105 -70t-171 -48t-252.5 -18z" />
    <glyph glyph-name="uni020E" unicode="&#x20e;" horiz-adv-x="1449" 
d="M577 237h236v1121h-236v-1121zM688 -39q-145 0 -247 19.5t-169.5 51.5t-106 74t-57.5 87.5t-23.5 91.5t-4.5 86v856q0 40 4.5 85.5t23.5 90.5t57.5 86.5t106 73t169 50.5t247.5 19q147 0 250.5 -19t172.5 -50.5t109 -73t60 -86.5t25 -90.5t5 -85.5v-856q0 -40 -5 -86
t-25 -91.5t-60 -87.5t-109 -74t-172.5 -51.5t-250.5 -19.5z" />
    <glyph glyph-name="uni020F" unicode="&#x20f;" horiz-adv-x="1343" 
d="M558 237h236v823h-236v-823zM682 -39q-150 0 -254.5 18t-173.5 48t-107.5 70t-57.5 83t-23.5 87.5t-4.5 84.5v600q0 40 4.5 84.5t23.5 88t57.5 83t107.5 69.5t173.5 48t254.5 18q149 0 252.5 -18t171 -48t105 -69.5t55.5 -83t21.5 -88t3.5 -84.5v-600q0 -40 -3.5 -84.5
t-21.5 -87.5t-55.5 -83t-105 -70t-171 -48t-252.5 -18z" />
    <glyph glyph-name="uni0210" unicode="&#x210;" horiz-adv-x="1456" 
d="M829 649h-236v-649h-497v1595h649q145 0 244.5 -18.5t164 -51t99.5 -77.5t51 -99t19 -115t3 -124q0 -59 -7.5 -114.5t-30.5 -100.5t-65.5 -77t-111.5 -44q32 -3 69.5 -17.5t70 -47t54 -86.5t21.5 -136v-487h-497v649zM593 881h236v477h-236v-477z" />
    <glyph glyph-name="uni0211" unicode="&#x211;" horiz-adv-x="896" 
d="M80 0v1300h401l56 -205q10 50 31 88t48.5 65.5t59.5 45.5t64 28.5t62 15t53 5.5v-394l-278 -80v-869h-497z" />
    <glyph glyph-name="uni0212" unicode="&#x212;" horiz-adv-x="1456" 
d="M829 649h-236v-649h-497v1595h649q145 0 244.5 -18.5t164 -51t99.5 -77.5t51 -99t19 -115t3 -124q0 -59 -7.5 -114.5t-30.5 -100.5t-65.5 -77t-111.5 -44q32 -3 69.5 -17.5t70 -47t54 -86.5t21.5 -136v-487h-497v649zM593 881h236v477h-236v-477z" />
    <glyph glyph-name="uni0213" unicode="&#x213;" horiz-adv-x="896" 
d="M80 0v1300h401l56 -205q10 50 31 88t48.5 65.5t59.5 45.5t64 28.5t62 15t53 5.5v-394l-278 -80v-869h-497z" />
    <glyph glyph-name="uni0214" unicode="&#x214;" horiz-adv-x="1467" 
d="M591 237h236v1358h497v-1224q0 -40 -5 -86t-25 -91.5t-60 -87.5t-109 -74t-172 -51.5t-250 -19.5q-145 0 -247 19.5t-169.5 51.5t-106 74t-58 87.5t-24 91.5t-4.5 86v1224h497v-1358z" />
    <glyph glyph-name="uni0215" unicode="&#x215;" horiz-adv-x="1359" 
d="M1308 1300v-1300h-411l-46 167q-26 -52 -68 -91.5t-94 -66t-111 -40t-120 -13.5q-71 0 -139.5 23t-122 69.5t-86 117.5t-32.5 166v968h497v-1063h236v1063h497z" />
    <glyph glyph-name="uni0216" unicode="&#x216;" horiz-adv-x="1467" 
d="M591 237h236v1358h497v-1224q0 -40 -5 -86t-25 -91.5t-60 -87.5t-109 -74t-172 -51.5t-250 -19.5q-145 0 -247 19.5t-169.5 51.5t-106 74t-58 87.5t-24 91.5t-4.5 86v1224h497v-1358z" />
    <glyph glyph-name="uni0217" unicode="&#x217;" horiz-adv-x="1359" 
d="M1308 1300v-1300h-411l-46 167q-26 -52 -68 -91.5t-94 -66t-111 -40t-120 -13.5q-71 0 -139.5 23t-122 69.5t-86 117.5t-32.5 166v968h497v-1063h236v1063h497z" />
    <glyph glyph-name="Scommaaccent" unicode="&#x218;" horiz-adv-x="1585" 
d="M577 1128q0 -32 31.5 -51t83 -33.5t117.5 -28.5t134.5 -35.5t134.5 -55t117.5 -87t83 -131.5t31.5 -188q0 -79 -4 -151t-22 -133.5t-56 -111.5t-106.5 -85.5t-172.5 -54.5t-254 -19q-133 0 -232.5 13.5t-170.5 41.5t-116.5 71.5t-72 102.5t-36.5 135t-10 169h520v-259
h236v296q0 29 -31.5 48t-83 34.5t-117.5 30.5t-134.5 36t-134.5 51t-117.5 74.5t-83 107t-31.5 149.5q0 108 11 192.5t38 147.5t73 106.5t115.5 70.5t165 39t222.5 12q182 0 299.5 -24t185.5 -80t94 -147t26 -223h-497v200h-236v-230zM450 -822q52 12 93 35q18 10 34.5 22.5
t30 29t21.5 37t8 44.5h-211v487h492v-337q0 -152 -32 -251.5t-92 -158.5t-147 -83t-197 -24v199z" />
    <glyph glyph-name="scommaaccent" unicode="&#x219;" horiz-adv-x="1427" 
d="M766 444q-8 9 -44 14t-89 11.5t-118 16.5t-132 29t-130 49t-112 76t-78.5 110t-29.5 152q0 64 10 121.5t35.5 106.5t70.5 88.5t115 67t168 42.5t231 15q133 -2 227 -15t157.5 -35t101 -54t57 -72t25 -88.5t5.5 -103.5v-86l-470 30v141h-236v-193q9 -9 45.5 -15
t89.5 -13.5t118 -18.5t131.5 -30t129 -48t111.5 -73t78.5 -105t29.5 -143q0 -113 -25.5 -198.5t-94.5 -143t-191 -86.5t-315 -29q-130 3 -223.5 16.5t-157.5 36.5t-102 55.5t-58 72.5t-26.5 88t-6.5 102v78l467 -35v-141h236v207zM390 -822q52 12 93 35q18 10 34.5 22.5
t30 29t21.5 37t8 44.5h-211v487h492v-337q0 -152 -32 -251.5t-92 -158.5t-147 -83t-197 -24v199z" />
    <glyph glyph-name="uni021A" unicode="&#x21a;" horiz-adv-x="1448" 
d="M1212 1595v-237h-346v-1358h-497v1358h-344v237h1187zM367 -822q52 12 93 35q18 10 34.5 22.5t30 29t21.5 37t8 44.5h-211v487h492v-337q0 -152 -32 -251.5t-92 -158.5t-147 -83t-197 -24v199z" />
    <glyph glyph-name="uni021B" unicode="&#x21b;" horiz-adv-x="952" 
d="M514 0h-497v1100h-123v200h123v295h497v-295h164v-200h-164v-1100zM42 -822q52 12 93 35q18 10 34.5 22.5t30 29t21.5 37t8 44.5h-211v487h492v-337q0 -152 -32 -251.5t-92 -158.5t-147 -83t-197 -24v199z" />
    <glyph glyph-name="uni0237" unicode="&#x237;" horiz-adv-x="662" 
d="M79 1300h497v-1206q0 -99 -31.5 -177.5t-89 -134t-138 -85t-177.5 -29.5q-60 0 -124.5 11.5t-133.5 35.5v219h197v1366z" />
    <glyph glyph-name="circumflex" unicode="&#x2c6;" horiz-adv-x="1706" 
d="M1084 676l256 -615h-435l-80 320l-76 -320h-434l246 615h523z" />
    <glyph glyph-name="caron" unicode="&#x2c7;" horiz-adv-x="1706" 
d="M561 82l-246 614h434l76 -319l80 319h435l-256 -614h-523z" />
    <glyph glyph-name="breve" unicode="&#x2d8;" horiz-adv-x="1288" 
d="M568 70q-107 0 -186 33.5t-130.5 111t-76.5 204t-25 312.5h269q0 -60 3 -107.5t17 -81t44.5 -51.5t84.5 -18q51 0 79.5 18t42 51.5t16 81.5t2.5 107h270q0 -186 -25.5 -312.5t-76 -204t-127.5 -111t-181 -33.5z" />
    <glyph glyph-name="dotaccent" unicode="&#x2d9;" horiz-adv-x="698" 
d="M538 0h-458v467h458v-467z" />
    <glyph glyph-name="ring" unicode="&#x2da;" horiz-adv-x="774" 
d="M375 141q-67 0 -126 23t-102.5 62t-68.5 91.5t-25 112.5q0 61 25 114t68.5 92.5t102.5 62t126 22.5q66 0 124 -22.5t101.5 -62t69 -92.5t25.5 -114q0 -60 -25.5 -112.5t-69 -91.5t-101.5 -62t-124 -23zM373 319q22 0 42 8.5t35 23t23.5 34.5t8.5 43q0 22 -8.5 42
t-23.5 35t-35 24t-42 9q-23 0 -42.5 -9t-34.5 -24t-23.5 -35t-8.5 -42q0 -23 8.5 -43t23.5 -34.5t34.5 -23t42.5 -8.5z" />
    <glyph glyph-name="ogonek" unicode="&#x2db;" horiz-adv-x="1288" 
d="M722 -737q-117 0 -201.5 31t-138.5 82.5t-80 118.5t-26 138q0 81 31 161t89 143t140.5 102.5t186.5 39.5v-79q-51 0 -92 -20t-69.5 -52.5t-43.5 -73.5t-15 -83q0 -37 12.5 -72t39.5 -62t68.5 -43t98.5 -16v-315z" />
    <glyph glyph-name="tilde" unicode="&#x2dc;" horiz-adv-x="1288" 
d="M751 260q-25 0 -46.5 -14t-46 -35t-53.5 -46t-68 -46t-90.5 -35t-120.5 -14q-89 0 -157.5 26t-115 94t-70.5 186.5t-24 304.5h268q0 -33 5 -63.5t17 -53.5t31 -37t48 -14q25 0 48.5 14.5t50 35.5t57 46.5t69 46.5t87.5 35.5t111 14.5q89 0 158 -25.5t115.5 -93.5
t70.5 -186.5t24 -304.5h-269q0 28 -5 57t-16.5 53t-30.5 39t-47 15z" />
    <glyph glyph-name="hungarumlaut" unicode="&#x2dd;" horiz-adv-x="2570" 
d="M1274 957l-270 -927h-183v985zM1789 953l-270 -923h-183v981z" />
    <glyph glyph-name="wgrave" unicode="&#x1e81;" horiz-adv-x="2181" 
d="M925 739l-80 -739h-633l-206 1300h495l77 -880l109 880h482l107 -880l78 880h496l-206 -1300h-637zM700 2168l687 -563l-70 -205l-825 225z" />
    <glyph glyph-name="wacute" unicode="&#x1e83;" horiz-adv-x="2181" 
d="M925 739l-80 -739h-633l-206 1300h495l77 -880l109 880h482l107 -880l78 880h496l-206 -1300h-637zM1388 1635l-826 -225l-70 205l686 563z" />
    <glyph glyph-name="wdieresis" unicode="&#x1e85;" horiz-adv-x="2181" 
d="M925 739l-80 -739h-633l-206 1300h495l77 -880l109 880h482l107 -880l78 880h496l-206 -1300h-637zM750 1789v-336h-407v336h407zM1368 1789v-336h-407v336h407z" />
    <glyph glyph-name="endash" unicode="&#x2013;" horiz-adv-x="1006" 
d="M812 897v-436h-753v436h753z" />
    <glyph glyph-name="emdash" unicode="&#x2014;" horiz-adv-x="1911" 
d="M1583 897v-436h-1524v436h1524z" />
    <glyph glyph-name="afii00208" unicode="&#x2015;" horiz-adv-x="1911" 
d="M1583 897v-436h-1524v436h1524z" />
    <glyph glyph-name="quoteleft" unicode="&#x2018;" horiz-adv-x="711" 
d="M535 1436q-53 -12 -94 -35q-18 -10 -34.5 -22.5t-29.5 -29t-21 -37t-8 -44.5h210v-487h-492v337q0 152 32 251.5t92.5 158.5t147.5 83t197 24v-199z" />
    <glyph glyph-name="quoteright" unicode="&#x2019;" horiz-adv-x="696" 
d="M90 948q52 12 93 35q18 10 34.5 22.5t30 29t21.5 37t8 44.5h-211v487h492v-337q0 -152 -32 -251.5t-92 -158.5t-147 -83t-197 -24v199z" />
    <glyph glyph-name="quotesinglbase" unicode="&#x201a;" horiz-adv-x="635" 
d="M420 -406h-288l-85 806h458z" />
    <glyph glyph-name="quotedblleft" unicode="&#x201c;" horiz-adv-x="1366" 
d="M535 1436q-53 -12 -94 -35q-18 -10 -34.5 -22.5t-29.5 -29t-21 -37t-8 -44.5h210v-487h-492v337q0 152 32 251.5t92.5 158.5t147.5 83t197 24v-199zM1092 1436q-53 -12 -94 -35q-18 -10 -34.5 -22.5t-29.5 -29t-21 -37t-8 -44.5h212v-487h-494v337q0 152 32 251.5
t93 158.5t147.5 83t196.5 24v-199z" />
    <glyph glyph-name="quotedblright" unicode="&#x201d;" horiz-adv-x="1358" 
d="M90 948q52 12 93 35q18 10 34.5 22.5t30 29t21.5 37t8 44.5h-211v487h492v-337q0 -152 -32 -251.5t-92 -158.5t-147 -83t-197 -24v199zM651 948q52 12 93 35q18 10 34.5 22.5t30 29t21.5 37t8 44.5h-211v487h492v-337q0 -152 -32 -251.5t-92 -158.5t-147 -83t-197 -24
v199z" />
    <glyph glyph-name="quotedblbase" unicode="&#x201e;" horiz-adv-x="1255" 
d="M420 -507h-288l-85 806h458zM948 -507h-288l-85 806h458z" />
    <glyph glyph-name="dagger" unicode="&#x2020;" horiz-adv-x="1323" 
d="M825 0h-521v900h-263v400h276v295h508v-295h272v-400h-272v-900z" />
    <glyph glyph-name="daggerdbl" unicode="&#x2021;" horiz-adv-x="1352" 
d="M839 695h272v-400h-272v-295h-520v295h-264v400h264v205h-264v400h264v295h520v-295h272v-400h-272v-205z" />
    <glyph glyph-name="bullet" unicode="&#x2022;" horiz-adv-x="1155" 
d="M945 726q0 -142 -22.5 -240t-59 -161t-83 -97.5t-94 -50.5t-92.5 -18.5t-79 -2.5q-47 0 -99.5 3t-103.5 19t-97 50.5t-81 98t-56 160.5t-21 239q0 141 21 238t56 160t81 97.5t97 50.5t103.5 19t99.5 3q34 0 79 -2.5t92.5 -18.5t94 -50t83 -97t59 -160.5t22.5 -239.5z" />
    <glyph glyph-name="ellipsis" unicode="&#x2026;" horiz-adv-x="2068" 
d="M532 0h-458v467h458v-467zM1120 0h-458v467h458v-467zM1707 0h-458v467h458v-467z" />
    <glyph glyph-name="perthousand" unicode="&#x2030;" horiz-adv-x="4059" 
d="M1648 1670l-340 -1710h-459l344 1710h455zM3008 955h-82v-665h82v665zM2965 75q-113 0 -190.5 14t-127.5 38t-77.5 55t-40 66t-14.5 70.5t-2 67.5v477q0 32 2 67.5t14.5 70t40 66t77.5 55.5t127.5 38t190.5 14t190 -14t127 -38t77.5 -55.5t40 -66t14.5 -70t2 -67.5v-477
q0 -32 -2 -67.5t-14.5 -70.5t-40 -66t-77.5 -55t-127 -38t-190 -14zM2048 955h-81v-665h81v665zM2005 75q-113 0 -190 14t-127 38t-77 55t-39.5 66t-14.5 70.5t-2 67.5v477q0 32 2 67.5t14.5 70t39.5 66t77 55.5t127 38t190 14t190.5 -14t127.5 -38t77.5 -55.5t40 -66
t14.5 -70t2 -67.5v-477q0 -32 -2 -67.5t-14.5 -70.5t-40 -66t-77.5 -55t-127.5 -38t-190.5 -14zM540 1334h-82v-665h82v665zM497 454q-113 0 -190.5 14t-127.5 38t-77.5 55.5t-40 66t-14.5 70t-2 67.5v479q0 32 2 67t14.5 69.5t40 65.5t77.5 55t127.5 38t190.5 14t190.5 -14
t127.5 -38t77.5 -55t40 -65.5t14.5 -69.5t2 -67v-479q0 -32 -2 -67.5t-14.5 -70t-40 -66t-77.5 -55.5t-127.5 -38t-190.5 -14z" />
    <glyph glyph-name="guilsinglleft" unicode="&#x2039;" horiz-adv-x="1051" 
d="M43 1098l792 497v-505l-543 -293l543 -293v-504l-792 489v609z" />
    <glyph glyph-name="guilsinglright" unicode="&#x203a;" horiz-adv-x="1051" 
d="M867 489l-793 -489v504l543 293l-543 295v505l793 -499v-609z" />
    <glyph glyph-name="uni2074" unicode="&#x2074;" horiz-adv-x="1210" 
d="M980 330h-434v194h-503v332l166 750h426l-165 -750v-44h76v268h434v-750z" />
    <glyph glyph-name="Euro" unicode="&#x20ac;" horiz-adv-x="1622" 
d="M183 814h-142v176h142v24q0 108 8 192.5t30.5 147.5t63.5 106.5t107.5 70.5t161.5 39t226 12q137 0 232 -17.5t157 -47t96 -68t50.5 -81.5t19.5 -87t3 -84v-127h-527v244h-96v-324h300v-176h-300v-88h300v-173h-300v-374h96v294h527v-127q0 -40 -3 -84t-19.5 -87
t-50.5 -81.5t-96 -68t-157 -47t-232 -17.5q-131 0 -226 12t-161.5 39t-107.5 70.5t-63.5 106.5t-30.5 147.5t-8 192.5v24h-142v173h142v88z" />
    <glyph glyph-name="trademark" unicode="&#x2122;" horiz-adv-x="1974" 
d="M668 1595v-142h-148v-796h-337v796h-146v142h631zM1113 657l-70 294v-294h-336v938h393l62 -437l53 437h399v-938h-335v294l-72 -294h-94z" />
    <glyph glyph-name="minus" unicode="&#x2212;" horiz-adv-x="1012" 
d="M814 897v-436h-753v436h753z" />
    <glyph glyph-name="uniFB01" unicode="&#xfb01;" horiz-adv-x="1819" 
d="M1479 0h-528v1098h-260v-1098h-528v1098h-153v202h153v17q0 103 21.5 177.5t75 122t144.5 70t231 22.5h844v-316h-528v84h-260v-177h788v-1300z" />
    <glyph glyph-name="uniFB02" unicode="&#xfb02;" horiz-adv-x="1823" 
d="M1483 0h-528v1098h-264v-1098h-528v1098h-153v202h153v17q0 103 21.5 177.5t75 122.5t144.5 71t231 23l848 -1v-1710zM691 1300h264v177h-264v-177z" />
    </font>
</defs>
</svg>
